Exo-Light.ufo
<glyph name=".notdef" format="1">
  <advance width="653"/>
  <unicode hex="0000"/>
  <outline>
    <contour>
      <point x="58" y="-2" type="line"/>
      <point x="595" y="-2" type="line"/>
      <point x="595" y="535" type="line"/>
      <point x="58" y="535" type="line"/>
    </contour>
    <contour>
      <point x="494" y="128" type="line"/>
      <point x="356" y="266" type="line"/>
      <point x="494" y="404" type="line"/>
      <point x="465" y="433" type="line"/>
      <point x="327" y="295" type="line"/>
      <point x="189" y="433" type="line"/>
      <point x="160" y="404" type="line"/>
      <point x="298" y="266" type="line"/>
      <point x="160" y="128" type="line"/>
      <point x="189" y="99" type="line"/>
      <point x="327" y="237" type="line"/>
      <point x="465" y="99" type="line"/>
    </contour>
    <contour>
      <point x="94" y="34" type="line"/>
      <point x="94" y="499" type="line"/>
      <point x="559" y="499" type="line"/>
      <point x="559" y="34" type="line"/>
    </contour>
  </outline>
</glyph>
<glyph name="exclam" format="1">
  <advance width="263"/>
  <unicode hex="0021"/>
  <note>
    GF Latin Plus glyph
  </note>
  <outline>
    <contour>
      <point x="109" y="198" type="line"/>
      <point x="150" y="198" type="line"/>
      <point x="159" y="733" type="line"/>
      <point x="101" y="733" type="line"/>
    </contour>
    <component base="period" xOffset="35"/>
  </outline>
</glyph>
<glyph name="numbersign" format="1">
  <advance width="673"/>
  <unicode hex="0023"/>
  <note>
    GF Latin Plus glyph
  </note>
  <outline>
    <contour>
      <point x="238" y="273" type="line"/>
      <point x="267" y="455" type="line"/>
      <point x="434" y="455" type="line"/>
      <point x="405" y="273" type="line"/>
    </contour>
    <contour>
      <point x="25" y="237" type="line"/>
      <point x="195" y="237" type="line"/>
      <point x="156" y="0" type="line"/>
      <point x="192" y="0" type="line"/>
      <point x="231" y="237" type="line"/>
      <point x="397" y="237" type="line"/>
      <point x="359" y="0" type="line"/>
      <point x="395" y="0" type="line"/>
      <point x="433" y="237" type="line"/>
      <point x="612" y="237" type="line"/>
      <point x="617" y="273" type="line"/>
      <point x="441" y="273" type="line"/>
      <point x="470" y="455" type="line"/>
      <point x="646" y="455" type="line"/>
      <point x="652" y="491" type="line"/>
      <point x="476" y="491" type="line"/>
      <point x="515" y="732" type="line"/>
      <point x="479" y="732" type="line"/>
      <point x="440" y="491" type="line"/>
      <point x="274" y="491" type="line"/>
      <point x="314" y="732" type="line"/>
      <point x="278" y="732" type="line"/>
      <point x="238" y="491" type="line"/>
      <point x="64" y="491" type="line"/>
      <point x="58" y="455" type="line"/>
      <point x="231" y="455" type="line"/>
      <point x="202" y="273" type="line"/>
      <point x="30" y="273" type="line"/>
    </contour>
  </outline>
</glyph>
<glyph name="dollar" format="1">
  <advance width="609"/>
  <unicode hex="0024"/>
  <note>
    GF Latin Plus glyph
  </note>
  <outline>
    <contour>
      <point x="273" y="730" type="line"/>
      <point x="309" y="729" type="line"/>
      <point x="309" y="824" type="line"/>
      <point x="273" y="824" type="line"/>
    </contour>
    <contour>
      <point x="273" y="-88" type="line"/>
      <point x="309" y="-88" type="line"/>
      <point x="309" y="4" type="line"/>
      <point x="273" y="5" type="line"/>
    </contour>
    <component base="S"/>
  </outline>
</glyph>
<glyph name="ampersand" format="1">
  <advance width="665"/>
  <unicode hex="0026"/>
  <note>
    GF Latin Plus glyph
  </note>
  <outline>
    <contour>
      <point x="244" y="49" type="curve" smooth="yes"/>
      <point x="155" y="49"/>
      <point x="98" y="105"/>
      <point x="98" y="193" type="curve" smooth="yes"/>
      <point x="98" y="244"/>
      <point x="118" y="295"/>
      <point x="178" y="346" type="curve" smooth="yes"/>
      <point x="235" y="394" type="line"/>
      <point x="418" y="147" type="line"/>
      <point x="385" y="114" type="line" smooth="yes"/>
      <point x="331" y="63"/>
      <point x="290" y="49"/>
    </contour>
    <contour>
      <point x="236" y="-6" type="curve" smooth="yes"/>
      <point x="301" y="-6"/>
      <point x="353" y="16"/>
      <point x="419" y="77" type="curve" smooth="yes"/>
      <point x="451" y="106" type="line"/>
      <point x="531" y="0" type="line"/>
      <point x="595" y="0" type="line"/>
      <point x="491" y="140" type="line"/>
      <point x="563" y="209" type="line"/>
      <point x="632" y="299" type="line"/>
      <point x="610" y="324" type="line"/>
      <point x="459" y="180" type="line"/>
      <point x="242" y="476" type="line" smooth="yes"/>
      <point x="205" y="527"/>
      <point x="191" y="560"/>
      <point x="191" y="597" type="curve" smooth="yes"/>
      <point x="191" y="659"/>
      <point x="240" y="682"/>
      <point x="309" y="682" type="curve" smooth="yes"/>
      <point x="463" y="682" type="line"/>
      <point x="463" y="723" type="line"/>
      <point x="422" y="728"/>
      <point x="379" y="733"/>
      <point x="299" y="733" type="curve" smooth="yes"/>
      <point x="210" y="733"/>
      <point x="133" y="700"/>
      <point x="133" y="605" type="curve" smooth="yes"/>
      <point x="133" y="567"/>
      <point x="145" y="521"/>
      <point x="186" y="464" type="curve" smooth="yes"/>
      <point x="206" y="435" type="line"/>
      <point x="138" y="378" type="line" smooth="yes"/>
      <point x="71" y="321"/>
      <point x="42" y="256"/>
      <point x="42" y="188" type="curve" smooth="yes"/>
      <point x="42" y="70"/>
      <point x="125" y="-6"/>
    </contour>
  </outline>
</glyph>
<glyph name="quotesingle" format="1">
  <advance width="142"/>
  <unicode hex="0027"/>
  <note>
    GF Latin Plus glyph
  </note>
  <outline>
    <contour>
      <point x="41" y="677" type="line"/>
      <point x="49" y="510" type="line"/>
      <point x="92" y="510" type="line"/>
      <point x="98" y="677" type="line"/>
      <point x="98" y="744" type="line"/>
      <point x="41" y="744" type="line"/>
    </contour>
  </outline>
</glyph>
<glyph name="parenleft" format="1">
  <advance width="335"/>
  <unicode hex="0028"/>
  <note>
    GF Latin Plus glyph
  </note>
  <outline>
    <contour>
      <point x="89" y="326" type="curve" smooth="yes"/>
      <point x="89" y="114"/>
      <point x="156" y="-49"/>
      <point x="254" y="-210" type="curve"/>
      <point x="311" y="-210" type="line"/>
      <point x="213" y="-37"/>
      <point x="147" y="124"/>
      <point x="147" y="326" type="curve" smooth="yes"/>
      <point x="147" y="526"/>
      <point x="217" y="695"/>
      <point x="310" y="860" type="curve"/>
      <point x="254" y="860" type="line"/>
      <point x="159" y="701"/>
      <point x="89" y="533"/>
    </contour>
  </outline>
</glyph>
<glyph name="parenright" format="1">
  <advance width="334"/>
  <unicode hex="0029"/>
  <note>
    GF Latin Plus glyph
  </note>
  <outline>
    <contour>
      <point x="24" y="-210" type="curve"/>
      <point x="80" y="-210" type="line"/>
      <point x="184" y="-41"/>
      <point x="245" y="117"/>
      <point x="245" y="326" type="curve" smooth="yes"/>
      <point x="245" y="535"/>
      <point x="184" y="693"/>
      <point x="80" y="860" type="curve"/>
      <point x="24" y="860" type="line"/>
      <point x="129" y="681"/>
      <point x="187" y="525"/>
      <point x="187" y="326" type="curve" smooth="yes"/>
      <point x="187" y="124"/>
      <point x="126" y="-36"/>
    </contour>
  </outline>
</glyph>
<glyph name="asterisk" format="1">
  <advance width="459"/>
  <unicode hex="002A"/>
  <note>
    GF Latin Plus glyph
  </note>
  <outline>
    <contour>
      <point x="60" y="587" type="line"/>
      <point x="202" y="581" type="line"/>
      <point x="201" y="619" type="line"/>
      <point x="60" y="612" type="line"/>
    </contour>
    <contour>
      <point x="196" y="723" type="line"/>
      <point x="249" y="591" type="line"/>
      <point x="286" y="607" type="line"/>
      <point x="220" y="730" type="line"/>
    </contour>
    <contour>
      <point x="272" y="556" type="line"/>
      <point x="299" y="526" type="line"/>
      <point x="400" y="617" type="line"/>
      <point x="386" y="638" type="line"/>
    </contour>
    <contour>
      <point x="226" y="488" type="line"/>
      <point x="349" y="418" type="line"/>
      <point x="363" y="438" type="line"/>
      <point x="246" y="522" type="line"/>
    </contour>
    <contour>
      <point x="134" y="411" type="line"/>
      <point x="157" y="403" type="line"/>
      <point x="204" y="538" type="line"/>
      <point x="165" y="546" type="line"/>
    </contour>
  </outline>
</glyph>
<glyph name="comma" format="1">
  <advance width="189"/>
  <unicode hex="002C"/>
  <note>
    GF Latin Plus glyph
  </note>
  <outline>
    <contour>
      <point x="65" y="18" type="line" smooth="yes"/>
      <point x="65" y="8"/>
      <point x="71" y="3"/>
      <point x="79" y="3" type="curve" smooth="yes"/>
      <point x="86" y="3" type="line"/>
      <point x="86" y="-39" type="line" smooth="yes"/>
      <point x="86" y="-51"/>
      <point x="81" y="-55"/>
      <point x="67" y="-55" type="curve"/>
      <point x="67" y="-72" type="line"/>
      <point x="67" y="-72"/>
      <point x="76" y="-75"/>
      <point x="85" y="-75" type="curve" smooth="yes"/>
      <point x="102" y="-75"/>
      <point x="124" y="-68"/>
      <point x="124" y="-32" type="curve" smooth="yes"/>
      <point x="124" y="86" type="line" smooth="yes"/>
      <point x="124" y="95"/>
      <point x="120" y="101"/>
      <point x="110" y="101" type="curve" smooth="yes"/>
      <point x="79" y="101" type="line" smooth="yes"/>
      <point x="70" y="101"/>
      <point x="65" y="96"/>
      <point x="65" y="86" type="curve" smooth="yes"/>
    </contour>
  </outline>
</glyph>
<glyph name="hyphen" format="1">
  <advance width="341"/>
  <unicode hex="002D"/>
  <note>
    GF Latin Plus glyph
  </note>
  <outline>
    <contour>
      <point x="26" y="265" type="line"/>
      <point x="316" y="265" type="line"/>
      <point x="316" y="315" type="line"/>
      <point x="26" y="315" type="line"/>
    </contour>
  </outline>
</glyph>
<glyph name="period" format="1">
  <advance width="189"/>
  <unicode hex="002E"/>
  <note>
    GF Latin Plus glyph
  </note>
  <outline>
    <contour>
      <point x="65" y="14" type="line" smooth="yes"/>
      <point x="65" y="5"/>
      <point x="71" y="0"/>
      <point x="79" y="0" type="curve" smooth="yes"/>
      <point x="111" y="0" type="line" smooth="yes"/>
      <point x="119" y="0"/>
      <point x="125" y="4"/>
      <point x="125" y="14" type="curve" smooth="yes"/>
      <point x="125" y="87" type="line" smooth="yes"/>
      <point x="125" y="96"/>
      <point x="121" y="101"/>
      <point x="111" y="101" type="curve" smooth="yes"/>
      <point x="79" y="101" type="line" smooth="yes"/>
      <point x="70" y="101"/>
      <point x="65" y="96"/>
      <point x="65" y="87" type="curve" smooth="yes"/>
    </contour>
  </outline>
</glyph>
<glyph name="one" format="1">
  <advance width="359"/>
  <unicode hex="0031"/>
  <note>
    GF Latin Plus glyph
  </note>
  <outline>
    <contour>
      <point x="48" y="635" type="line"/>
      <point x="206" y="683" type="line"/>
      <point x="206" y="0" type="line"/>
      <point x="264" y="0" type="line"/>
      <point x="264" y="742" type="line"/>
      <point x="210" y="742" type="line"/>
      <point x="48" y="672" type="line"/>
    </contour>
  </outline>
</glyph>
<glyph name="two" format="1">
  <advance width="595"/>
  <unicode hex="0032"/>
  <note>
    GF Latin Plus glyph
  </note>
  <outline>
    <contour>
      <point x="86" y="686" type="line"/>
      <point x="283" y="686" type="line" smooth="yes"/>
      <point x="424" y="686"/>
      <point x="458" y="627"/>
      <point x="458" y="550" type="curve" smooth="yes"/>
      <point x="458" y="460"/>
      <point x="427" y="399"/>
      <point x="337" y="314" type="curve" smooth="yes"/>
      <point x="57" y="48" type="line"/>
      <point x="57" y="0" type="line"/>
      <point x="544" y="0" type="line"/>
      <point x="544" y="54" type="line"/>
      <point x="137" y="54" type="line"/>
      <point x="380" y="286" type="line" smooth="yes"/>
      <point x="477" y="378"/>
      <point x="516" y="451"/>
      <point x="516" y="555" type="curve" smooth="yes"/>
      <point x="516" y="663"/>
      <point x="463" y="740"/>
      <point x="296" y="740" type="curve" smooth="yes"/>
      <point x="221" y="740"/>
      <point x="145" y="734"/>
      <point x="86" y="729" type="curve"/>
    </contour>
  </outline>
</glyph>
<glyph name="four" format="1">
  <advance width="587"/>
  <unicode hex="0034"/>
  <note>
    GF Latin Plus glyph
  </note>
  <outline>
    <contour>
      <point x="27" y="233" type="line"/>
      <point x="42" y="197" type="line"/>
      <point x="396" y="197" type="line"/>
      <point x="396" y="2" type="line"/>
      <point x="454" y="2" type="line"/>
      <point x="454" y="197" type="line"/>
      <point x="562" y="208" type="line"/>
      <point x="562" y="247" type="line"/>
      <point x="454" y="247" type="line"/>
      <point x="454" y="523" type="line"/>
      <point x="410" y="523" type="line"/>
      <point x="396" y="460" type="line"/>
      <point x="396" y="247" type="line"/>
      <point x="94" y="247" type="line"/>
      <point x="376" y="734" type="line"/>
      <point x="316" y="734" type="line"/>
    </contour>
  </outline>
</glyph>
<glyph name="five" format="1">
  <advance width="638"/>
  <unicode hex="0035"/>
  <note>
    GF Latin Plus glyph
  </note>
  <outline>
    <contour>
      <point x="91" y="4" type="line"/>
      <point x="158" y="-2"/>
      <point x="252" y="-4"/>
      <point x="345" y="-4" type="curve" smooth="yes"/>
      <point x="474" y="-4"/>
      <point x="568" y="54"/>
      <point x="568" y="170" type="curve" smooth="yes"/>
      <point x="568" y="279" type="line" smooth="yes"/>
      <point x="568" y="373"/>
      <point x="503" y="442"/>
      <point x="388" y="442" type="curve" smooth="yes"/>
      <point x="298" y="442" type="line" smooth="yes"/>
      <point x="230" y="442"/>
      <point x="188" y="411"/>
      <point x="173" y="382" type="curve"/>
      <point x="187" y="682" type="line"/>
      <point x="545" y="682" type="line"/>
      <point x="545" y="734" type="line"/>
      <point x="136" y="734" type="line"/>
      <point x="115" y="299" type="line"/>
      <point x="170" y="299" type="line"/>
      <point x="182" y="362"/>
      <point x="222" y="391"/>
      <point x="288" y="391" type="curve" smooth="yes"/>
      <point x="373" y="391" type="line" smooth="yes"/>
      <point x="464" y="391"/>
      <point x="510" y="345"/>
      <point x="510" y="270" type="curve" smooth="yes"/>
      <point x="510" y="180" type="line" smooth="yes"/>
      <point x="510" y="96"/>
      <point x="439" y="48"/>
      <point x="345" y="48" type="curve" smooth="yes"/>
      <point x="91" y="48" type="line"/>
    </contour>
  </outline>
</glyph>
<glyph name="six" format="1">
  <advance width="628"/>
  <unicode hex="0036"/>
  <note>
    GF Latin Plus glyph
  </note>
  <outline>
    <contour>
      <point x="136" y="356" type="curve"/>
      <point x="339" y="356" type="line" smooth="yes"/>
      <point x="439" y="356"/>
      <point x="501" y="339"/>
      <point x="501" y="249" type="curve" smooth="yes"/>
      <point x="501" y="161" type="line" smooth="yes"/>
      <point x="501" y="71"/>
      <point x="446" y="50"/>
      <point x="382" y="50" type="curve" smooth="yes"/>
      <point x="283" y="50" type="line" smooth="yes"/>
      <point x="190" y="50"/>
      <point x="136" y="112"/>
    </contour>
    <contour>
      <point x="78" y="370" type="curve" smooth="yes"/>
      <point x="78" y="71"/>
      <point x="156" y="-2"/>
      <point x="275" y="-2" type="curve" smooth="yes"/>
      <point x="391" y="-2" type="line" smooth="yes"/>
      <point x="481" y="-2"/>
      <point x="558" y="38"/>
      <point x="558" y="154" type="curve" smooth="yes"/>
      <point x="558" y="256" type="line" smooth="yes"/>
      <point x="558" y="371"/>
      <point x="479" y="406"/>
      <point x="350" y="406" type="curve" smooth="yes"/>
      <point x="298" y="406"/>
      <point x="200" y="404"/>
      <point x="136" y="397" type="curve"/>
      <point x="136" y="593"/>
      <point x="211" y="688"/>
      <point x="330" y="688" type="curve" smooth="yes"/>
      <point x="514" y="688" type="line"/>
      <point x="514" y="731" type="line"/>
      <point x="461" y="736"/>
      <point x="386" y="740"/>
      <point x="332" y="740" type="curve" smooth="yes"/>
      <point x="172" y="740"/>
      <point x="78" y="627"/>
    </contour>
  </outline>
</glyph>
<glyph name="seven" format="1">
  <advance width="540"/>
  <unicode hex="0037"/>
  <note>
    GF Latin Plus glyph
  </note>
  <outline>
    <contour>
      <point x="35" y="676" type="line"/>
      <point x="424" y="676" type="line"/>
      <point x="154" y="0" type="line"/>
      <point x="220" y="0" type="line"/>
      <point x="496" y="700" type="line"/>
      <point x="474" y="734" type="line"/>
      <point x="35" y="734" type="line"/>
    </contour>
  </outline>
</glyph>
<glyph name="eight" format="1">
  <advance width="648"/>
  <unicode hex="0038"/>
  <note>
    GF Latin Plus glyph
  </note>
  <outline>
    <contour>
      <point x="160" y="498" type="curve" smooth="yes"/>
      <point x="160" y="575" type="line" smooth="yes"/>
      <point x="160" y="654"/>
      <point x="192" y="689"/>
      <point x="270" y="689" type="curve" smooth="yes"/>
      <point x="389" y="689" type="line" smooth="yes"/>
      <point x="455" y="689"/>
      <point x="488" y="659"/>
      <point x="488" y="575" type="curve" smooth="yes"/>
      <point x="488" y="498" type="line" smooth="yes"/>
      <point x="488" y="454"/>
      <point x="460" y="400"/>
      <point x="383" y="400" type="curve" smooth="yes"/>
      <point x="269" y="400" type="line" smooth="yes"/>
      <point x="194" y="400"/>
      <point x="160" y="443"/>
    </contour>
    <contour>
      <point x="147" y="146" type="curve" smooth="yes"/>
      <point x="147" y="247" type="line" smooth="yes"/>
      <point x="147" y="324"/>
      <point x="226" y="349"/>
      <point x="269" y="349" type="curve" smooth="yes"/>
      <point x="383" y="349" type="line" smooth="yes"/>
      <point x="469" y="349"/>
      <point x="501" y="321"/>
      <point x="501" y="247" type="curve" smooth="yes"/>
      <point x="501" y="146" type="line" smooth="yes"/>
      <point x="501" y="82"/>
      <point x="465" y="49"/>
      <point x="389" y="49" type="curve" smooth="yes"/>
      <point x="270" y="49" type="line" smooth="yes"/>
      <point x="200" y="49"/>
      <point x="147" y="76"/>
    </contour>
    <contour>
      <point x="89" y="140" type="line" smooth="yes"/>
      <point x="89" y="41"/>
      <point x="158" y="-1"/>
      <point x="263" y="-1" type="curve" smooth="yes"/>
      <point x="398" y="-1" type="line" smooth="yes"/>
      <point x="497" y="-1"/>
      <point x="559" y="41"/>
      <point x="559" y="140" type="curve" smooth="yes"/>
      <point x="559" y="254" type="line" smooth="yes"/>
      <point x="559" y="312"/>
      <point x="530" y="369"/>
      <point x="467" y="380" type="curve"/>
      <point x="518" y="396"/>
      <point x="545" y="453"/>
      <point x="545" y="501" type="curve" smooth="yes"/>
      <point x="545" y="586" type="line" smooth="yes"/>
      <point x="545" y="696"/>
      <point x="491" y="739"/>
      <point x="398" y="739" type="curve" smooth="yes"/>
      <point x="261" y="739" type="line" smooth="yes"/>
      <point x="171" y="739"/>
      <point x="103" y="696"/>
      <point x="103" y="586" type="curve" smooth="yes"/>
      <point x="103" y="501" type="line" smooth="yes"/>
      <point x="103" y="448"/>
      <point x="124" y="398"/>
      <point x="187" y="371" type="curve"/>
      <point x="147" y="362"/>
      <point x="89" y="323"/>
      <point x="89" y="247" type="curve" smooth="yes"/>
    </contour>
  </outline>
</glyph>
<glyph name="nine" format="1">
  <advance width="628"/>
  <unicode hex="0039"/>
  <note>
    GF Latin Plus glyph
  </note>
  <outline>
    <contour>
      <point x="494" y="380" type="curve"/>
      <point x="290" y="380" type="line" smooth="yes"/>
      <point x="190" y="380"/>
      <point x="129" y="397"/>
      <point x="129" y="487" type="curve" smooth="yes"/>
      <point x="129" y="575" type="line" smooth="yes"/>
      <point x="129" y="665"/>
      <point x="184" y="685"/>
      <point x="248" y="685" type="curve" smooth="yes"/>
      <point x="346" y="685" type="line" smooth="yes"/>
      <point x="439" y="685"/>
      <point x="494" y="624"/>
    </contour>
    <contour>
      <point x="552" y="366" type="curve" smooth="yes"/>
      <point x="552" y="665"/>
      <point x="473" y="738"/>
      <point x="354" y="738" type="curve" smooth="yes"/>
      <point x="239" y="738" type="line" smooth="yes"/>
      <point x="148" y="738"/>
      <point x="72" y="697"/>
      <point x="72" y="582" type="curve" smooth="yes"/>
      <point x="72" y="479" type="line" smooth="yes"/>
      <point x="72" y="365"/>
      <point x="151" y="330"/>
      <point x="279" y="330" type="curve" smooth="yes"/>
      <point x="332" y="330"/>
      <point x="429" y="332"/>
      <point x="494" y="339" type="curve"/>
      <point x="494" y="142"/>
      <point x="419" y="48"/>
      <point x="300" y="48" type="curve" smooth="yes"/>
      <point x="116" y="48" type="line"/>
      <point x="116" y="4" type="line"/>
      <point x="168" y="0"/>
      <point x="243" y="-4"/>
      <point x="297" y="-4" type="curve" smooth="yes"/>
      <point x="457" y="-4"/>
      <point x="552" y="109"/>
    </contour>
  </outline>
</glyph>
<glyph name="less" format="1">
  <advance width="609"/>
  <unicode hex="003C"/>
  <note>
    GF Latin Plus glyph
  </note>
  <outline>
    <contour>
      <point x="96" y="322" type="line"/>
      <point x="511" y="186" type="line"/>
      <point x="511" y="236" type="line"/>
      <point x="150" y="350" type="line"/>
      <point x="511" y="460" type="line"/>
      <point x="511" y="510" type="line"/>
      <point x="96" y="375" type="line"/>
    </contour>
  </outline>
</glyph>
<glyph name="greater" format="1">
  <advance width="609"/>
  <unicode hex="003E"/>
  <note>
    GF Latin Plus glyph
  </note>
  <outline>
    <contour>
      <point x="98" y="186" type="line"/>
      <point x="513" y="322" type="line"/>
      <point x="513" y="375" type="line"/>
      <point x="98" y="510" type="line"/>
      <point x="98" y="460" type="line"/>
      <point x="459" y="348" type="line"/>
      <point x="98" y="236" type="line"/>
    </contour>
  </outline>
</glyph>
<glyph name="A" format="1">
  <advance width="671"/>
  <unicode hex="0041"/>
  <note>
    GF Latin Plus glyph
  </note>
  <outline>
    <contour>
      <point x="195" y="280" type="line"/>
      <point x="335" y="682" type="line"/>
      <point x="473" y="280" type="line"/>
    </contour>
    <contour>
      <point x="39" y="0" type="line"/>
      <point x="100" y="0" type="line"/>
      <point x="180" y="228" type="line"/>
      <point x="490" y="228" type="line"/>
      <point x="571" y="0" type="line"/>
      <point x="632" y="0" type="line"/>
      <point x="373" y="734" type="line"/>
      <point x="298" y="734" type="line"/>
    </contour>
    <contour>
      <point x="335" y="810" type="move" name="top"/>
    </contour>
    <contour>
      <point x="622" y="0" type="move" name="ogonek"/>
    </contour>
    <contour>
      <point x="335" y="-150" type="move" name="bottom"/>
    </contour>
  </outline>
</glyph>
<glyph name="D" format="1">
  <advance width="666"/>
  <unicode hex="0044"/>
  <note>
    GF Latin Plus glyph
  </note>
  <outline>
    <contour>
      <point x="139" y="52" type="line"/>
      <point x="139" y="682" type="line"/>
      <point x="361" y="682" type="line" smooth="yes"/>
      <point x="491" y="682"/>
      <point x="544" y="594"/>
      <point x="544" y="367" type="curve" smooth="yes"/>
      <point x="544" y="178"/>
      <point x="487" y="52"/>
      <point x="361" y="52" type="curve" smooth="yes"/>
    </contour>
    <contour>
      <point x="81" y="0" type="line"/>
      <point x="365" y="0" type="line" smooth="yes"/>
      <point x="522" y="0"/>
      <point x="602" y="142"/>
      <point x="602" y="367" type="curve" smooth="yes"/>
      <point x="602" y="609"/>
      <point x="536" y="734"/>
      <point x="365" y="734" type="curve" smooth="yes"/>
      <point x="81" y="734" type="line"/>
    </contour>
    <contour>
      <point x="315" y="810" type="move" name="top"/>
    </contour>
    <contour>
      <point x="306" y="-150" type="move" name="bottom"/>
    </contour>
  </outline>
</glyph>
<glyph name="E" format="1">
  <advance width="584"/>
  <unicode hex="0045"/>
  <note>
    GF Latin Plus glyph
  </note>
  <outline>
    <contour>
      <point x="81" y="133" type="line" smooth="yes"/>
      <point x="81" y="9"/>
      <point x="164" y="-4"/>
      <point x="230" y="-4" type="curve" smooth="yes"/>
      <point x="250" y="-4"/>
      <point x="505" y="2"/>
      <point x="522" y="5" type="curve"/>
      <point x="522" y="50" type="line"/>
      <point x="238" y="50" type="line" smooth="yes"/>
      <point x="189" y="50"/>
      <point x="139" y="62"/>
      <point x="139" y="144" type="curve" smooth="yes"/>
      <point x="139" y="338" type="line"/>
      <point x="480" y="343" type="line"/>
      <point x="480" y="386" type="line"/>
      <point x="139" y="391" type="line"/>
      <point x="139" y="586" type="line" smooth="yes"/>
      <point x="139" y="652"/>
      <point x="175" y="681"/>
      <point x="231" y="681" type="curve" smooth="yes"/>
      <point x="522" y="681" type="line"/>
      <point x="522" y="726" type="line"/>
      <point x="509" y="728"/>
      <point x="253" y="734"/>
      <point x="219" y="734" type="curve" smooth="yes"/>
      <point x="151" y="735"/>
      <point x="81" y="701"/>
      <point x="81" y="593" type="curve" smooth="yes"/>
    </contour>
    <contour>
      <point x="311" y="810" type="move" name="top"/>
    </contour>
    <contour>
      <point x="512" y="5" type="move" name="ogonek"/>
    </contour>
    <contour>
      <point x="316" y="-150" type="move" name="bottom"/>
    </contour>
  </outline>
</glyph>
<glyph name="F" format="1">
  <advance width="563"/>
  <unicode hex="0046"/>
  <note>
    GF Latin Plus glyph
  </note>
  <outline>
    <contour>
      <point x="81" y="0" type="line"/>
      <point x="139" y="0" type="line"/>
      <point x="139" y="323" type="line"/>
      <point x="480" y="328" type="line"/>
      <point x="480" y="371" type="line"/>
      <point x="139" y="376" type="line"/>
      <point x="139" y="586" type="line" smooth="yes"/>
      <point x="139" y="650"/>
      <point x="174" y="681"/>
      <point x="230" y="681" type="curve" smooth="yes"/>
      <point x="522" y="681" type="line"/>
      <point x="522" y="726" type="line"/>
      <point x="499" y="729"/>
      <point x="231" y="734"/>
      <point x="219" y="734" type="curve" smooth="yes"/>
      <point x="151" y="735"/>
      <point x="81" y="701"/>
      <point x="81" y="593" type="curve" smooth="yes"/>
    </contour>
    <contour>
      <point x="311" y="810" type="move" name="top"/>
    </contour>
  </outline>
</glyph>
<glyph name="G" format="1">
  <advance width="649"/>
  <unicode hex="0047"/>
  <note>
    GF Latin Plus glyph
  </note>
  <outline>
    <contour>
      <point x="63" y="370" type="curve" smooth="yes"/>
      <point x="63" y="102"/>
      <point x="114" y="-7"/>
      <point x="302" y="-5" type="curve" smooth="yes"/>
      <point x="385" y="-4"/>
      <point x="465" y="27"/>
      <point x="515" y="52" type="curve"/>
      <point x="525" y="0" type="line"/>
      <point x="567" y="0" type="line"/>
      <point x="567" y="379" type="line"/>
      <point x="545" y="382"/>
      <point x="515" y="383"/>
      <point x="482" y="383" type="curve" smooth="yes"/>
      <point x="418" y="383"/>
      <point x="357" y="379"/>
      <point x="319" y="373" type="curve"/>
      <point x="319" y="331" type="line"/>
      <point x="511" y="331" type="line"/>
      <point x="511" y="92" type="line"/>
      <point x="459" y="71"/>
      <point x="382" y="48"/>
      <point x="315" y="48" type="curve" smooth="yes"/>
      <point x="162" y="48"/>
      <point x="121" y="122"/>
      <point x="121" y="368" type="curve" smooth="yes"/>
      <point x="121" y="597"/>
      <point x="162" y="688"/>
      <point x="312" y="688" type="curve" smooth="yes"/>
      <point x="400" y="688"/>
      <point x="499" y="679"/>
      <point x="538" y="674" type="curve"/>
      <point x="538" y="717" type="line"/>
      <point x="471" y="731"/>
      <point x="375" y="740"/>
      <point x="305" y="740" type="curve" smooth="yes"/>
      <point x="118" y="740"/>
      <point x="63" y="623"/>
    </contour>
    <contour>
      <point x="329" y="810" type="move" name="top"/>
    </contour>
    <contour>
      <point x="336" y="-150" type="move" name="bottom"/>
    </contour>
  </outline>
</glyph>
<glyph name="J" format="1">
  <advance width="379"/>
  <unicode hex="004A"/>
  <note>
    GF Latin Plus glyph
  </note>
  <outline>
    <contour>
      <point x="27" y="18" type="line"/>
      <point x="55" y="5"/>
      <point x="101" y="-6"/>
      <point x="138" y="-6" type="curve" smooth="yes"/>
      <point x="243" y="-6"/>
      <point x="297" y="34"/>
      <point x="297" y="155" type="curve" smooth="yes"/>
      <point x="297" y="734" type="line"/>
      <point x="239" y="734" type="line"/>
      <point x="239" y="161" type="line" smooth="yes"/>
      <point x="239" y="67"/>
      <point x="194" y="46"/>
      <point x="129" y="46" type="curve" smooth="yes"/>
      <point x="104" y="46"/>
      <point x="50" y="54"/>
      <point x="27" y="62" type="curve"/>
    </contour>
    <contour>
      <point x="268" y="810" type="move" name="top"/>
    </contour>
  </outline>
</glyph>
<glyph name="K" format="1">
  <advance width="593"/>
  <unicode hex="004B"/>
  <note>
    GF Latin Plus glyph
  </note>
  <outline>
    <contour>
      <point x="81" y="0" type="line"/>
      <point x="139" y="0" type="line"/>
      <point x="139" y="341" type="line"/>
      <point x="278" y="341" type="line"/>
      <point x="496" y="0" type="line"/>
      <point x="559" y="0" type="line"/>
      <point x="325" y="367" type="line"/>
      <point x="557" y="734" type="line"/>
      <point x="495" y="734" type="line"/>
      <point x="279" y="393" type="line"/>
      <point x="139" y="393" type="line"/>
      <point x="139" y="734" type="line"/>
      <point x="81" y="734" type="line"/>
    </contour>
    <contour>
      <point x="284" y="810" type="move" name="top"/>
    </contour>
    <contour>
      <point x="284" y="-150" type="move" name="bottom"/>
    </contour>
  </outline>
</glyph>
<glyph name="L" format="1">
  <advance width="531"/>
  <unicode hex="004C"/>
  <note>
    GF Latin Plus glyph
  </note>
  <outline>
    <contour>
      <point x="81" y="139" type="line" smooth="yes"/>
      <point x="81" y="30"/>
      <point x="143" y="0"/>
      <point x="221" y="0" type="curve" smooth="yes"/>
      <point x="503" y="0" type="line"/>
      <point x="503" y="54" type="line"/>
      <point x="231" y="54" type="line" smooth="yes"/>
      <point x="185" y="54"/>
      <point x="139" y="68"/>
      <point x="139" y="146" type="curve" smooth="yes"/>
      <point x="139" y="734" type="line"/>
      <point x="81" y="734" type="line"/>
    </contour>
    <contour>
      <point x="110" y="810" type="move" name="top"/>
    </contour>
    <contour>
      <point x="179" y="650" type="move" name="altcaron"/>
    </contour>
    <contour>
      <point x="343" y="400" type="move" name="dot"/>
    </contour>
    <contour>
      <point x="268" y="-150" type="move" name="bottom"/>
    </contour>
  </outline>
</glyph>
<glyph name="M" format="1">
  <advance width="821"/>
  <unicode hex="004D"/>
  <note>
    GF Latin Plus glyph
  </note>
  <outline>
    <contour>
      <point x="61" y="0" type="line"/>
      <point x="117" y="0" type="line"/>
      <point x="192" y="675" type="line"/>
      <point x="180" y="673" type="line"/>
      <point x="383" y="0" type="line"/>
      <point x="437" y="0" type="line"/>
      <point x="636" y="674" type="line"/>
      <point x="625" y="676" type="line"/>
      <point x="703" y="0" type="line"/>
      <point x="759" y="0" type="line"/>
      <point x="674" y="734" type="line"/>
      <point x="610" y="734" type="line"/>
      <point x="410" y="77" type="line"/>
      <point x="207" y="734" type="line"/>
      <point x="144" y="734" type="line"/>
    </contour>
    <contour>
      <point x="408" y="810" type="move" name="top"/>
    </contour>
    <contour>
      <point x="408" y="-150" type="move" name="bottom"/>
    </contour>
  </outline>
</glyph>
<glyph name="O" format="1">
  <advance width="682"/>
  <unicode hex="004F"/>
  <note>
    GF Latin Plus glyph
  </note>
  <outline>
    <contour>
      <point x="121" y="363" type="curve" smooth="yes"/>
      <point x="121" y="651"/>
      <point x="195" y="688"/>
      <point x="341" y="688" type="curve" smooth="yes"/>
      <point x="497" y="688"/>
      <point x="561" y="651"/>
      <point x="561" y="363" type="curve" smooth="yes"/>
      <point x="561" y="88"/>
      <point x="498" y="46"/>
      <point x="341" y="46" type="curve" smooth="yes"/>
      <point x="178" y="46"/>
      <point x="121" y="88"/>
    </contour>
    <contour>
      <point x="63" y="363" type="curve" smooth="yes"/>
      <point x="63" y="41"/>
      <point x="155" y="-6"/>
      <point x="341" y="-6" type="curve" smooth="yes"/>
      <point x="527" y="-6"/>
      <point x="619" y="41"/>
      <point x="619" y="363" type="curve" smooth="yes"/>
      <point x="619" y="685"/>
      <point x="530" y="740"/>
      <point x="341" y="740" type="curve" smooth="yes"/>
      <point x="159" y="740"/>
      <point x="63" y="685"/>
    </contour>
    <contour>
      <point x="341" y="810" type="move" name="top"/>
    </contour>
    <contour>
      <point x="403" y="0" type="move" name="ogonek"/>
    </contour>
    <contour>
      <point x="341" y="-150" type="move" name="bottom"/>
    </contour>
  </outline>
</glyph>
<glyph name="P" format="1">
  <advance width="599"/>
  <unicode hex="0050"/>
  <note>
    GF Latin Plus glyph
  </note>
  <outline>
    <contour>
      <point x="139" y="321" type="line"/>
      <point x="139" y="682" type="line"/>
      <point x="363" y="682" type="line" smooth="yes"/>
      <point x="432" y="682"/>
      <point x="495" y="648"/>
      <point x="495" y="505" type="curve" smooth="yes"/>
      <point x="495" y="360"/>
      <point x="431" y="321"/>
      <point x="355" y="321" type="curve" smooth="yes"/>
    </contour>
    <contour>
      <point x="81" y="0" type="line"/>
      <point x="139" y="0" type="line"/>
      <point x="139" y="278" type="line"/>
      <point x="181" y="275"/>
      <point x="321" y="269"/>
      <point x="362" y="269" type="curve" smooth="yes"/>
      <point x="443" y="269"/>
      <point x="553" y="306"/>
      <point x="553" y="505" type="curve" smooth="yes"/>
      <point x="553" y="701"/>
      <point x="451" y="734"/>
      <point x="367" y="734" type="curve" smooth="yes"/>
      <point x="81" y="734" type="line"/>
    </contour>
    <contour>
      <point x="285" y="810" type="move" name="top"/>
    </contour>
  </outline>
</glyph>
<glyph name="R" format="1">
  <advance width="602"/>
  <unicode hex="0052"/>
  <note>
    GF Latin Plus glyph
  </note>
  <outline>
    <contour>
      <point x="81" y="0" type="line"/>
      <point x="139" y="0" type="line"/>
      <point x="139" y="314" type="line"/>
      <point x="191" y="312"/>
      <point x="307" y="310"/>
      <point x="349" y="310" type="curve"/>
      <point x="500" y="0" type="line"/>
      <point x="558" y="0" type="line"/>
      <point x="404" y="316" type="line"/>
      <point x="465" y="325"/>
      <point x="551" y="357"/>
      <point x="551" y="524" type="curve" smooth="yes"/>
      <point x="551" y="706"/>
      <point x="455" y="734"/>
      <point x="366" y="734" type="curve" smooth="yes"/>
      <point x="81" y="734" type="line"/>
    </contour>
    <contour>
      <point x="139" y="358" type="line"/>
      <point x="139" y="682" type="line"/>
      <point x="359" y="682" type="line" smooth="yes"/>
      <point x="428" y="682"/>
      <point x="493" y="659"/>
      <point x="493" y="524" type="curve" smooth="yes"/>
      <point x="493" y="383"/>
      <point x="430" y="358"/>
      <point x="359" y="358" type="curve" smooth="yes"/>
    </contour>
    <contour>
      <point x="291" y="810" type="move" name="top"/>
    </contour>
    <contour>
      <point x="292" y="-150" type="move" name="bottom"/>
    </contour>
  </outline>
</glyph>
<glyph name="T" format="1">
  <advance width="560"/>
  <unicode hex="0054"/>
  <note>
    GF Latin Plus glyph
  </note>
  <outline>
    <contour>
      <point x="16" y="682" type="line"/>
      <point x="251" y="682" type="line"/>
      <point x="251" y="0" type="line"/>
      <point x="309" y="0" type="line"/>
      <point x="309" y="682" type="line"/>
      <point x="544" y="682" type="line"/>
      <point x="544" y="734" type="line"/>
      <point x="16" y="734" type="line"/>
    </contour>
    <contour>
      <point x="280" y="810" type="move" name="top"/>
    </contour>
    <contour>
      <point x="280" y="-150" type="move" name="bottom"/>
    </contour>
  </outline>
</glyph>
<glyph name="U" format="1">
  <advance width="673"/>
  <unicode hex="0055"/>
  <note>
    GF Latin Plus glyph
  </note>
  <outline>
    <contour>
      <point x="71" y="225" type="line" smooth="yes"/>
      <point x="71" y="47"/>
      <point x="171" y="-6"/>
      <point x="336" y="-6" type="curve" smooth="yes"/>
      <point x="502" y="-6"/>
      <point x="601" y="47"/>
      <point x="601" y="225" type="curve" smooth="yes"/>
      <point x="601" y="734" type="line"/>
      <point x="543" y="734" type="line"/>
      <point x="543" y="225" type="line" smooth="yes"/>
      <point x="543" y="85"/>
      <point x="467" y="47"/>
      <point x="336" y="47" type="curve" smooth="yes"/>
      <point x="206" y="47"/>
      <point x="129" y="85"/>
      <point x="129" y="225" type="curve" smooth="yes"/>
      <point x="129" y="734" type="line"/>
      <point x="71" y="734" type="line"/>
    </contour>
    <contour>
      <point x="334" y="810" type="move" name="top"/>
    </contour>
    <contour>
      <point x="410" y="0" type="move" name="ogonek"/>
    </contour>
    <contour>
      <point x="334" y="-150" type="move" name="bottom"/>
    </contour>
  </outline>
</glyph>
<glyph name="W" format="1">
  <advance width="991"/>
  <unicode hex="0057"/>
  <note>
    GF Latin Plus glyph
  </note>
  <outline>
    <contour>
      <point x="39" y="734" type="line"/>
      <point x="232" y="0" type="line"/>
      <point x="298" y="0" type="line"/>
      <point x="496" y="657" type="line"/>
      <point x="693" y="0" type="line"/>
      <point x="759" y="0" type="line"/>
      <point x="952" y="734" type="line"/>
      <point x="892" y="734" type="line"/>
      <point x="721" y="75" type="line"/>
      <point x="527" y="734" type="line"/>
      <point x="465" y="734" type="line"/>
      <point x="270" y="75" type="line"/>
      <point x="100" y="734" type="line"/>
    </contour>
    <contour>
      <point x="500" y="810" type="move" name="top"/>
    </contour>
  </outline>
</glyph>
<glyph name="X" format="1">
  <advance width="611"/>
  <unicode hex="0058"/>
  <note>
    GF Latin Plus glyph
  </note>
  <outline>
    <contour>
      <point x="44" y="0" type="line"/>
      <point x="108" y="0" type="line"/>
      <point x="311" y="329" type="line"/>
      <point x="281" y="379" type="line"/>
    </contour>
    <contour>
      <point x="304" y="400" type="line"/>
      <point x="330" y="345" type="line"/>
      <point x="570" y="734" type="line"/>
      <point x="506" y="734" type="line"/>
    </contour>
    <contour>
      <point x="41" y="734" type="line"/>
      <point x="505" y="0" type="line"/>
      <point x="569" y="0" type="line"/>
      <point x="105" y="734" type="line"/>
    </contour>
    <contour>
      <point x="299" y="810" type="move" name="top"/>
    </contour>
    <contour>
      <point x="299" y="-150" type="move" name="bottom"/>
    </contour>
  </outline>
</glyph>
<glyph name="Y" format="1">
  <advance width="615"/>
  <unicode hex="0059"/>
  <note>
    GF Latin Plus glyph
  </note>
  <outline>
    <contour>
      <point x="41" y="734" type="line"/>
      <point x="278" y="250" type="line"/>
      <point x="278" y="0" type="line"/>
      <point x="336" y="0" type="line"/>
      <point x="336" y="250" type="line"/>
      <point x="574" y="734" type="line"/>
      <point x="514" y="734" type="line"/>
      <point x="308" y="308" type="line"/>
      <point x="102" y="734" type="line"/>
    </contour>
    <contour>
      <point x="308" y="810" type="move" name="top"/>
    </contour>
    <contour>
      <point x="308" y="-150" type="move" name="bottom"/>
    </contour>
  </outline>
</glyph>
<glyph name="Z" format="1">
  <advance width="556"/>
  <unicode hex="005A"/>
  <note>
    GF Latin Plus glyph
  </note>
  <outline>
    <contour>
      <point x="45" y="0" type="line"/>
      <point x="518" y="0" type="line"/>
      <point x="518" y="52" type="line"/>
      <point x="115" y="52" type="line"/>
      <point x="518" y="686" type="line"/>
      <point x="518" y="734" type="line"/>
      <point x="45" y="734" type="line"/>
      <point x="45" y="682" type="line"/>
      <point x="447" y="682" type="line"/>
      <point x="45" y="48" type="line"/>
    </contour>
    <contour>
      <point x="277" y="810" type="move" name="top"/>
    </contour>
    <contour>
      <point x="277" y="-150" type="move" name="bottom"/>
    </contour>
  </outline>
</glyph>
<glyph name="backslash" format="1">
  <advance width="384"/>
  <unicode hex="005C"/>
  <note>
    GF Latin Plus glyph
  </note>
  <outline>
    <contour>
      <point x="24" y="770" type="line"/>
      <point x="305" y="-72" type="line"/>
      <point x="360" y="-72" type="line"/>
      <point x="79" y="770" type="line"/>
    </contour>
  </outline>
</glyph>
<glyph name="bracketright" format="1">
  <advance width="330"/>
  <unicode hex="005D"/>
  <note>
    GF Latin Plus glyph
  </note>
  <outline>
    <contour>
      <point x="24" y="-162" type="line"/>
      <point x="24" y="-210" type="line"/>
      <point x="82" y="-210" type="line" smooth="yes"/>
      <point x="212" y="-210"/>
      <point x="230" y="-96"/>
      <point x="230" y="-28" type="curve" smooth="yes"/>
      <point x="230" y="664" type="line" smooth="yes"/>
      <point x="230" y="738"/>
      <point x="206" y="842"/>
      <point x="82" y="842" type="curve" smooth="yes"/>
      <point x="24" y="842" type="line"/>
      <point x="24" y="794" type="line"/>
      <point x="70" y="794" type="line" smooth="yes"/>
      <point x="130" y="794"/>
      <point x="172" y="755"/>
      <point x="172" y="658" type="curve" smooth="yes"/>
      <point x="172" y="-26" type="line" smooth="yes"/>
      <point x="172" y="-103"/>
      <point x="144" y="-162"/>
      <point x="70" y="-162" type="curve" smooth="yes"/>
    </contour>
  </outline>
</glyph>
<glyph name="asciicircum" format="1">
  <advance width="401"/>
  <unicode hex="005E"/>
  <note>
    GF Latin Plus glyph
  </note>
  <outline>
    <contour>
      <point x="60" y="531" type="line"/>
      <point x="97" y="531" type="line"/>
      <point x="206" y="633" type="line"/>
      <point x="305" y="531" type="line"/>
      <point x="342" y="531" type="line"/>
      <point x="228" y="663" type="line"/>
      <point x="186" y="663" type="line"/>
    </contour>
  </outline>
</glyph>
<glyph name="grave" format="1">
  <advance width="210"/>
  <unicode hex="0060"/>
  <note>
    GF Latin Plus glyph
  </note>
  <outline>
    <contour>
      <point x="24" y="766" type="line"/>
      <point x="152" y="631" type="line"/>
      <point x="186" y="631" type="line"/>
      <point x="75" y="766" type="line"/>
    </contour>
  </outline>
</glyph>
<glyph name="c" format="1">
  <advance width="490"/>
  <unicode hex="0063"/>
  <note>
    GF Latin Plus glyph
  </note>
  <outline>
    <contour>
      <point x="62" y="266" type="curve" smooth="yes"/>
      <point x="62" y="45"/>
      <point x="152" y="-6"/>
      <point x="272" y="-6" type="curve" smooth="yes"/>
      <point x="342" y="-6"/>
      <point x="408" y="0"/>
      <point x="454" y="6" type="curve"/>
      <point x="454" y="41" type="line"/>
      <point x="286" y="41" type="line" smooth="yes"/>
      <point x="187" y="41"/>
      <point x="120" y="82"/>
      <point x="120" y="263" type="curve" smooth="yes"/>
      <point x="120" y="452"/>
      <point x="181" y="492"/>
      <point x="286" y="492" type="curve" smooth="yes"/>
      <point x="446" y="492" type="line"/>
      <point x="446" y="527" type="line"/>
      <point x="391" y="535"/>
      <point x="323" y="538"/>
      <point x="273" y="538" type="curve" smooth="yes"/>
      <point x="146" y="538"/>
      <point x="62" y="487"/>
    </contour>
    <contour>
      <point x="270" y="650" type="move" name="top"/>
    </contour>
    <contour>
      <point x="270" y="-150" type="move" name="bottom"/>
    </contour>
  </outline>
</glyph>
<glyph name="d" format="1">
  <advance width="572"/>
  <unicode hex="0064"/>
  <note>
    GF Latin Plus glyph
  </note>
  <outline>
    <contour>
      <point x="120" y="265" type="curve" smooth="yes"/>
      <point x="120" y="438"/>
      <point x="165" y="493"/>
      <point x="277" y="493" type="curve" smooth="yes"/>
      <point x="339" y="493"/>
      <point x="381" y="480"/>
      <point x="436" y="465" type="curve"/>
      <point x="436" y="92" type="line"/>
      <point x="392" y="69"/>
      <point x="336" y="43"/>
      <point x="268" y="43" type="curve" smooth="yes"/>
      <point x="162" y="43"/>
      <point x="120" y="108"/>
    </contour>
    <contour>
      <point x="62" y="263" type="curve" smooth="yes"/>
      <point x="62" y="80"/>
      <point x="121" y="-6"/>
      <point x="254" y="-6" type="curve" smooth="yes"/>
      <point x="318" y="-6"/>
      <point x="408" y="30"/>
      <point x="436" y="55" type="curve"/>
      <point x="448" y="0" type="line"/>
      <point x="494" y="0" type="line"/>
      <point x="494" y="763" type="line"/>
      <point x="436" y="763" type="line"/>
      <point x="436" y="506" type="line"/>
      <point x="391" y="522"/>
      <point x="327" y="539"/>
      <point x="264" y="539" type="curve" smooth="yes"/>
      <point x="119" y="539"/>
      <point x="62" y="461"/>
    </contour>
    <contour>
      <point x="514" y="650" type="move" name="altcaron"/>
    </contour>
    <contour>
      <point x="465" y="850" type="move" name="top"/>
    </contour>
    <contour>
      <point x="288" y="-150" type="move" name="bottom"/>
    </contour>
  </outline>
</glyph>
<glyph name="e" format="1">
  <advance width="542"/>
  <unicode hex="0065"/>
  <note>
    GF Latin Plus glyph
  </note>
  <outline>
    <contour>
      <point x="119" y="282" type="line"/>
      <point x="119" y="449"/>
      <point x="155" y="494"/>
      <point x="282" y="494" type="curve" smooth="yes"/>
      <point x="388" y="494"/>
      <point x="427" y="465"/>
      <point x="427" y="365" type="curve" smooth="yes"/>
      <point x="427" y="301"/>
      <point x="396" y="282"/>
      <point x="330" y="282" type="curve" smooth="yes"/>
    </contour>
    <contour>
      <point x="62" y="268" type="curve" smooth="yes"/>
      <point x="62" y="61"/>
      <point x="114" y="-6"/>
      <point x="279" y="-6" type="curve" smooth="yes"/>
      <point x="353" y="-6"/>
      <point x="405" y="-2"/>
      <point x="468" y="5" type="curve"/>
      <point x="468" y="40" type="line"/>
      <point x="292" y="40" type="line" smooth="yes"/>
      <point x="152" y="40"/>
      <point x="121" y="94"/>
      <point x="120" y="241" type="curve"/>
      <point x="334" y="241" type="line" smooth="yes"/>
      <point x="424" y="241"/>
      <point x="480" y="275"/>
      <point x="480" y="365" type="curve" smooth="yes"/>
      <point x="480" y="499"/>
      <point x="417" y="539"/>
      <point x="282" y="539" type="curve" smooth="yes"/>
      <point x="120" y="539"/>
      <point x="62" y="479"/>
    </contour>
    <contour>
      <point x="270" y="650" type="move" name="top"/>
    </contour>
    <contour>
      <point x="458" y="23" type="move" name="ogonek"/>
    </contour>
    <contour>
      <point x="270" y="-150" type="move" name="bottom"/>
    </contour>
  </outline>
</glyph>
<glyph name="f" format="1">
  <advance width="360"/>
  <unicode hex="0066"/>
  <note>
    GF Latin Plus glyph
  </note>
  <outline>
    <contour>
      <point x="25" y="484" type="line"/>
      <point x="109" y="484" type="line"/>
      <point x="109" y="0" type="line"/>
      <point x="167" y="0" type="line"/>
      <point x="167" y="484" type="line"/>
      <point x="341" y="484" type="line"/>
      <point x="341" y="533" type="line"/>
      <point x="167" y="533" type="line"/>
      <point x="167" y="604" type="line" smooth="yes"/>
      <point x="167" y="680"/>
      <point x="182" y="720"/>
      <point x="263" y="720" type="curve" smooth="yes"/>
      <point x="354" y="720" type="line"/>
      <point x="354" y="761" type="line"/>
      <point x="328" y="765"/>
      <point x="300" y="769"/>
      <point x="254" y="769" type="curve" smooth="yes"/>
      <point x="139" y="769"/>
      <point x="109" y="708"/>
      <point x="109" y="602" type="curve" smooth="yes"/>
      <point x="109" y="533" type="line"/>
      <point x="25" y="522" type="line"/>
    </contour>
    <contour>
      <point x="256" y="856" type="move" name="top"/>
    </contour>
  </outline>
</glyph>
<glyph name="g" format="1">
  <advance width="574"/>
  <unicode hex="0067"/>
  <note>
    GF Latin Plus glyph
  </note>
  <outline>
    <contour>
      <point x="119" y="361" type="curve" smooth="yes"/>
      <point x="119" y="454"/>
      <point x="171" y="488"/>
      <point x="255" y="488" type="curve" smooth="yes"/>
      <point x="312" y="488" type="line" smooth="yes"/>
      <point x="387" y="488"/>
      <point x="441" y="453"/>
      <point x="441" y="353" type="curve" smooth="yes"/>
      <point x="441" y="291"/>
      <point x="415" y="232"/>
      <point x="302" y="232" type="curve" smooth="yes"/>
      <point x="241" y="232" type="line" smooth="yes"/>
      <point x="166" y="232"/>
      <point x="119" y="269"/>
    </contour>
    <contour>
      <point x="65" y="363" type="curve" smooth="yes"/>
      <point x="65" y="304"/>
      <point x="85" y="238"/>
      <point x="164" y="208" type="curve"/>
      <point x="107" y="197"/>
      <point x="73" y="169"/>
      <point x="73" y="116" type="curve" smooth="yes"/>
      <point x="73" y="62"/>
      <point x="118" y="28"/>
      <point x="190" y="28" type="curve" smooth="yes"/>
      <point x="363" y="28" type="line" smooth="yes"/>
      <point x="466" y="28"/>
      <point x="496" y="-12"/>
      <point x="496" y="-72" type="curve" smooth="yes"/>
      <point x="496" y="-95" type="line" smooth="yes"/>
      <point x="496" y="-166"/>
      <point x="441" y="-200"/>
      <point x="351" y="-200" type="curve" smooth="yes"/>
      <point x="222" y="-200" type="line" smooth="yes"/>
      <point x="141" y="-200"/>
      <point x="89" y="-174"/>
      <point x="89" y="-102" type="curve" smooth="yes"/>
      <point x="89" y="-77" type="line" smooth="yes"/>
      <point x="89" y="-2"/>
      <point x="153" y="28"/>
      <point x="216" y="28" type="curve"/>
      <point x="204" y="55" type="line"/>
      <point x="124" y="55"/>
      <point x="34" y="10"/>
      <point x="34" y="-85" type="curve" smooth="yes"/>
      <point x="34" y="-111" type="line" smooth="yes"/>
      <point x="34" y="-201"/>
      <point x="106" y="-244"/>
      <point x="210" y="-244" type="curve" smooth="yes"/>
      <point x="356" y="-244" type="line" smooth="yes"/>
      <point x="483" y="-244"/>
      <point x="550" y="-188"/>
      <point x="550" y="-92" type="curve" smooth="yes"/>
      <point x="550" y="-68" type="line" smooth="yes"/>
      <point x="550" y="26"/>
      <point x="494" y="74"/>
      <point x="370" y="74" type="curve" smooth="yes"/>
      <point x="184" y="74" type="line" smooth="yes"/>
      <point x="156" y="74"/>
      <point x="125" y="87"/>
      <point x="125" y="123" type="curve" smooth="yes"/>
      <point x="125" y="170"/>
      <point x="163" y="185"/>
      <point x="226" y="185" type="curve" smooth="yes"/>
      <point x="308" y="185" type="line" smooth="yes"/>
      <point x="451" y="185"/>
      <point x="495" y="268"/>
      <point x="495" y="347" type="curve" smooth="yes"/>
      <point x="495" y="447"/>
      <point x="447" y="475"/>
      <point x="418" y="492" type="curve"/>
      <point x="550" y="500" type="line"/>
      <point x="550" y="534" type="line"/>
      <point x="266" y="534" type="line" smooth="yes"/>
      <point x="148" y="534"/>
      <point x="65" y="489"/>
    </contour>
    <contour>
      <point x="289" y="650" type="move" name="top"/>
    </contour>
  </outline>
</glyph>
<glyph name="k" format="1">
  <advance width="492"/>
  <unicode hex="006B"/>
  <note>
    GF Latin Plus glyph
  </note>
  <outline>
    <contour>
      <point x="82" y="0" type="line"/>
      <point x="140" y="0" type="line"/>
      <point x="140" y="260" type="line"/>
      <point x="217" y="260" type="line"/>
      <point x="407" y="0" type="line"/>
      <point x="471" y="0" type="line"/>
      <point x="262" y="285" type="line"/>
      <point x="460" y="533" type="line"/>
      <point x="397" y="533" type="line"/>
      <point x="220" y="312" type="line"/>
      <point x="140" y="312" type="line"/>
      <point x="140" y="763" type="line"/>
      <point x="82" y="763" type="line"/>
    </contour>
    <contour>
      <point x="250" y="-150" type="move" name="bottom"/>
    </contour>
  </outline>
</glyph>
<glyph name="l" format="1">
  <advance width="288"/>
  <unicode hex="006C"/>
  <note>
    GF Latin Plus glyph
  </note>
  <outline>
    <contour>
      <point x="82" y="170" type="line" smooth="yes"/>
      <point x="82" y="40"/>
      <point x="129" y="-1"/>
      <point x="213" y="-1" type="curve" smooth="yes"/>
      <point x="278" y="-1" type="line"/>
      <point x="278" y="40" type="line"/>
      <point x="220" y="47" type="line" smooth="yes"/>
      <point x="170" y="53"/>
      <point x="140" y="72"/>
      <point x="140" y="176" type="curve" smooth="yes"/>
      <point x="140" y="763" type="line"/>
      <point x="82" y="763" type="line"/>
    </contour>
    <contour>
      <point x="160" y="650" type="move" name="altcaron"/>
    </contour>
    <contour>
      <point x="111" y="890" type="move" name="top"/>
    </contour>
    <contour>
      <point x="229" y="350" type="move" name="dot"/>
    </contour>
    <contour>
      <point x="160" y="-150" type="move" name="bottom"/>
    </contour>
  </outline>
</glyph>
<glyph name="n" format="1">
  <advance width="586"/>
  <unicode hex="006E"/>
  <note>
    GF Latin Plus glyph
  </note>
  <outline>
    <contour>
      <point x="82" y="0" type="line"/>
      <point x="140" y="0" type="line"/>
      <point x="140" y="433" type="line"/>
      <point x="203" y="468"/>
      <point x="251" y="489"/>
      <point x="327" y="489" type="curve" smooth="yes"/>
      <point x="404" y="489"/>
      <point x="450" y="433"/>
      <point x="450" y="360" type="curve" smooth="yes"/>
      <point x="450" y="0" type="line"/>
      <point x="508" y="0" type="line"/>
      <point x="508" y="366" type="line" smooth="yes"/>
      <point x="508" y="458"/>
      <point x="456" y="542"/>
      <point x="343" y="542" type="curve" smooth="yes"/>
      <point x="267" y="542"/>
      <point x="193" y="509"/>
      <point x="140" y="473" type="curve"/>
      <point x="125" y="533" type="line"/>
      <point x="82" y="533" type="line"/>
    </contour>
    <contour>
      <point x="292" y="650" type="move" name="top"/>
    </contour>
    <contour>
      <point x="292" y="-150" type="move" name="bottom"/>
    </contour>
  </outline>
</glyph>
<glyph name="o" format="1">
  <advance width="577"/>
  <unicode hex="006F"/>
  <note>
    GF Latin Plus glyph
  </note>
  <outline>
    <contour>
      <point x="120" y="267" type="curve" smooth="yes"/>
      <point x="120" y="466"/>
      <point x="179" y="491"/>
      <point x="288" y="491" type="curve" smooth="yes"/>
      <point x="396" y="491"/>
      <point x="457" y="466"/>
      <point x="457" y="267" type="curve" smooth="yes"/>
      <point x="457" y="69"/>
      <point x="396" y="43"/>
      <point x="288" y="43" type="curve" smooth="yes"/>
      <point x="179" y="43"/>
      <point x="120" y="69"/>
    </contour>
    <contour>
      <point x="62" y="267" type="curve" smooth="yes"/>
      <point x="62" y="43"/>
      <point x="140" y="-6"/>
      <point x="288" y="-6" type="curve" smooth="yes"/>
      <point x="437" y="-6"/>
      <point x="515" y="42"/>
      <point x="515" y="267" type="curve" smooth="yes"/>
      <point x="515" y="493"/>
      <point x="436" y="539"/>
      <point x="288" y="539" type="curve" smooth="yes"/>
      <point x="140" y="539"/>
      <point x="62" y="494"/>
    </contour>
    <contour>
      <point x="288" y="650" type="move" name="top"/>
    </contour>
    <contour>
      <point x="327" y="0" type="move" name="ogonek"/>
    </contour>
    <contour>
      <point x="288" y="-150" type="move" name="bottom"/>
    </contour>
  </outline>
</glyph>
<glyph name="q" format="1">
  <advance width="572"/>
  <unicode hex="0071"/>
  <note>
    GF Latin Plus glyph
  </note>
  <outline>
    <contour>
      <point x="120" y="269" type="curve" smooth="yes"/>
      <point x="120" y="399"/>
      <point x="156" y="493"/>
      <point x="270" y="493" type="curve" smooth="yes"/>
      <point x="436" y="493" type="line"/>
      <point x="436" y="92" type="line"/>
      <point x="379" y="61"/>
      <point x="324" y="43"/>
      <point x="261" y="43" type="curve" smooth="yes"/>
      <point x="160" y="43"/>
      <point x="120" y="110"/>
    </contour>
    <contour>
      <point x="62" y="268" type="curve" smooth="yes"/>
      <point x="62" y="87"/>
      <point x="112" y="-6"/>
      <point x="249" y="-6" type="curve" smooth="yes"/>
      <point x="311" y="-6"/>
      <point x="380" y="19"/>
      <point x="436" y="55" type="curve"/>
      <point x="436" y="-237" type="line"/>
      <point x="494" y="-237" type="line"/>
      <point x="494" y="528" type="line"/>
      <point x="439" y="533"/>
      <point x="355" y="539"/>
      <point x="260" y="539" type="curve" smooth="yes"/>
      <point x="123" y="539"/>
      <point x="62" y="446"/>
    </contour>
  </outline>
</glyph>
<glyph name="r" format="1">
  <advance width="409"/>
  <unicode hex="0072"/>
  <note>
    GF Latin Plus glyph
  </note>
  <outline>
    <contour>
      <point x="82" y="0" type="line"/>
      <point x="140" y="0" type="line"/>
      <point x="140" y="392" type="line"/>
      <point x="202" y="450"/>
      <point x="249" y="480"/>
      <point x="327" y="480" type="curve" smooth="yes"/>
      <point x="348" y="480"/>
      <point x="367" y="477"/>
      <point x="384" y="474" type="curve"/>
      <point x="384" y="533" type="line"/>
      <point x="370" y="537"/>
      <point x="351" y="539"/>
      <point x="332" y="539" type="curve" smooth="yes"/>
      <point x="251" y="539"/>
      <point x="191" y="496"/>
      <point x="140" y="437" type="curve"/>
      <point x="125" y="533" type="line"/>
      <point x="82" y="533" type="line"/>
    </contour>
    <contour>
      <point x="206" y="650" type="move" name="top"/>
    </contour>
    <contour>
      <point x="111" y="-150" type="move" name="bottom"/>
    </contour>
  </outline>
</glyph>
<glyph name="t" format="1">
  <advance width="361"/>
  <unicode hex="0074"/>
  <note>
    GF Latin Plus glyph
  </note>
  <outline>
    <contour>
      <point x="23" y="484" type="line"/>
      <point x="108" y="484" type="line"/>
      <point x="105" y="167" type="line" smooth="yes"/>
      <point x="103" y="47"/>
      <point x="154" y="0"/>
      <point x="250" y="0" type="curve" smooth="yes"/>
      <point x="317" y="0" type="line"/>
      <point x="317" y="42" type="line"/>
      <point x="252" y="48" type="line" smooth="yes"/>
      <point x="215" y="51"/>
      <point x="163" y="65"/>
      <point x="163" y="167" type="curve" smooth="yes"/>
      <point x="163" y="484" type="line"/>
      <point x="325" y="484" type="line"/>
      <point x="325" y="533" type="line"/>
      <point x="163" y="533" type="line"/>
      <point x="163" y="682" type="line"/>
      <point x="119" y="682" type="line"/>
      <point x="108" y="533" type="line"/>
      <point x="23" y="522" type="line"/>
    </contour>
    <contour>
      <point x="183" y="650" type="move" name="altcaron"/>
    </contour>
    <contour>
      <point x="143" y="734" type="move" name="top"/>
    </contour>
    <contour>
      <point x="188" y="-150" type="move" name="bottom"/>
    </contour>
  </outline>
</glyph>
<glyph name="u" format="1">
  <advance width="586"/>
  <unicode hex="0075"/>
  <note>
    GF Latin Plus glyph
  </note>
  <outline>
    <contour>
      <point x="81" y="158" type="line" smooth="yes"/>
      <point x="81" y="43"/>
      <point x="139" y="-6"/>
      <point x="242" y="-6" type="curve" smooth="yes"/>
      <point x="320" y="-6"/>
      <point x="394" y="24"/>
      <point x="449" y="60" type="curve"/>
      <point x="464" y="0" type="line"/>
      <point x="507" y="0" type="line"/>
      <point x="507" y="533" type="line"/>
      <point x="449" y="533" type="line"/>
      <point x="449" y="100" type="line"/>
      <point x="387" y="64"/>
      <point x="336" y="46"/>
      <point x="267" y="46" type="curve" smooth="yes"/>
      <point x="184" y="46"/>
      <point x="139" y="73"/>
      <point x="139" y="171" type="curve" smooth="yes"/>
      <point x="139" y="533" type="line"/>
      <point x="81" y="533" type="line"/>
    </contour>
    <contour>
      <point x="284" y="650" type="move" name="top"/>
    </contour>
    <contour>
      <point x="497" y="0" type="move" name="ogonek"/>
    </contour>
    <contour>
      <point x="284" y="-150" type="move" name="bottom"/>
    </contour>
  </outline>
</glyph>
<glyph name="v" format="1">
  <advance width="528"/>
  <unicode hex="0076"/>
  <note>
    GF Latin Plus glyph
  </note>
  <outline>
    <contour>
      <point x="21" y="533" type="line"/>
      <point x="228" y="0" type="line"/>
      <point x="294" y="0" type="line"/>
      <point x="507" y="533" type="line"/>
      <point x="448" y="533" type="line"/>
      <point x="262" y="54" type="line"/>
      <point x="80" y="533" type="line"/>
    </contour>
  </outline>
</glyph>
<glyph name="w" format="1">
  <advance width="788"/>
  <unicode hex="0077"/>
  <note>
    GF Latin Plus glyph
  </note>
  <outline>
    <contour>
      <point x="21" y="533" type="line"/>
      <point x="189" y="0" type="line"/>
      <point x="252" y="0" type="line"/>
      <point x="394" y="459" type="line"/>
      <point x="536" y="0" type="line"/>
      <point x="600" y="0" type="line"/>
      <point x="767" y="533" type="line"/>
      <point x="708" y="533" type="line"/>
      <point x="566" y="54" type="line"/>
      <point x="421" y="533" type="line"/>
      <point x="369" y="533" type="line"/>
      <point x="225" y="54" type="line"/>
      <point x="80" y="533" type="line"/>
    </contour>
    <contour>
      <point x="398" y="650" type="move" name="top"/>
    </contour>
    <contour>
      <point x="398" y="-150" type="move" name="bottom"/>
    </contour>
  </outline>
</glyph>
<glyph name="y" format="1">
  <advance width="533"/>
  <unicode hex="0079"/>
  <note>
    GF Latin Plus glyph
  </note>
  <outline>
    <contour>
      <point x="21" y="533" type="line"/>
      <point x="157" y="119" type="line" smooth="yes"/>
      <point x="189" y="21"/>
      <point x="249" y="1"/>
      <point x="289" y="0" type="curve"/>
      <point x="218" y="-237" type="line"/>
      <point x="260" y="-237" type="line"/>
      <point x="306" y="-138" type="line"/>
      <point x="512" y="533" type="line"/>
      <point x="452" y="533" type="line"/>
      <point x="302" y="51" type="line"/>
      <point x="299" y="51"/>
      <point x="243" y="43"/>
      <point x="212" y="132" type="curve" smooth="yes"/>
      <point x="82" y="533" type="line"/>
    </contour>
    <contour>
      <point x="264" y="650" type="move" name="top"/>
    </contour>
    <contour>
      <point x="440" y="-150" type="move" name="bottom"/>
    </contour>
  </outline>
</glyph>
<glyph name="braceleft" format="1">
  <advance width="308"/>
  <unicode hex="007B"/>
  <note>
    GF Latin Plus glyph
  </note>
  <outline>
    <contour>
      <point x="24" y="305" type="line"/>
      <point x="64" y="308"/>
      <point x="107" y="281"/>
      <point x="107" y="236" type="curve" smooth="yes"/>
      <point x="107" y="-38" type="line" smooth="yes"/>
      <point x="107" y="-125"/>
      <point x="129" y="-210"/>
      <point x="284" y="-210" type="curve"/>
      <point x="284" y="-164" type="line"/>
      <point x="202" y="-164"/>
      <point x="165" y="-129"/>
      <point x="165" y="-24" type="curve" smooth="yes"/>
      <point x="165" y="247" type="line" smooth="yes"/>
      <point x="165" y="292"/>
      <point x="128" y="327"/>
      <point x="81" y="334" type="curve"/>
      <point x="128" y="340"/>
      <point x="166" y="371"/>
      <point x="166" y="424" type="curve" smooth="yes"/>
      <point x="166" y="640" type="line" smooth="yes"/>
      <point x="166" y="757"/>
      <point x="205" y="794"/>
      <point x="284" y="794" type="curve"/>
      <point x="284" y="842" type="line"/>
      <point x="145" y="842"/>
      <point x="108" y="757"/>
      <point x="108" y="656" type="curve" smooth="yes"/>
      <point x="108" y="431" type="line" smooth="yes"/>
      <point x="108" y="377"/>
      <point x="57" y="365"/>
      <point x="24" y="362" type="curve"/>
    </contour>
  </outline>
</glyph>
<glyph name="asciitilde" format="1">
  <advance width="459"/>
  <unicode hex="007E"/>
  <note>
    GF Latin Plus glyph
  </note>
  <outline>
    <contour>
      <point x="60" y="577" type="curve"/>
      <point x="69" y="557" type="line"/>
      <point x="104" y="583"/>
      <point x="131" y="604"/>
      <point x="167" y="604" type="curve" smooth="yes"/>
      <point x="199" y="604"/>
      <point x="247" y="539"/>
      <point x="293" y="539" type="curve" smooth="yes"/>
      <point x="337" y="539"/>
      <point x="369" y="570"/>
      <point x="400" y="603" type="curve"/>
      <point x="390" y="623" type="line"/>
      <point x="367" y="604"/>
      <point x="331" y="573"/>
      <point x="293" y="573" type="curve" smooth="yes"/>
      <point x="262" y="573"/>
      <point x="213" y="638"/>
      <point x="169" y="638" type="curve" smooth="yes"/>
      <point x="127" y="638"/>
      <point x="92" y="608"/>
    </contour>
  </outline>
</glyph>
<glyph name="sterling" format="1">
  <advance width="609"/>
  <unicode hex="00A3"/>
  <note>
    GF Latin Plus glyph
  </note>
  <outline>
    <contour>
      <point x="65" y="0" type="line"/>
      <point x="539" y="0" type="line"/>
      <point x="539" y="52" type="line"/>
      <point x="237" y="52" type="line"/>
      <point x="237" y="339" type="line"/>
      <point x="461" y="344" type="line"/>
      <point x="461" y="378" type="line"/>
      <point x="237" y="384" type="line"/>
      <point x="237" y="529" type="line" smooth="yes"/>
      <point x="237" y="658"/>
      <point x="288" y="683"/>
      <point x="385" y="683" type="curve" smooth="yes"/>
      <point x="525" y="683" type="line"/>
      <point x="525" y="727" type="line"/>
      <point x="490" y="730"/>
      <point x="434" y="735"/>
      <point x="382" y="735" type="curve" smooth="yes"/>
      <point x="259" y="735"/>
      <point x="179" y="695"/>
      <point x="179" y="524" type="curve" smooth="yes"/>
      <point x="179" y="384" type="line"/>
      <point x="65" y="376" type="line"/>
      <point x="65" y="344" type="line"/>
      <point x="179" y="339" type="line"/>
      <point x="179" y="52" type="line"/>
      <point x="65" y="43" type="line"/>
    </contour>
  </outline>
</glyph>
<glyph name="currency" format="1">
  <advance width="609"/>
  <unicode hex="00A4"/>
  <note>
    GF Latin Plus glyph
  </note>
  <outline>
    <contour>
      <point x="304" y="517" type="curve" smooth="yes"/>
      <point x="216" y="517"/>
      <point x="144" y="444"/>
      <point x="144" y="356" type="curve" smooth="yes"/>
      <point x="144" y="268"/>
      <point x="216" y="195"/>
      <point x="304" y="195" type="curve" smooth="yes"/>
      <point x="392" y="195"/>
      <point x="465" y="268"/>
      <point x="465" y="356" type="curve" smooth="yes"/>
      <point x="465" y="444"/>
      <point x="392" y="517"/>
    </contour>
    <contour>
      <point x="214" y="475" type="line"/>
      <point x="110" y="579" type="line"/>
      <point x="81" y="550" type="line"/>
      <point x="185" y="446" type="line"/>
    </contour>
    <contour>
      <point x="421" y="444" type="line"/>
      <point x="527" y="550" type="line"/>
      <point x="498" y="579" type="line"/>
      <point x="392" y="473" type="line"/>
    </contour>
    <contour>
      <point x="527" y="162" type="line"/>
      <point x="421" y="268" type="line"/>
      <point x="392" y="239" type="line"/>
      <point x="498" y="133" type="line"/>
    </contour>
    <contour>
      <point x="110" y="133" type="line"/>
      <point x="218" y="241" type="line"/>
      <point x="189" y="270" type="line"/>
      <point x="81" y="162" type="line"/>
    </contour>
    <contour>
      <point x="304" y="479" type="curve" smooth="yes"/>
      <point x="372" y="479"/>
      <point x="427" y="424"/>
      <point x="427" y="356" type="curve" smooth="yes"/>
      <point x="427" y="289"/>
      <point x="372" y="233"/>
      <point x="304" y="233" type="curve" smooth="yes"/>
      <point x="237" y="233"/>
      <point x="183" y="289"/>
      <point x="183" y="356" type="curve" smooth="yes"/>
      <point x="183" y="424"/>
      <point x="237" y="479"/>
    </contour>
  </outline>
</glyph>
<glyph name="section" format="1">
  <advance width="554"/>
  <unicode hex="00A7"/>
  <note>
    GF Latin Plus glyph
  </note>
  <outline>
    <contour>
      <point x="114" y="357" type="curve" smooth="yes"/>
      <point x="114" y="411" type="line" smooth="yes"/>
      <point x="114" y="469"/>
      <point x="137" y="483"/>
      <point x="213" y="483" type="curve" smooth="yes"/>
      <point x="339" y="483" type="line" smooth="yes"/>
      <point x="422" y="483"/>
      <point x="441" y="470"/>
      <point x="441" y="413" type="curve" smooth="yes"/>
      <point x="441" y="358" type="line" smooth="yes"/>
      <point x="441" y="295"/>
      <point x="429" y="290"/>
      <point x="339" y="290" type="curve" smooth="yes"/>
      <point x="213" y="290" type="line" smooth="yes"/>
      <point x="132" y="290"/>
      <point x="114" y="315"/>
    </contour>
    <contour>
      <point x="58" y="347" type="line" smooth="yes"/>
      <point x="58" y="270"/>
      <point x="100" y="244"/>
      <point x="203" y="244" type="curve" smooth="yes"/>
      <point x="339" y="244" type="line" smooth="yes"/>
      <point x="421" y="244"/>
      <point x="431" y="231"/>
      <point x="431" y="182" type="curve" smooth="yes"/>
      <point x="431" y="121" type="line" smooth="yes"/>
      <point x="431" y="75"/>
      <point x="411" y="42"/>
      <point x="308" y="42" type="curve" smooth="yes"/>
      <point x="102" y="42" type="line"/>
      <point x="102" y="2" type="line"/>
      <point x="143" y="-3"/>
      <point x="266" y="-6"/>
      <point x="316" y="-6" type="curve" smooth="yes"/>
      <point x="425" y="-6"/>
      <point x="488" y="25"/>
      <point x="488" y="120" type="curve" smooth="yes"/>
      <point x="488" y="187" type="line" smooth="yes"/>
      <point x="488" y="226"/>
      <point x="482" y="266"/>
      <point x="433" y="277" type="curve"/>
      <point x="480" y="285"/>
      <point x="497" y="309"/>
      <point x="497" y="367" type="curve" smooth="yes"/>
      <point x="497" y="423" type="line" smooth="yes"/>
      <point x="497" y="500"/>
      <point x="468" y="529"/>
      <point x="348" y="529" type="curve" smooth="yes"/>
      <point x="214" y="529" type="line" smooth="yes"/>
      <point x="153" y="529"/>
      <point x="123" y="540"/>
      <point x="123" y="592" type="curve" smooth="yes"/>
      <point x="123" y="649" type="line" smooth="yes"/>
      <point x="123" y="722"/>
      <point x="164" y="736"/>
      <point x="231" y="736" type="curve" smooth="yes"/>
      <point x="451" y="736" type="line"/>
      <point x="451" y="775" type="line"/>
      <point x="412" y="781"/>
      <point x="275" y="784"/>
      <point x="225" y="784" type="curve" smooth="yes"/>
      <point x="124" y="784"/>
      <point x="67" y="750"/>
      <point x="67" y="656" type="curve" smooth="yes"/>
      <point x="67" y="590" type="line" smooth="yes"/>
      <point x="67" y="550"/>
      <point x="80" y="508"/>
      <point x="124" y="497" type="curve"/>
      <point x="81" y="487"/>
      <point x="58" y="467"/>
      <point x="58" y="403" type="curve" smooth="yes"/>
    </contour>
  </outline>
</glyph>
<glyph name="ordfeminine" format="1">
  <advance width="407"/>
  <unicode hex="00AA"/>
  <note>
    GF Latin Plus glyph
  </note>
  <outline>
    <contour>
      <point x="36" y="266" type="line"/>
      <point x="360" y="266" type="line"/>
      <point x="360" y="300" type="line"/>
      <point x="36" y="300" type="line"/>
    </contour>
    <component base="a.superior" yOffset="80"/>
  </outline>
</glyph>
<glyph name="registered" format="1">
  <advance width="850"/>
  <unicode hex="00AE"/>
  <note>
    GF Latin Plus glyph
  </note>
  <outline>
    <contour>
      <point x="309" y="367" type="line"/>
      <point x="309" y="548" type="line"/>
      <point x="458" y="548" type="line" smooth="yes"/>
      <point x="512" y="548"/>
      <point x="546" y="525"/>
      <point x="546" y="451" type="curve" smooth="yes"/>
      <point x="546" y="379"/>
      <point x="516" y="367"/>
      <point x="458" y="367" type="curve" smooth="yes"/>
    </contour>
    <contour>
      <point x="275" y="153" type="line"/>
      <point x="309" y="153" type="line"/>
      <point x="309" y="343" type="line"/>
      <point x="444" y="339" type="line"/>
      <point x="548" y="153" type="line"/>
      <point x="584" y="153" type="line"/>
      <point x="479" y="339" type="line"/>
      <point x="514" y="345"/>
      <point x="580" y="344"/>
      <point x="580" y="452" type="curve" smooth="yes"/>
      <point x="580" y="559"/>
      <point x="520" y="580"/>
      <point x="454" y="580" type="curve" smooth="yes"/>
      <point x="275" y="580" type="line"/>
    </contour>
    <contour>
      <point x="99" y="368" type="curve" smooth="yes"/>
      <point x="102" y="628"/>
      <point x="207" y="700"/>
      <point x="314" y="700" type="curve" smooth="yes"/>
      <point x="558" y="700" type="line" smooth="yes"/>
      <point x="705" y="700"/>
      <point x="750" y="545"/>
      <point x="750" y="368" type="curve" smooth="yes"/>
      <point x="750" y="142"/>
      <point x="665" y="32"/>
      <point x="556" y="32" type="curve" smooth="yes"/>
      <point x="314" y="32" type="line" smooth="yes"/>
      <point x="166" y="32"/>
      <point x="98" y="211"/>
    </contour>
    <contour>
      <point x="65" y="368" type="curve" smooth="yes"/>
      <point x="65" y="217"/>
      <point x="128" y="0"/>
      <point x="314" y="0" type="curve" smooth="yes"/>
      <point x="558" y="0" type="line" smooth="yes"/>
      <point x="709" y="0"/>
      <point x="784" y="162"/>
      <point x="784" y="368" type="curve" smooth="yes"/>
      <point x="784" y="510"/>
      <point x="756" y="732"/>
      <point x="558" y="732" type="curve" smooth="yes"/>
      <point x="314" y="732" type="line" smooth="yes"/>
      <point x="114" y="732"/>
      <point x="65" y="537"/>
    </contour>
  </outline>
</glyph>
<glyph name="degree" format="1">
  <advance width="333"/>
  <unicode hex="00B0"/>
  <note>
    GF Latin Plus glyph
  </note>
  <outline>
    <contour>
      <point x="68" y="630" type="curve" smooth="yes"/>
      <point x="68" y="688"/>
      <point x="110" y="730"/>
      <point x="167" y="730" type="curve" smooth="yes"/>
      <point x="225" y="730"/>
      <point x="265" y="688"/>
      <point x="265" y="630" type="curve" smooth="yes"/>
      <point x="265" y="572"/>
      <point x="224" y="531"/>
      <point x="167" y="531" type="curve" smooth="yes"/>
      <point x="110" y="531"/>
      <point x="68" y="572"/>
    </contour>
    <contour>
      <point x="39" y="630" type="curve" smooth="yes"/>
      <point x="39" y="555"/>
      <point x="94" y="502"/>
      <point x="167" y="502" type="curve" smooth="yes"/>
      <point x="241" y="502"/>
      <point x="293" y="555"/>
      <point x="293" y="630" type="curve" smooth="yes"/>
      <point x="293" y="705"/>
      <point x="241" y="759"/>
      <point x="167" y="759" type="curve" smooth="yes"/>
      <point x="94" y="759"/>
      <point x="39" y="705"/>
    </contour>
  </outline>
</glyph>
<glyph name="cedilla" format="1">
  <advance width="261"/>
  <unicode hex="00B8"/>
  <note>
    GF Latin Plus glyph
  </note>
  <outline>
    <contour>
      <point x="60" y="-163" type="line"/>
      <point x="60" y="-187" type="line"/>
      <point x="88" y="-187" type="line" smooth="yes"/>
      <point x="147" y="-187"/>
      <point x="181" y="-162"/>
      <point x="181" y="-119" type="curve" smooth="yes"/>
      <point x="181" y="-78"/>
      <point x="156" y="-56"/>
      <point x="97" y="-56" type="curve"/>
      <point x="71" y="-67" type="line"/>
      <point x="131" y="-68"/>
      <point x="144" y="-89"/>
      <point x="144" y="-112" type="curve" smooth="yes"/>
      <point x="144" y="-144"/>
      <point x="123" y="-158"/>
      <point x="84" y="-161" type="curve" smooth="yes"/>
    </contour>
    <contour>
      <point x="152" y="12" type="line"/>
      <point x="123" y="12" type="line"/>
      <point x="71" y="-67" type="line"/>
      <point x="99" y="-67" type="line"/>
    </contour>
  </outline>
</glyph>
<glyph name="AE" format="1">
  <advance width="958"/>
  <unicode hex="00C6"/>
  <note>
    GF Latin Plus glyph
  </note>
  <outline>
    <contour>
      <point x="266" y="276" type="line"/>
      <point x="483" y="631" type="line"/>
      <point x="483" y="276" type="line"/>
    </contour>
    <contour>
      <point x="39" y="0" type="line"/>
      <point x="98" y="0" type="line"/>
      <point x="239" y="226" type="line"/>
      <point x="483" y="226" type="line"/>
      <point x="483" y="119" type="line" smooth="yes"/>
      <point x="486" y="26"/>
      <point x="540" y="-5"/>
      <point x="631" y="-4" type="curve" smooth="yes"/>
      <point x="655" y="-4"/>
      <point x="880" y="3"/>
      <point x="897" y="5" type="curve"/>
      <point x="897" y="50" type="line"/>
      <point x="639" y="50" type="line" smooth="yes"/>
      <point x="573" y="50"/>
      <point x="537" y="76"/>
      <point x="537" y="144" type="curve" smooth="yes"/>
      <point x="537" y="338" type="line"/>
      <point x="855" y="343" type="line"/>
      <point x="855" y="386" type="line"/>
      <point x="537" y="391" type="line"/>
      <point x="537" y="611" type="line" smooth="yes"/>
      <point x="537" y="659"/>
      <point x="556" y="681"/>
      <point x="613" y="681" type="curve" smooth="yes"/>
      <point x="897" y="681" type="line"/>
      <point x="897" y="726" type="line"/>
      <point x="884" y="728"/>
      <point x="635" y="734"/>
      <point x="610" y="734" type="curve" smooth="yes"/>
      <point x="511" y="736"/>
      <point x="458" y="694"/>
      <point x="413" y="617" type="curve" smooth="yes"/>
    </contour>
    <contour>
      <point x="529" y="810" type="move" name="top"/>
    </contour>
  </outline>
</glyph>
<glyph name="multiply" format="1">
  <advance width="609"/>
  <unicode hex="00D7"/>
  <note>
    GF Latin Plus glyph
  </note>
  <outline>
    <contour>
      <point x="163" y="180" type="line"/>
      <point x="480" y="497" type="line"/>
      <point x="445" y="532" type="line"/>
      <point x="128" y="215" type="line"/>
    </contour>
    <contour>
      <point x="480" y="215" type="line"/>
      <point x="163" y="532" type="line"/>
      <point x="128" y="497" type="line"/>
      <point x="445" y="180" type="line"/>
    </contour>
  </outline>
</glyph>
<glyph name="Oslash" format="1">
  <advance width="682"/>
  <unicode hex="00D8"/>
  <note>
    GF Latin Plus glyph
  </note>
  <outline>
    <contour>
      <point x="561" y="734" type="line"/>
      <point x="77" y="0" type="line"/>
      <point x="122" y="0" type="line"/>
      <point x="606" y="734" type="line"/>
    </contour>
    <component base="O"/>
    <contour>
      <point x="341" y="810" type="move" name="top"/>
    </contour>
  </outline>
</glyph>
<glyph name="Thorn" format="1">
  <advance width="553"/>
  <unicode hex="00DE"/>
  <note>
    GF Latin Plus glyph
  </note>
  <outline>
    <contour>
      <point x="81" y="0" type="line"/>
      <point x="139" y="0" type="line"/>
      <point x="139" y="174" type="line"/>
      <point x="173" y="172"/>
      <point x="283" y="165"/>
      <point x="316" y="165" type="curve" smooth="yes"/>
      <point x="397" y="165"/>
      <point x="507" y="199"/>
      <point x="507" y="383" type="curve" smooth="yes"/>
      <point x="507" y="564"/>
      <point x="405" y="595"/>
      <point x="321" y="595" type="curve" smooth="yes"/>
      <point x="139" y="595" type="line"/>
      <point x="139" y="734" type="line"/>
      <point x="81" y="734" type="line"/>
    </contour>
    <contour>
      <point x="139" y="218" type="line"/>
      <point x="139" y="542" type="line"/>
      <point x="317" y="542" type="line" smooth="yes"/>
      <point x="386" y="542"/>
      <point x="449" y="512"/>
      <point x="449" y="383" type="curve" smooth="yes"/>
      <point x="449" y="252"/>
      <point x="385" y="218"/>
      <point x="309" y="218" type="curve" smooth="yes"/>
    </contour>
  </outline>
</glyph>
<glyph name="eth" format="1">
  <advance width="577"/>
  <unicode hex="00F0"/>
  <note>
    GF Latin Plus glyph
  </note>
  <outline>
    <contour>
      <point x="62" y="265" type="curve" smooth="yes"/>
      <point x="62" y="42"/>
      <point x="140" y="-6"/>
      <point x="288" y="-6" type="curve" smooth="yes"/>
      <point x="437" y="-6"/>
      <point x="515" y="42"/>
      <point x="515" y="267" type="curve" smooth="yes"/>
      <point x="515" y="340"/>
      <point x="488" y="383"/>
      <point x="467" y="425" type="curve"/>
      <point x="438" y="512"/>
      <point x="376" y="535"/>
      <point x="282" y="535" type="curve" smooth="yes"/>
      <point x="144" y="535"/>
      <point x="62" y="491"/>
    </contour>
    <contour>
      <point x="120" y="265" type="curve" smooth="yes"/>
      <point x="120" y="462"/>
      <point x="179" y="487"/>
      <point x="288" y="487" type="curve" smooth="yes"/>
      <point x="396" y="487"/>
      <point x="457" y="462"/>
      <point x="457" y="265" type="curve" smooth="yes"/>
      <point x="457" y="68"/>
      <point x="396" y="43"/>
      <point x="288" y="43" type="curve" smooth="yes"/>
      <point x="179" y="43"/>
      <point x="120" y="68"/>
    </contour>
    <contour>
      <point x="154" y="729" type="line"/>
      <point x="344" y="710"/>
      <point x="463" y="614"/>
      <point x="463" y="280" type="curve"/>
      <point x="515" y="266" type="line"/>
      <point x="515" y="636"/>
      <point x="376" y="749"/>
      <point x="154" y="768" type="curve"/>
    </contour>
    <contour>
      <point x="192" y="591" type="line"/>
      <point x="516" y="718" type="line"/>
      <point x="507" y="742" type="line"/>
      <point x="183" y="615" type="line"/>
    </contour>
  </outline>
</glyph>
<glyph name="divide" format="1">
  <advance width="609"/>
  <unicode hex="00F7"/>
  <note>
    GF Latin Plus glyph
  </note>
  <outline>
    <contour>
      <point x="264" y="532" type="line" smooth="yes"/>
      <point x="264" y="518"/>
      <point x="274" y="509"/>
      <point x="288" y="509" type="curve" smooth="yes"/>
      <point x="320" y="509" type="line" smooth="yes"/>
      <point x="334" y="509"/>
      <point x="345" y="514"/>
      <point x="345" y="532" type="curve" smooth="yes"/>
      <point x="345" y="573" type="line" smooth="yes"/>
      <point x="345" y="589"/>
      <point x="338" y="598"/>
      <point x="320" y="598" type="curve" smooth="yes"/>
      <point x="288" y="598" type="line" smooth="yes"/>
      <point x="272" y="598"/>
      <point x="264" y="588"/>
      <point x="264" y="573" type="curve" smooth="yes"/>
    </contour>
    <contour>
      <point x="264" y="137" type="line" smooth="yes"/>
      <point x="264" y="123"/>
      <point x="274" y="114"/>
      <point x="288" y="114" type="curve" smooth="yes"/>
      <point x="320" y="114" type="line" smooth="yes"/>
      <point x="334" y="114"/>
      <point x="345" y="119"/>
      <point x="345" y="137" type="curve" smooth="yes"/>
      <point x="345" y="178" type="line" smooth="yes"/>
      <point x="345" y="194"/>
      <point x="338" y="203"/>
      <point x="320" y="203" type="curve" smooth="yes"/>
      <point x="288" y="203" type="line" smooth="yes"/>
      <point x="272" y="203"/>
      <point x="264" y="193"/>
      <point x="264" y="178" type="curve" smooth="yes"/>
    </contour>
    <component base="minus"/>
  </outline>
</glyph>
<glyph name="oslash" format="1">
  <advance width="577"/>
  <unicode hex="00F8"/>
  <note>
    GF Latin Plus glyph
  </note>
  <outline>
    <contour>
      <point x="484" y="533" type="line"/>
      <point x="59" y="0" type="line"/>
      <point x="93" y="0" type="line"/>
      <point x="519" y="533" type="line"/>
    </contour>
    <component base="o"/>
    <contour>
      <point x="288" y="650" type="move" name="top"/>
    </contour>
  </outline>
</glyph>
<glyph name="thorn" format="1">
  <advance width="576"/>
  <unicode hex="00FE"/>
  <note>
    GF Latin Plus glyph
  </note>
  <outline>
    <contour>
      <point x="140" y="92" type="curve"/>
      <point x="140" y="441" type="line"/>
      <point x="185" y="464"/>
      <point x="240" y="491"/>
      <point x="309" y="491" type="curve" smooth="yes"/>
      <point x="385" y="491"/>
      <point x="456" y="427"/>
      <point x="456" y="266" type="curve" smooth="yes"/>
      <point x="456" y="99"/>
      <point x="394" y="43"/>
      <point x="309" y="43" type="curve" smooth="yes"/>
      <point x="251" y="43"/>
      <point x="192" y="63"/>
    </contour>
    <contour>
      <point x="82" y="-237" type="line"/>
      <point x="140" y="-237" type="line"/>
      <point x="140" y="49" type="line"/>
      <point x="194" y="17"/>
      <point x="261" y="-6"/>
      <point x="322" y="-6" type="curve" smooth="yes"/>
      <point x="449" y="-6"/>
      <point x="514" y="86"/>
      <point x="514" y="268" type="curve" smooth="yes"/>
      <point x="514" y="404"/>
      <point x="462" y="539"/>
      <point x="322" y="539" type="curve" smooth="yes"/>
      <point x="256" y="539"/>
      <point x="175" y="501"/>
      <point x="140" y="477" type="curve"/>
      <point x="140" y="763" type="line"/>
      <point x="82" y="763" type="line"/>
    </contour>
  </outline>
</glyph>
<glyph name="kgreenlandic" format="1">
  <advance width="492"/>
  <unicode hex="0138"/>
  <note>
    GF Latin Plus glyph
  </note>
  <outline>
    <contour>
      <point x="82" y="0" type="line"/>
      <point x="140" y="0" type="line"/>
      <point x="140" y="257" type="line"/>
      <point x="217" y="257" type="line"/>
      <point x="407" y="0" type="line"/>
      <point x="471" y="0" type="line"/>
      <point x="262" y="283" type="line"/>
      <point x="460" y="533" type="line"/>
      <point x="396" y="533" type="line"/>
      <point x="219" y="310" type="line"/>
      <point x="140" y="310" type="line"/>
      <point x="140" y="541" type="line"/>
      <point x="82" y="541" type="line"/>
    </contour>
  </outline>
</glyph>
<glyph name="eng" format="1">
  <advance width="586"/>
  <unicode hex="014B"/>
  <note>
    GF Latin Plus glyph
  </note>
  <outline>
    <contour>
      <point x="325" y="-237" type="curve"/>
      <point x="374" y="-237" type="line"/>
      <point x="449" y="-196"/>
      <point x="508" y="-125"/>
      <point x="508" y="7" type="curve" smooth="yes"/>
      <point x="508" y="197" type="line"/>
      <point x="450" y="197" type="line"/>
      <point x="450" y="6" type="line" smooth="yes"/>
      <point x="450" y="-115"/>
      <point x="399" y="-184"/>
    </contour>
    <component base="n"/>
  </outline>
</glyph>
<glyph name="oe" format="1">
  <advance width="934"/>
  <unicode hex="0153"/>
  <note>
    GF Latin Plus glyph
  </note>
  <outline>
    <contour>
      <point x="511" y="282" type="line"/>
      <point x="511" y="429"/>
      <point x="546" y="494"/>
      <point x="665" y="494" type="curve" smooth="yes"/>
      <point x="768" y="494"/>
      <point x="819" y="476"/>
      <point x="819" y="365" type="curve" smooth="yes"/>
      <point x="819" y="296"/>
      <point x="780" y="282"/>
      <point x="722" y="282" type="curve" smooth="yes"/>
    </contour>
    <contour>
      <point x="463" y="268" type="curve" smooth="yes"/>
      <point x="463" y="67"/>
      <point x="530" y="-6"/>
      <point x="668" y="-6" type="curve" smooth="yes"/>
      <point x="742" y="-6"/>
      <point x="799" y="-1"/>
      <point x="860" y="5" type="curve"/>
      <point x="860" y="40" type="line"/>
      <point x="682" y="40" type="line" smooth="yes"/>
      <point x="563" y="40"/>
      <point x="512" y="99"/>
      <point x="512" y="241" type="curve"/>
      <point x="732" y="241" type="line" smooth="yes"/>
      <point x="816" y="241"/>
      <point x="872" y="276"/>
      <point x="872" y="361" type="curve" smooth="yes"/>
      <point x="872" y="510"/>
      <point x="796" y="539"/>
      <point x="665" y="539" type="curve" smooth="yes"/>
      <point x="516" y="539"/>
      <point x="463" y="460"/>
    </contour>
    <contour>
      <point x="120" y="267" type="curve" smooth="yes"/>
      <point x="120" y="467"/>
      <point x="179" y="493"/>
      <point x="288" y="493" type="curve" smooth="yes"/>
      <point x="396" y="493"/>
      <point x="457" y="467"/>
      <point x="457" y="267" type="curve" smooth="yes"/>
      <point x="457" y="67"/>
      <point x="396" y="41"/>
      <point x="288" y="41" type="curve" smooth="yes"/>
      <point x="179" y="41"/>
      <point x="120" y="67"/>
    </contour>
    <contour>
      <point x="62" y="267" type="curve" smooth="yes"/>
      <point x="62" y="43"/>
      <point x="139" y="-6"/>
      <point x="285" y="-6" type="curve" smooth="yes"/>
      <point x="429" y="-6"/>
      <point x="506" y="42"/>
      <point x="506" y="267" type="curve" smooth="yes"/>
      <point x="506" y="493"/>
      <point x="429" y="539"/>
      <point x="288" y="539" type="curve" smooth="yes"/>
      <point x="140" y="539"/>
      <point x="62" y="494"/>
    </contour>
  </outline>
</glyph>
<glyph name="tbar" format="1">
  <advance width="361"/>
  <unicode hex="0167"/>
  <note>
    GF Latin Plus glyph
  </note>
  <outline>
    <contour>
      <point x="23" y="304" type="line"/>
      <point x="309" y="304" type="line"/>
      <point x="309" y="331" type="line"/>
      <point x="23" y="331" type="line"/>
    </contour>
    <component base="t"/>
  </outline>
</glyph>
<glyph name="Schwa" format="1">
  <advance width="606"/>
  <unicode hex="018F"/>
  <note>
    GF Latin Plus glyph
  </note>
  <outline>
    <contour>
      <point x="300" y="-6" type="curve" smooth="yes"/>
      <point x="448" y="-6"/>
      <point x="543" y="68"/>
      <point x="543" y="373" type="curve" smooth="yes"/>
      <point x="543" y="682"/>
      <point x="459" y="740"/>
      <point x="270" y="740" type="curve" smooth="yes"/>
      <point x="195" y="740"/>
      <point x="137" y="729"/>
      <point x="94" y="718" type="curve"/>
      <point x="94" y="675" type="line"/>
      <point x="124" y="679"/>
      <point x="171" y="688"/>
      <point x="249" y="688" type="curve" smooth="yes"/>
      <point x="432" y="688"/>
      <point x="483" y="633"/>
      <point x="484" y="380" type="curve"/>
      <point x="67" y="380" type="line"/>
      <point x="67" y="334" type="line" smooth="yes"/>
      <point x="67" y="86"/>
      <point x="138" y="-6"/>
    </contour>
    <contour>
      <point x="298" y="46" type="curve" smooth="yes"/>
      <point x="167" y="46"/>
      <point x="126" y="122"/>
      <point x="125" y="332" type="curve"/>
      <point x="483" y="332" type="line"/>
      <point x="480" y="101"/>
      <point x="415" y="46"/>
    </contour>
  </outline>
</glyph>
<glyph name="florin" format="1">
  <advance width="609"/>
  <unicode hex="0192"/>
  <note>
    GF Latin Plus glyph
  </note>
  <outline>
    <contour>
      <point x="23" y="-194" type="line"/>
      <point x="42" y="-200"/>
      <point x="76" y="-204"/>
      <point x="107" y="-204" type="curve" smooth="yes"/>
      <point x="219" y="-204"/>
      <point x="263" y="-122"/>
      <point x="296" y="88" type="curve" smooth="yes"/>
      <point x="348" y="410" type="line"/>
      <point x="481" y="410" type="line"/>
      <point x="488" y="454" type="line"/>
      <point x="354" y="454" type="line"/>
      <point x="372" y="565" type="line" smooth="yes"/>
      <point x="395" y="702"/>
      <point x="420" y="752"/>
      <point x="500" y="752" type="curve" smooth="yes"/>
      <point x="570" y="752" type="line"/>
      <point x="576" y="789" type="line"/>
      <point x="563" y="792"/>
      <point x="536" y="798"/>
      <point x="486" y="798" type="curve" smooth="yes"/>
      <point x="379" y="798"/>
      <point x="343" y="735"/>
      <point x="316" y="571" type="curve" smooth="yes"/>
      <point x="296" y="455" type="line"/>
      <point x="199" y="455" type="line"/>
      <point x="193" y="410" type="line"/>
      <point x="290" y="410" type="line"/>
      <point x="237" y="78" type="line" smooth="yes"/>
      <point x="208" y="-103"/>
      <point x="172" y="-158"/>
      <point x="98" y="-158" type="curve" smooth="yes"/>
      <point x="30" y="-158" type="line"/>
    </contour>
  </outline>
</glyph>
<glyph name="Uhorn" format="1">
  <advance width="673"/>
  <unicode hex="01AF"/>
  <note>
    GF Latin Plus glyph
  </note>
  <outline>
    <contour>
      <point x="551" y="701" type="line"/>
      <point x="583" y="701" type="line" smooth="yes"/>
      <point x="644" y="701"/>
      <point x="701" y="735"/>
      <point x="701" y="849" type="curve"/>
      <point x="657" y="849" type="line"/>
      <point x="657" y="763"/>
      <point x="623" y="734"/>
      <point x="576" y="734" type="curve" smooth="yes"/>
      <point x="551" y="734" type="line"/>
    </contour>
    <component base="U"/>
    <contour>
      <point x="334" y="810" type="move" name="top"/>
    </contour>
    <contour>
      <point x="334" y="-150" type="move" name="bottom"/>
    </contour>
  </outline>
</glyph>
<glyph name="caron" format="1">
  <advance width="401"/>
  <unicode hex="02C7"/>
  <note>
    GF Latin Plus glyph
  </note>
  <outline>
    <contour>
      <point x="216" y="631" type="line"/>
      <point x="342" y="764" type="line"/>
      <point x="305" y="764" type="line"/>
      <point x="196" y="660" type="line"/>
      <point x="97" y="764" type="line"/>
      <point x="60" y="764" type="line"/>
      <point x="174" y="631" type="line"/>
    </contour>
  </outline>
</glyph>
<glyph name="breve" format="1">
  <advance width="360"/>
  <unicode hex="02D8"/>
  <note>
    GF Latin Plus glyph
  </note>
  <outline>
    <contour>
      <point x="52" y="769" type="line"/>
      <point x="52" y="664"/>
      <point x="113" y="630"/>
      <point x="180" y="630" type="curve" smooth="yes"/>
      <point x="247" y="630"/>
      <point x="310" y="661"/>
      <point x="310" y="769" type="curve"/>
      <point x="281" y="769" type="line"/>
      <point x="281" y="687"/>
      <point x="238" y="660"/>
      <point x="180" y="659" type="curve" smooth="yes"/>
      <point x="127" y="658"/>
      <point x="81" y="688"/>
      <point x="81" y="769" type="curve"/>
    </contour>
  </outline>
</glyph>
<glyph name="dotaccent" format="1">
  <advance width="175"/>
  <unicode hex="02D9"/>
  <note>
    GF Latin Plus glyph
  </note>
  <outline>
    <contour>
      <point x="55" y="672" type="line" smooth="yes"/>
      <point x="55" y="664"/>
      <point x="61" y="658"/>
      <point x="70" y="658" type="curve" smooth="yes"/>
      <point x="96" y="658" type="line" smooth="yes"/>
      <point x="105" y="658"/>
      <point x="111" y="663"/>
      <point x="111" y="672" type="curve" smooth="yes"/>
      <point x="111" y="744" type="line" smooth="yes"/>
      <point x="111" y="753"/>
      <point x="106" y="759"/>
      <point x="96" y="759" type="curve" smooth="yes"/>
      <point x="70" y="759" type="line" smooth="yes"/>
      <point x="60" y="759"/>
      <point x="55" y="754"/>
      <point x="55" y="744" type="curve" smooth="yes"/>
    </contour>
  </outline>
</glyph>
<glyph name="ring" format="1">
  <advance width="334"/>
  <unicode hex="02DA"/>
  <note>
    GF Latin Plus glyph
  </note>
  <outline>
    <contour>
      <point x="90" y="701" type="curve" smooth="yes"/>
      <point x="90" y="763"/>
      <point x="116" y="780"/>
      <point x="168" y="780" type="curve" smooth="yes"/>
      <point x="220" y="780"/>
      <point x="244" y="763"/>
      <point x="244" y="701" type="curve" smooth="yes"/>
      <point x="244" y="639"/>
      <point x="220" y="623"/>
      <point x="168" y="623" type="curve" smooth="yes"/>
      <point x="116" y="623"/>
      <point x="90" y="639"/>
    </contour>
    <contour>
      <point x="60" y="701" type="curve" smooth="yes"/>
      <point x="60" y="622"/>
      <point x="98" y="596"/>
      <point x="168" y="596" type="curve" smooth="yes"/>
      <point x="238" y="596"/>
      <point x="274" y="622"/>
      <point x="274" y="701" type="curve" smooth="yes"/>
      <point x="274" y="780"/>
      <point x="238" y="807"/>
      <point x="168" y="807" type="curve" smooth="yes"/>
      <point x="98" y="807"/>
      <point x="60" y="780"/>
    </contour>
  </outline>
</glyph>
<glyph name="hungarumlaut" format="1">
  <advance width="359"/>
  <unicode hex="02DD"/>
  <note>
    GF Latin Plus glyph
  </note>
  <outline>
    <contour>
      <point x="278" y="766" type="line"/>
      <point x="170" y="631" type="line"/>
      <point x="204" y="631" type="line"/>
      <point x="328" y="766" type="line"/>
    </contour>
    <contour>
      <point x="132" y="766" type="line"/>
      <point x="24" y="631" type="line"/>
      <point x="58" y="631" type="line"/>
      <point x="182" y="766" type="line"/>
    </contour>
  </outline>
</glyph>
<glyph name="Germandbls" format="1">
  <advance width="655"/>
  <unicode hex="1E9E"/>
  <note>
    GF Latin Plus glyph
  </note>
  <outline>
    <contour>
      <point x="289" y="390" type="line"/>
      <point x="345" y="380" type="line"/>
      <point x="558" y="684" type="line"/>
      <point x="558" y="728" type="line"/>
      <point x="494" y="683" type="line"/>
    </contour>
    <contour>
      <point x="230" y="7" type="line"/>
      <point x="261" y="1"/>
      <point x="337" y="-6"/>
      <point x="372" y="-6" type="curve" smooth="yes"/>
      <point x="489" y="-6"/>
      <point x="591" y="28"/>
      <point x="591" y="166" type="curve" smooth="yes"/>
      <point x="591" y="227" type="line" smooth="yes"/>
      <point x="591" y="328"/>
      <point x="535" y="390"/>
      <point x="420" y="390" type="curve" smooth="yes"/>
      <point x="289" y="390" type="line"/>
      <point x="289" y="340" type="line"/>
      <point x="409" y="340" type="line" smooth="yes"/>
      <point x="498" y="340"/>
      <point x="533" y="300"/>
      <point x="533" y="224" type="curve" smooth="yes"/>
      <point x="533" y="169" type="line" smooth="yes"/>
      <point x="533" y="67"/>
      <point x="457" y="47"/>
      <point x="366" y="47" type="curve" smooth="yes"/>
      <point x="323" y="47"/>
      <point x="250" y="48"/>
      <point x="230" y="51" type="curve"/>
    </contour>
    <contour>
      <point x="81" y="0" type="line"/>
      <point x="139" y="0" type="line"/>
      <point x="139" y="570" type="line" smooth="yes"/>
      <point x="139" y="646"/>
      <point x="181" y="682"/>
      <point x="248" y="682" type="curve" smooth="yes"/>
      <point x="539" y="682" type="line"/>
      <point x="558" y="728" type="line"/>
      <point x="536" y="730"/>
      <point x="280" y="734"/>
      <point x="247" y="734" type="curve" smooth="yes"/>
      <point x="161" y="735"/>
      <point x="81" y="693"/>
      <point x="81" y="569" type="curve" smooth="yes"/>
    </contour>
  </outline>
</glyph>
<glyph name="emdash" format="1">
  <advance width="747"/>
  <unicode hex="2014"/>
  <note>
    GF Latin Plus glyph
  </note>
  <outline>
    <contour>
      <point x="26" y="264" type="line"/>
      <point x="722" y="264" type="line"/>
      <point x="722" y="315" type="line"/>
      <point x="26" y="315" type="line"/>
    </contour>
  </outline>
</glyph>
<glyph name="quoteleft" format="1">
  <advance width="174"/>
  <unicode hex="2018"/>
  <note>
    GF Latin Plus glyph
  </note>
  <outline>
    <contour>
      <point x="57" y="555" type="line" smooth="yes"/>
      <point x="57" y="545"/>
      <point x="60" y="537"/>
      <point x="69" y="537" type="curve" smooth="yes"/>
      <point x="103" y="537" type="line" smooth="yes"/>
      <point x="114" y="537"/>
      <point x="119" y="543"/>
      <point x="119" y="555" type="curve" smooth="yes"/>
      <point x="119" y="628" type="line" smooth="yes"/>
      <point x="119" y="640"/>
      <point x="112" y="646"/>
      <point x="103" y="646" type="curve" smooth="yes"/>
      <point x="95" y="646" type="line"/>
      <point x="95" y="703" type="line" smooth="yes"/>
      <point x="95" y="716"/>
      <point x="100" y="724"/>
      <point x="116" y="724" type="curve"/>
      <point x="116" y="744" type="line"/>
      <point x="112" y="745"/>
      <point x="108" y="746"/>
      <point x="101" y="746" type="curve" smooth="yes"/>
      <point x="84" y="746"/>
      <point x="57" y="739"/>
      <point x="57" y="694" type="curve" smooth="yes"/>
    </contour>
  </outline>
</glyph>
<glyph name="quoteright" format="1">
  <advance width="174"/>
  <unicode hex="2019"/>
  <note>
    GF Latin Plus glyph
  </note>
  <outline>
    <contour>
      <point x="55" y="653" type="line" smooth="yes"/>
      <point x="55" y="641"/>
      <point x="62" y="635"/>
      <point x="71" y="635" type="curve" smooth="yes"/>
      <point x="79" y="635" type="line"/>
      <point x="79" y="578" type="line" smooth="yes"/>
      <point x="79" y="565"/>
      <point x="74" y="557"/>
      <point x="58" y="557" type="curve"/>
      <point x="58" y="537" type="line"/>
      <point x="63" y="535"/>
      <point x="66" y="535"/>
      <point x="73" y="535" type="curve" smooth="yes"/>
      <point x="90" y="535"/>
      <point x="117" y="542"/>
      <point x="117" y="587" type="curve" smooth="yes"/>
      <point x="117" y="726" type="line" smooth="yes"/>
      <point x="117" y="736"/>
      <point x="114" y="744"/>
      <point x="105" y="744" type="curve" smooth="yes"/>
      <point x="71" y="744" type="line" smooth="yes"/>
      <point x="60" y="744"/>
      <point x="55" y="738"/>
      <point x="55" y="726" type="curve" smooth="yes"/>
    </contour>
  </outline>
</glyph>
<glyph name="quotesinglbase" format="1">
  <advance width="174"/>
  <unicode hex="201A"/>
  <note>
    GF Latin Plus glyph
  </note>
  <outline>
    <contour>
      <point x="55" y="12" type="line" smooth="yes"/>
      <point x="55" y="0"/>
      <point x="62" y="-6"/>
      <point x="71" y="-6" type="curve" smooth="yes"/>
      <point x="79" y="-6" type="line"/>
      <point x="79" y="-63" type="line" smooth="yes"/>
      <point x="79" y="-76"/>
      <point x="74" y="-84"/>
      <point x="58" y="-84" type="curve"/>
      <point x="58" y="-104" type="line"/>
      <point x="61" y="-105"/>
      <point x="66" y="-106"/>
      <point x="73" y="-106" type="curve" smooth="yes"/>
      <point x="90" y="-106"/>
      <point x="117" y="-99"/>
      <point x="117" y="-54" type="curve" smooth="yes"/>
      <point x="117" y="85" type="line" smooth="yes"/>
      <point x="117" y="95"/>
      <point x="114" y="103"/>
      <point x="105" y="103" type="curve" smooth="yes"/>
      <point x="71" y="103" type="line" smooth="yes"/>
      <point x="60" y="103"/>
      <point x="55" y="97"/>
      <point x="55" y="85" type="curve" smooth="yes"/>
    </contour>
  </outline>
</glyph>
<glyph name="daggerdbl" format="1">
  <advance width="439"/>
  <unicode hex="2021"/>
  <note>
    GF Latin Plus glyph
  </note>
  <outline>
    <contour>
      <point x="24" y="180" type="line"/>
      <point x="178" y="172" type="line"/>
      <point x="185" y="-72" type="line"/>
      <point x="230" y="-72" type="line"/>
      <point x="237" y="173" type="line"/>
      <point x="392" y="180" type="line"/>
      <point x="392" y="221" type="line"/>
      <point x="237" y="228" type="line"/>
      <point x="237" y="487" type="line"/>
      <point x="392" y="494" type="line"/>
      <point x="392" y="535" type="line"/>
      <point x="237" y="542" type="line"/>
      <point x="231" y="770" type="line"/>
      <point x="185" y="770" type="line"/>
      <point x="178" y="542" type="line"/>
      <point x="24" y="535" type="line"/>
      <point x="24" y="494" type="line"/>
      <point x="178" y="487" type="line"/>
      <point x="178" y="228" type="line"/>
      <point x="24" y="221" type="line"/>
    </contour>
  </outline>
</glyph>
<glyph name="ellipsis" format="1">
  <advance width="816"/>
  <unicode hex="2026"/>
  <note>
    GF Latin Plus glyph
  </note>
  <outline>
    <contour>
      <point x="106" y="14" type="line" smooth="yes"/>
      <point x="106" y="6"/>
      <point x="112" y="0"/>
      <point x="121" y="0" type="curve" smooth="yes"/>
      <point x="151" y="0" type="line" smooth="yes"/>
      <point x="160" y="0"/>
      <point x="166" y="4"/>
      <point x="166" y="14" type="curve" smooth="yes"/>
      <point x="166" y="87" type="line" smooth="yes"/>
      <point x="166" y="96"/>
      <point x="161" y="102"/>
      <point x="151" y="102" type="curve" smooth="yes"/>
      <point x="121" y="102" type="line" smooth="yes"/>
      <point x="111" y="102"/>
      <point x="106" y="97"/>
      <point x="106" y="87" type="curve" smooth="yes"/>
    </contour>
    <contour>
      <point x="378" y="14" type="line" smooth="yes"/>
      <point x="378" y="6"/>
      <point x="384" y="0"/>
      <point x="393" y="0" type="curve" smooth="yes"/>
      <point x="423" y="0" type="line" smooth="yes"/>
      <point x="432" y="0"/>
      <point x="438" y="4"/>
      <point x="438" y="14" type="curve" smooth="yes"/>
      <point x="438" y="87" type="line" smooth="yes"/>
      <point x="438" y="96"/>
      <point x="433" y="102"/>
      <point x="423" y="102" type="curve" smooth="yes"/>
      <point x="393" y="102" type="line" smooth="yes"/>
      <point x="383" y="102"/>
      <point x="378" y="97"/>
      <point x="378" y="87" type="curve" smooth="yes"/>
    </contour>
    <contour>
      <point x="650" y="14" type="line" smooth="yes"/>
      <point x="650" y="6"/>
      <point x="656" y="0"/>
      <point x="665" y="0" type="curve" smooth="yes"/>
      <point x="695" y="0" type="line" smooth="yes"/>
      <point x="704" y="0"/>
      <point x="710" y="4"/>
      <point x="710" y="14" type="curve" smooth="yes"/>
      <point x="710" y="87" type="line" smooth="yes"/>
      <point x="710" y="96"/>
      <point x="705" y="102"/>
      <point x="695" y="102" type="curve" smooth="yes"/>
      <point x="665" y="102" type="line" smooth="yes"/>
      <point x="655" y="102"/>
      <point x="650" y="97"/>
      <point x="650" y="87" type="curve" smooth="yes"/>
    </contour>
  </outline>
</glyph>
<glyph name="guilsinglleft" format="1">
  <advance width="358"/>
  <unicode hex="2039"/>
  <note>
    GF Latin Plus glyph
  </note>
  <outline>
    <contour>
      <point x="60" y="279" type="line"/>
      <point x="274" y="67" type="line"/>
      <point x="307" y="100" type="line"/>
      <point x="124" y="279" type="line"/>
      <point x="302" y="454" type="line"/>
      <point x="270" y="486" type="line"/>
    </contour>
  </outline>
</glyph>
<glyph name="zerosuperior" format="1">
  <advance width="456"/>
  <unicode hex="2070"/>
  <outline>
    <contour>
      <point x="100" y="411" type="curve" smooth="yes"/>
      <point x="100" y="692" type="line" smooth="yes"/>
      <point x="100" y="748"/>
      <point x="136" y="779"/>
      <point x="191" y="779" type="curve" smooth="yes"/>
      <point x="268" y="779" type="line" smooth="yes"/>
      <point x="326" y="779"/>
      <point x="358" y="749"/>
      <point x="358" y="692" type="curve" smooth="yes"/>
      <point x="358" y="411" type="line" smooth="yes"/>
      <point x="358" y="357"/>
      <point x="331" y="324"/>
      <point x="268" y="324" type="curve" smooth="yes"/>
      <point x="191" y="324" type="line" smooth="yes"/>
      <point x="136" y="324"/>
      <point x="100" y="353"/>
    </contour>
    <contour>
      <point x="48" y="405" type="line" smooth="yes"/>
      <point x="48" y="316"/>
      <point x="106" y="279"/>
      <point x="183" y="279" type="curve" smooth="yes"/>
      <point x="278" y="279" type="line" smooth="yes"/>
      <point x="357" y="279"/>
      <point x="409" y="317"/>
      <point x="409" y="405" type="curve" smooth="yes"/>
      <point x="409" y="696" type="line" smooth="yes"/>
      <point x="409" y="771"/>
      <point x="370" y="824"/>
      <point x="278" y="824" type="curve" smooth="yes"/>
      <point x="183" y="824" type="line" smooth="yes"/>
      <point x="105" y="824"/>
      <point x="48" y="781"/>
      <point x="48" y="696" type="curve" smooth="yes"/>
    </contour>
  </outline>
</glyph>
<glyph name="i.superior" format="1">
  <advance width="170"/>
  <unicode hex="2071"/>
  <outline>
    <contour>
      <point x="56" y="755" type="line" smooth="yes"/>
      <point x="56" y="748"/>
      <point x="61" y="744"/>
      <point x="67" y="744" type="curve" smooth="yes"/>
      <point x="104" y="744" type="line" smooth="yes"/>
      <point x="110" y="744"/>
      <point x="114" y="748"/>
      <point x="114" y="755" type="curve" smooth="yes"/>
      <point x="114" y="810" type="line" smooth="yes"/>
      <point x="114" y="816"/>
      <point x="111" y="821"/>
      <point x="104" y="821" type="curve" smooth="yes"/>
      <point x="67" y="821" type="line" smooth="yes"/>
      <point x="60" y="821"/>
      <point x="56" y="817"/>
      <point x="56" y="810" type="curve" smooth="yes"/>
    </contour>
    <contour>
      <point x="59" y="280" type="line"/>
      <point x="110" y="280" type="line"/>
      <point x="110" y="672" type="line"/>
      <point x="59" y="672" type="line"/>
    </contour>
    <contour>
      <point x="103" y="280" type="move" name="ogonek"/>
    </contour>
    <contour>
      <point x="84" y="169" type="move" name="bottom"/>
    </contour>
  </outline>
</glyph>
<glyph name="sevensuperior" format="1">
  <advance width="456"/>
  <unicode hex="2077"/>
  <outline>
    <contour>
      <point x="52" y="770" type="line"/>
      <point x="338" y="770" type="line"/>
      <point x="139" y="280" type="line"/>
      <point x="197" y="280" type="line"/>
      <point x="402" y="788" type="line"/>
      <point x="385" y="820" type="line"/>
      <point x="52" y="820" type="line"/>
    </contour>
  </outline>
</glyph>
<glyph name="eightsuperior" format="1">
  <advance width="456"/>
  <unicode hex="2078"/>
  <outline>
    <contour>
      <point x="111" y="643" type="curve" smooth="yes"/>
      <point x="111" y="700" type="line" smooth="yes"/>
      <point x="111" y="754"/>
      <point x="133" y="780"/>
      <point x="189" y="780" type="curve" smooth="yes"/>
      <point x="276" y="780" type="line" smooth="yes"/>
      <point x="323" y="780"/>
      <point x="347" y="758"/>
      <point x="347" y="700" type="curve" smooth="yes"/>
      <point x="347" y="643" type="line" smooth="yes"/>
      <point x="347" y="614"/>
      <point x="325" y="576"/>
      <point x="272" y="576" type="curve" smooth="yes"/>
      <point x="189" y="576" type="line" smooth="yes"/>
      <point x="136" y="576"/>
      <point x="111" y="607"/>
    </contour>
    <contour>
      <point x="101" y="390" type="curve" smooth="yes"/>
      <point x="101" y="464" type="line" smooth="yes"/>
      <point x="101" y="518"/>
      <point x="158" y="535"/>
      <point x="188" y="535" type="curve" smooth="yes"/>
      <point x="272" y="535" type="line" smooth="yes"/>
      <point x="333" y="535"/>
      <point x="356" y="515"/>
      <point x="356" y="464" type="curve" smooth="yes"/>
      <point x="356" y="390" type="line" smooth="yes"/>
      <point x="356" y="345"/>
      <point x="329" y="323"/>
      <point x="276" y="323" type="curve" smooth="yes"/>
      <point x="188" y="323" type="line" smooth="yes"/>
      <point x="139" y="323"/>
      <point x="101" y="341"/>
    </contour>
    <contour>
      <point x="52" y="385" type="line" smooth="yes"/>
      <point x="52" y="312"/>
      <point x="101" y="279"/>
      <point x="183" y="279" type="curve" smooth="yes"/>
      <point x="284" y="279" type="line" smooth="yes"/>
      <point x="362" y="279"/>
      <point x="406" y="313"/>
      <point x="406" y="385" type="curve" smooth="yes"/>
      <point x="406" y="467" type="line" smooth="yes"/>
      <point x="406" y="509"/>
      <point x="383" y="550"/>
      <point x="339" y="559" type="curve"/>
      <point x="374" y="571"/>
      <point x="396" y="609"/>
      <point x="396" y="649" type="curve" smooth="yes"/>
      <point x="396" y="711" type="line" smooth="yes"/>
      <point x="396" y="792"/>
      <point x="353" y="824"/>
      <point x="284" y="824" type="curve" smooth="yes"/>
      <point x="181" y="824" type="line" smooth="yes"/>
      <point x="113" y="824"/>
      <point x="61" y="792"/>
      <point x="61" y="711" type="curve" smooth="yes"/>
      <point x="61" y="649" type="line" smooth="yes"/>
      <point x="61" y="610"/>
      <point x="79" y="574"/>
      <point x="122" y="554" type="curve"/>
      <point x="94" y="547"/>
      <point x="52" y="517"/>
      <point x="52" y="463" type="curve" smooth="yes"/>
    </contour>
  </outline>
</glyph>
<glyph name="n.superior" format="1">
  <advance width="440"/>
  <unicode hex="207F"/>
  <outline>
    <contour>
      <point x="59" y="280" type="line"/>
      <point x="110" y="280" type="line"/>
      <point x="110" y="593" type="line"/>
      <point x="155" y="618"/>
      <point x="190" y="633"/>
      <point x="244" y="633" type="curve" smooth="yes"/>
      <point x="299" y="633"/>
      <point x="332" y="593"/>
      <point x="332" y="543" type="curve" smooth="yes"/>
      <point x="332" y="280" type="line"/>
      <point x="384" y="280" type="line"/>
      <point x="384" y="547" type="line" smooth="yes"/>
      <point x="384" y="617"/>
      <point x="346" y="678"/>
      <point x="259" y="678" type="curve" smooth="yes"/>
      <point x="204" y="678"/>
      <point x="149" y="654"/>
      <point x="110" y="628" type="curve"/>
      <point x="98" y="672" type="line"/>
      <point x="59" y="672" type="line"/>
    </contour>
    <contour>
      <point x="219" y="757" type="move" name="top"/>
    </contour>
    <contour>
      <point x="219" y="169" type="move" name="bottom"/>
    </contour>
  </outline>
</glyph>
<glyph name="franc" format="1">
  <advance width="609"/>
  <unicode hex="20A3"/>
  <note>
    GF Latin Plus glyph
  </note>
  <outline>
    <contour>
      <point x="151" y="0" type="line"/>
      <point x="209" y="0" type="line"/>
      <point x="209" y="363" type="line"/>
      <point x="486" y="368" type="line"/>
      <point x="486" y="411" type="line"/>
      <point x="209" y="416" type="line"/>
      <point x="209" y="586" type="line" smooth="yes"/>
      <point x="209" y="650"/>
      <point x="244" y="681"/>
      <point x="300" y="681" type="curve" smooth="yes"/>
      <point x="528" y="681" type="line"/>
      <point x="528" y="726" type="line"/>
      <point x="511" y="729"/>
      <point x="298" y="734"/>
      <point x="289" y="734" type="curve" smooth="yes"/>
      <point x="221" y="736"/>
      <point x="151" y="701"/>
      <point x="151" y="595" type="curve" smooth="yes"/>
    </contour>
    <contour>
      <point x="63" y="151" type="line"/>
      <point x="151" y="147" type="line"/>
      <point x="209" y="147" type="line"/>
      <point x="486" y="151" type="line"/>
      <point x="486" y="191" type="line"/>
      <point x="209" y="195" type="line"/>
      <point x="151" y="195" type="line"/>
      <point x="63" y="191" type="line"/>
    </contour>
  </outline>
</glyph>
<glyph name="lira" format="1">
  <advance width="609"/>
  <unicode hex="20A4"/>
  <note>
    GF Latin Plus glyph
  </note>
  <outline>
    <contour>
      <point x="65" y="0" type="line"/>
      <point x="539" y="0" type="line"/>
      <point x="539" y="52" type="line"/>
      <point x="237" y="52" type="line"/>
      <point x="237" y="240" type="line"/>
      <point x="461" y="243" type="line"/>
      <point x="461" y="273" type="line"/>
      <point x="237" y="277" type="line"/>
      <point x="237" y="377" type="line"/>
      <point x="461" y="380" type="line"/>
      <point x="461" y="410" type="line"/>
      <point x="237" y="414" type="line"/>
      <point x="237" y="529" type="line" smooth="yes"/>
      <point x="237" y="658"/>
      <point x="288" y="683"/>
      <point x="385" y="683" type="curve" smooth="yes"/>
      <point x="525" y="683" type="line"/>
      <point x="525" y="727" type="line"/>
      <point x="490" y="730"/>
      <point x="434" y="735"/>
      <point x="382" y="735" type="curve" smooth="yes"/>
      <point x="259" y="735"/>
      <point x="179" y="696"/>
      <point x="179" y="528" type="curve" smooth="yes"/>
      <point x="179" y="414" type="line"/>
      <point x="65" y="410" type="line"/>
      <point x="65" y="380" type="line"/>
      <point x="179" y="377" type="line"/>
      <point x="179" y="279" type="line"/>
      <point x="66" y="275" type="line"/>
      <point x="66" y="245" type="line"/>
      <point x="179" y="242" type="line"/>
      <point x="179" y="52" type="line"/>
      <point x="65" y="43" type="line"/>
    </contour>
  </outline>
</glyph>
<glyph name="naira" format="1">
  <advance width="609"/>
  <unicode hex="20A6"/>
  <note>
    GF Latin Plus glyph
  </note>
  <outline>
    <contour>
      <point x="99" y="0" type="line"/>
      <point x="149" y="0" type="line"/>
      <point x="149" y="630" type="line"/>
      <point x="466" y="0" type="line"/>
      <point x="510" y="0" type="line"/>
      <point x="510" y="743" type="line"/>
      <point x="460" y="743" type="line"/>
      <point x="460" y="113" type="line"/>
      <point x="143" y="743" type="line"/>
      <point x="99" y="743" type="line"/>
    </contour>
    <contour>
      <point x="30" y="465" type="line"/>
      <point x="121" y="465" type="line"/>
      <point x="121" y="503" type="line"/>
      <point x="30" y="503" type="line"/>
    </contour>
    <contour>
      <point x="258" y="465" type="line"/>
      <point x="579" y="465" type="line"/>
      <point x="579" y="503" type="line"/>
      <point x="240" y="503" type="line"/>
    </contour>
    <contour>
      <point x="30" y="240" type="line"/>
      <point x="377" y="240" type="line"/>
      <point x="356" y="278" type="line"/>
      <point x="30" y="278" type="line"/>
    </contour>
    <contour>
      <point x="491" y="240" type="line"/>
      <point x="579" y="240" type="line"/>
      <point x="579" y="278" type="line"/>
      <point x="491" y="278" type="line"/>
    </contour>
  </outline>
</glyph>
<glyph name="dong" format="1">
  <advance width="609"/>
  <unicode hex="20AB"/>
  <note>
    GF Latin Plus glyph
  </note>
  <outline>
    <contour>
      <point x="76" y="-31" type="line"/>
      <point x="550" y="-31" type="line"/>
      <point x="550" y="19" type="line"/>
      <point x="76" y="19" type="line"/>
    </contour>
    <contour>
      <point x="306" y="673" type="line"/>
      <point x="582" y="673" type="line"/>
      <point x="582" y="701" type="line"/>
      <point x="306" y="701" type="line"/>
    </contour>
    <contour>
      <point x="136" y="349" type="curve" smooth="yes"/>
      <point x="136" y="488"/>
      <point x="181" y="533"/>
      <point x="293" y="533" type="curve" smooth="yes"/>
      <point x="355" y="533"/>
      <point x="397" y="520"/>
      <point x="452" y="505" type="curve"/>
      <point x="452" y="220" type="line"/>
      <point x="407" y="197"/>
      <point x="353" y="171"/>
      <point x="284" y="171" type="curve" smooth="yes"/>
      <point x="179" y="171"/>
      <point x="136" y="224"/>
    </contour>
    <contour>
      <point x="78" y="347" type="curve" smooth="yes"/>
      <point x="78" y="195"/>
      <point x="137" y="122"/>
      <point x="270" y="122" type="curve" smooth="yes"/>
      <point x="333" y="122"/>
      <point x="424" y="157"/>
      <point x="452" y="183" type="curve"/>
      <point x="464" y="128" type="line"/>
      <point x="510" y="128" type="line"/>
      <point x="510" y="783" type="line"/>
      <point x="452" y="783" type="line"/>
      <point x="452" y="546" type="line"/>
      <point x="407" y="562"/>
      <point x="343" y="579"/>
      <point x="280" y="579" type="curve" smooth="yes"/>
      <point x="135" y="579"/>
      <point x="78" y="514"/>
    </contour>
  </outline>
</glyph>
<glyph name="kip" format="1">
  <advance width="609"/>
  <unicode hex="20AD"/>
  <note>
    GF Latin Plus glyph
  </note>
  <outline>
    <contour>
      <point x="26" y="340" type="line"/>
      <point x="547" y="340" type="line"/>
      <point x="547" y="394" type="line"/>
      <point x="26" y="394" type="line"/>
    </contour>
    <contour>
      <point x="97" y="0" type="line"/>
      <point x="155" y="0" type="line"/>
      <point x="155" y="341" type="line"/>
      <point x="289" y="341" type="line"/>
      <point x="502" y="0" type="line"/>
      <point x="564" y="0" type="line"/>
      <point x="336" y="367" type="line"/>
      <point x="562" y="734" type="line"/>
      <point x="501" y="734" type="line"/>
      <point x="290" y="393" type="line"/>
      <point x="155" y="393" type="line"/>
      <point x="155" y="734" type="line"/>
      <point x="97" y="734" type="line"/>
    </contour>
  </outline>
</glyph>
<glyph name="peso" format="1">
  <advance width="609"/>
  <unicode hex="20B1"/>
  <note>
    GF Latin Plus glyph
  </note>
  <outline>
    <contour>
      <point x="489" y="547" type="line"/>
      <point x="599" y="547" type="line"/>
      <point x="599" y="583" type="line"/>
      <point x="489" y="583" type="line"/>
    </contour>
    <contour>
      <point x="10" y="547" type="line"/>
      <point x="151" y="547" type="line"/>
      <point x="151" y="583" type="line"/>
      <point x="10" y="583" type="line"/>
    </contour>
    <contour>
      <point x="467" y="378" type="line"/>
      <point x="599" y="378" type="line"/>
      <point x="599" y="414" type="line"/>
      <point x="481" y="414" type="line"/>
    </contour>
    <contour>
      <point x="10" y="378" type="line"/>
      <point x="155" y="378" type="line"/>
      <point x="155" y="414" type="line"/>
      <point x="10" y="414" type="line"/>
    </contour>
    <contour>
      <point x="179" y="321" type="line"/>
      <point x="179" y="682" type="line"/>
      <point x="329" y="682" type="line" smooth="yes"/>
      <point x="398" y="682"/>
      <point x="461" y="648"/>
      <point x="461" y="505" type="curve" smooth="yes"/>
      <point x="461" y="360"/>
      <point x="397" y="321"/>
      <point x="321" y="321" type="curve" smooth="yes"/>
    </contour>
    <contour>
      <point x="125" y="0" type="line"/>
      <point x="179" y="0" type="line"/>
      <point x="179" y="278" type="line"/>
      <point x="219" y="275"/>
      <point x="291" y="269"/>
      <point x="328" y="269" type="curve" smooth="yes"/>
      <point x="407" y="269"/>
      <point x="515" y="306"/>
      <point x="515" y="505" type="curve" smooth="yes"/>
      <point x="515" y="701"/>
      <point x="415" y="734"/>
      <point x="333" y="734" type="curve" smooth="yes"/>
      <point x="125" y="734" type="line"/>
    </contour>
  </outline>
</glyph>
<glyph name="guarani" format="1">
  <advance width="609"/>
  <unicode hex="20B2"/>
  <note>
    GF Latin Plus glyph
  </note>
  <outline>
    <contour>
      <point x="355" y="-104" type="line"/>
      <point x="355" y="793" type="line"/>
      <point x="319" y="793" type="line"/>
      <point x="319" y="-104" type="line"/>
    </contour>
    <contour>
      <point x="59" y="362" type="curve" smooth="yes"/>
      <point x="59" y="100"/>
      <point x="110" y="-7"/>
      <point x="298" y="-5" type="curve" smooth="yes"/>
      <point x="381" y="-4"/>
      <point x="463" y="27"/>
      <point x="513" y="52" type="curve"/>
      <point x="523" y="0" type="line"/>
      <point x="561" y="0" type="line"/>
      <point x="561" y="379" type="line"/>
      <point x="507" y="379" type="line"/>
      <point x="507" y="92" type="line"/>
      <point x="455" y="71"/>
      <point x="378" y="48"/>
      <point x="311" y="48" type="curve" smooth="yes"/>
      <point x="155" y="48"/>
      <point x="113" y="120"/>
      <point x="113" y="360" type="curve" smooth="yes"/>
      <point x="113" y="583"/>
      <point x="158" y="672"/>
      <point x="324" y="672" type="curve" smooth="yes"/>
      <point x="412" y="672"/>
      <point x="511" y="663"/>
      <point x="550" y="658" type="curve"/>
      <point x="550" y="701" type="line"/>
      <point x="484" y="714"/>
      <point x="387" y="724"/>
      <point x="317" y="724" type="curve" smooth="yes"/>
      <point x="117" y="724"/>
      <point x="59" y="609"/>
    </contour>
  </outline>
</glyph>
<glyph name="cedi" format="1">
  <advance width="609"/>
  <unicode hex="20B5"/>
  <note>
    GF Latin Plus glyph
  </note>
  <outline>
    <contour>
      <point x="374" y="-104" type="line"/>
      <point x="374" y="793" type="line"/>
      <point x="338" y="793" type="line"/>
      <point x="338" y="-104" type="line"/>
    </contour>
    <contour>
      <point x="70" y="364" type="curve" smooth="yes"/>
      <point x="70" y="62"/>
      <point x="159" y="-6"/>
      <point x="337" y="-6" type="curve" smooth="yes"/>
      <point x="431" y="-6"/>
      <point x="510" y="8"/>
      <point x="555" y="26" type="curve"/>
      <point x="555" y="67" type="line"/>
      <point x="487" y="50"/>
      <point x="438" y="44"/>
      <point x="350" y="44" type="curve" smooth="yes"/>
      <point x="183" y="44"/>
      <point x="124" y="103"/>
      <point x="124" y="362" type="curve" smooth="yes"/>
      <point x="124" y="641"/>
      <point x="210" y="680"/>
      <point x="366" y="680" type="curve" smooth="yes"/>
      <point x="434" y="680"/>
      <point x="502" y="668"/>
      <point x="555" y="657" type="curve"/>
      <point x="555" y="698" type="line"/>
      <point x="521" y="712"/>
      <point x="438" y="732"/>
      <point x="354" y="732" type="curve" smooth="yes"/>
      <point x="186" y="732"/>
      <point x="70" y="672"/>
    </contour>
  </outline>
</glyph>
<glyph name="manat" format="1">
  <advance width="609"/>
  <unicode hex="20BC"/>
  <note>
    GF Latin Plus glyph
  </note>
  <outline>
    <contour>
      <point x="322" y="80" type="line"/>
      <point x="322" y="785" type="line"/>
      <point x="287" y="785" type="line"/>
      <point x="287" y="80" type="line"/>
    </contour>
    <contour>
      <point x="304" y="679" type="curve" smooth="yes"/>
      <point x="94" y="679"/>
      <point x="56" y="390"/>
      <point x="47" y="0" type="curve"/>
      <point x="101" y="0" type="line"/>
      <point x="111" y="221" type="line" smooth="yes"/>
      <point x="120" y="405"/>
      <point x="153" y="627"/>
      <point x="304" y="627" type="curve" smooth="yes"/>
      <point x="455" y="627"/>
      <point x="489" y="404"/>
      <point x="498" y="221" type="curve" smooth="yes"/>
      <point x="508" y="0" type="line"/>
      <point x="562" y="0" type="line"/>
      <point x="553" y="390"/>
      <point x="514" y="679"/>
    </contour>
  </outline>
</glyph>
<glyph name="literSign" format="1">
  <advance width="438"/>
  <unicode hex="2113"/>
  <outline>
    <contour>
      <point x="150" y="344" type="curve"/>
      <point x="150" y="612" type="line" smooth="yes"/>
      <point x="150" y="664"/>
      <point x="187" y="692"/>
      <point x="226" y="692" type="curve" smooth="yes"/>
      <point x="282" y="692"/>
      <point x="316" y="649"/>
      <point x="316" y="596" type="curve" smooth="yes"/>
      <point x="316" y="497"/>
      <point x="237" y="425"/>
    </contour>
    <contour>
      <point x="35" y="250" type="curve"/>
      <point x="46" y="222" type="line"/>
      <point x="57" y="227"/>
      <point x="82" y="244"/>
      <point x="93" y="255" type="curve"/>
      <point x="93" y="186" type="line" smooth="yes"/>
      <point x="93" y="46"/>
      <point x="139" y="0"/>
      <point x="223" y="0" type="curve" smooth="yes"/>
      <point x="319" y="0" type="line"/>
      <point x="319" y="35" type="line"/>
      <point x="248" y="44" type="line" smooth="yes"/>
      <point x="182" y="53"/>
      <point x="150" y="82"/>
      <point x="150" y="200" type="curve" smooth="yes"/>
      <point x="150" y="286" type="line"/>
      <point x="259" y="377"/>
      <point x="365" y="475"/>
      <point x="365" y="594" type="curve" smooth="yes"/>
      <point x="365" y="680"/>
      <point x="312" y="739"/>
      <point x="228" y="739" type="curve" smooth="yes"/>
      <point x="149" y="739"/>
      <point x="93" y="694"/>
      <point x="93" y="604" type="curve" smooth="yes"/>
      <point x="93" y="304" type="line"/>
      <point x="74" y="284"/>
      <point x="54" y="267"/>
    </contour>
  </outline>
</glyph>
<glyph name="partialdiff" format="1">
  <advance width="664"/>
  <unicode hex="2202"/>
  <outline>
    <contour>
      <point x="124" y="228" type="curve" smooth="yes"/>
      <point x="124" y="349"/>
      <point x="196" y="393"/>
      <point x="320" y="393" type="curve" smooth="yes"/>
      <point x="387" y="393"/>
      <point x="475" y="369"/>
      <point x="505" y="352" type="curve"/>
      <point x="505" y="264"/>
      <point x="484" y="48"/>
      <point x="309" y="48" type="curve" smooth="yes"/>
      <point x="213" y="48"/>
      <point x="124" y="103"/>
    </contour>
    <contour>
      <point x="68" y="227" type="curve" smooth="yes"/>
      <point x="68" y="69"/>
      <point x="179" y="-5"/>
      <point x="309" y="-5" type="curve" smooth="yes"/>
      <point x="505" y="-5"/>
      <point x="567" y="183"/>
      <point x="567" y="387" type="curve" smooth="yes"/>
      <point x="567" y="603"/>
      <point x="496" y="740"/>
      <point x="309" y="740" type="curve" smooth="yes"/>
      <point x="225" y="740"/>
      <point x="165" y="714"/>
      <point x="103" y="672" type="curve"/>
      <point x="113" y="631" type="line"/>
      <point x="150" y="654"/>
      <point x="221" y="688"/>
      <point x="300" y="688" type="curve" smooth="yes"/>
      <point x="461" y="688"/>
      <point x="509" y="573"/>
      <point x="509" y="393" type="curve"/>
      <point x="447" y="434"/>
      <point x="363" y="445"/>
      <point x="312" y="445" type="curve" smooth="yes"/>
      <point x="158" y="445"/>
      <point x="68" y="378"/>
    </contour>
  </outline>
</glyph>
<glyph name="emptyset" format="1">
  <advance width="609"/>
  <unicode hex="2205"/>
  <outline>
    <contour>
      <point x="571" y="604" type="line"/>
      <point x="18" y="-39" type="line"/>
      <point x="39" y="-60" type="line"/>
      <point x="591" y="584" type="line"/>
    </contour>
    <contour>
      <point x="134" y="232" type="curve" smooth="yes"/>
      <point x="134" y="300" type="line" smooth="yes"/>
      <point x="134" y="431"/>
      <point x="193" y="486"/>
      <point x="270" y="486" type="curve" smooth="yes"/>
      <point x="339" y="486" type="line" smooth="yes"/>
      <point x="415" y="486"/>
      <point x="475" y="431"/>
      <point x="475" y="300" type="curve" smooth="yes"/>
      <point x="475" y="232" type="line" smooth="yes"/>
      <point x="475" y="100"/>
      <point x="415" y="46"/>
      <point x="339" y="46" type="curve" smooth="yes"/>
      <point x="270" y="46" type="line" smooth="yes"/>
      <point x="193" y="46"/>
      <point x="134" y="100"/>
    </contour>
    <contour>
      <point x="76" y="226" type="line" smooth="yes"/>
      <point x="76" y="100"/>
      <point x="136" y="-6"/>
      <point x="270" y="-6" type="curve" smooth="yes"/>
      <point x="339" y="-6" type="line" smooth="yes"/>
      <point x="473" y="-6"/>
      <point x="533" y="100"/>
      <point x="533" y="226" type="curve" smooth="yes"/>
      <point x="533" y="306" type="line" smooth="yes"/>
      <point x="533" y="432"/>
      <point x="473" y="538"/>
      <point x="339" y="538" type="curve" smooth="yes"/>
      <point x="270" y="538" type="line" smooth="yes"/>
      <point x="136" y="538"/>
      <point x="76" y="432"/>
      <point x="76" y="306" type="curve" smooth="yes"/>
    </contour>
  </outline>
</glyph>
<glyph name="increment" format="1">
  <advance width="706"/>
  <unicode hex="2206"/>
  <outline>
    <contour>
      <point x="114" y="52" type="line"/>
      <point x="335" y="673" type="line"/>
      <point x="555" y="52" type="line"/>
    </contour>
    <contour>
      <point x="39" y="0" type="line"/>
      <point x="632" y="0" type="line"/>
      <point x="371" y="734" type="line"/>
      <point x="300" y="734" type="line"/>
    </contour>
  </outline>
</glyph>
<glyph name="product" format="1">
  <advance width="602"/>
  <unicode hex="220F"/>
  <outline>
    <contour>
      <point x="24" y="682" type="line"/>
      <point x="106" y="682" type="line"/>
      <point x="106" y="0" type="line"/>
      <point x="164" y="0" type="line"/>
      <point x="164" y="682" type="line"/>
      <point x="437" y="682" type="line"/>
      <point x="437" y="0" type="line"/>
      <point x="495" y="0" type="line"/>
      <point x="495" y="682" type="line"/>
      <point x="578" y="682" type="line"/>
      <point x="578" y="734" type="line"/>
      <point x="24" y="734" type="line"/>
    </contour>
  </outline>
</glyph>
<glyph name="summation" format="1">
  <advance width="565"/>
  <unicode hex="2211"/>
  <outline>
    <contour>
      <point x="48" y="-143" type="line"/>
      <point x="48" y="-200" type="line"/>
      <point x="542" y="-200" type="line"/>
      <point x="542" y="-145" type="line"/>
      <point x="116" y="-145" type="line"/>
      <point x="330" y="271" type="line"/>
      <point x="117" y="680" type="line"/>
      <point x="542" y="680" type="line"/>
      <point x="542" y="734" type="line"/>
      <point x="48" y="734" type="line"/>
      <point x="48" y="680" type="line"/>
      <point x="262" y="271" type="line"/>
    </contour>
  </outline>
</glyph>
<glyph name="bulletoperator" format="1">
  <advance width="609"/>
  <unicode hex="2219"/>
  <note>
    GF Latin Plus glyph
  </note>
  <outline>
    <contour>
      <point x="264" y="335" type="line" smooth="yes"/>
      <point x="264" y="321"/>
      <point x="274" y="312"/>
      <point x="288" y="312" type="curve" smooth="yes"/>
      <point x="320" y="312" type="line" smooth="yes"/>
      <point x="334" y="312"/>
      <point x="345" y="317"/>
      <point x="345" y="335" type="curve" smooth="yes"/>
      <point x="345" y="375" type="line" smooth="yes"/>
      <point x="345" y="391"/>
      <point x="338" y="400"/>
      <point x="320" y="400" type="curve" smooth="yes"/>
      <point x="288" y="400" type="line" smooth="yes"/>
      <point x="272" y="400"/>
      <point x="264" y="390"/>
      <point x="264" y="375" type="curve" smooth="yes"/>
    </contour>
  </outline>
</glyph>
<glyph name="approxequal" format="1">
  <advance width="609"/>
  <unicode hex="2248"/>
  <note>
    GF Latin Plus glyph
  </note>
  <outline>
    <contour>
      <point x="80" y="421" type="line"/>
      <point x="110" y="447"/>
      <point x="150" y="461"/>
      <point x="190" y="461" type="curve" smooth="yes"/>
      <point x="261" y="461"/>
      <point x="338" y="421"/>
      <point x="420" y="421" type="curve" smooth="yes"/>
      <point x="477" y="421"/>
      <point x="509" y="443"/>
      <point x="528" y="461" type="curve"/>
      <point x="528" y="511" type="line"/>
      <point x="507" y="491"/>
      <point x="473" y="471"/>
      <point x="418" y="471" type="curve" smooth="yes"/>
      <point x="336" y="471"/>
      <point x="268" y="511"/>
      <point x="188" y="511" type="curve" smooth="yes"/>
      <point x="148" y="511"/>
      <point x="108" y="495"/>
      <point x="80" y="471" type="curve"/>
    </contour>
    <contour>
      <point x="80" y="181" type="line"/>
      <point x="110" y="207"/>
      <point x="150" y="221"/>
      <point x="190" y="221" type="curve" smooth="yes"/>
      <point x="261" y="221"/>
      <point x="338" y="181"/>
      <point x="420" y="181" type="curve" smooth="yes"/>
      <point x="477" y="181"/>
      <point x="509" y="203"/>
      <point x="528" y="221" type="curve"/>
      <point x="528" y="271" type="line"/>
      <point x="507" y="251"/>
      <point x="473" y="231"/>
      <point x="418" y="231" type="curve" smooth="yes"/>
      <point x="336" y="231"/>
      <point x="268" y="271"/>
      <point x="188" y="271" type="curve" smooth="yes"/>
      <point x="148" y="271"/>
      <point x="108" y="255"/>
      <point x="80" y="231" type="curve"/>
    </contour>
  </outline>
</glyph>
<glyph name="lessequal" format="1">
  <advance width="609"/>
  <unicode hex="2264"/>
  <note>
    GF Latin Plus glyph
  </note>
  <outline>
    <contour>
      <point x="96" y="378" type="line"/>
      <point x="511" y="246" type="line"/>
      <point x="511" y="296" type="line"/>
      <point x="150" y="406" type="line"/>
      <point x="511" y="512" type="line"/>
      <point x="511" y="562" type="line"/>
      <point x="96" y="431" type="line"/>
    </contour>
    <component base="minus" xOffset="1" yOffset="-250"/>
  </outline>
</glyph>
<glyph name="fi" format="1">
  <advance width="601"/>
  <unicode hex="FB01"/>
  <note>
    GF Latin Plus glyph
  </note>
  <outline>
    <contour>
      <point x="23" y="484" type="line"/>
      <point x="107" y="484" type="line"/>
      <point x="107" y="0" type="line"/>
      <point x="165" y="0" type="line"/>
      <point x="165" y="484" type="line"/>
      <point x="490" y="484" type="line"/>
      <point x="490" y="533" type="line"/>
      <point x="165" y="533" type="line"/>
      <point x="165" y="602" type="line" smooth="yes"/>
      <point x="165" y="679"/>
      <point x="181" y="720"/>
      <point x="263" y="720" type="curve" smooth="yes"/>
      <point x="292" y="720"/>
      <point x="325" y="717"/>
      <point x="354" y="714" type="curve"/>
      <point x="354" y="755" type="line"/>
      <point x="327" y="763"/>
      <point x="296" y="769"/>
      <point x="248" y="769" type="curve" smooth="yes"/>
      <point x="138" y="769"/>
      <point x="107" y="712"/>
      <point x="107" y="608" type="curve" smooth="yes"/>
      <point x="107" y="533" type="line"/>
      <point x="23" y="522" type="line"/>
    </contour>
    <component base="i" xOffset="380"/>
  </outline>
</glyph>
<glyph name="fl" format="1">
  <advance width="667"/>
  <unicode hex="FB02"/>
  <note>
    GF Latin Plus glyph
  </note>
  <outline>
    <contour>
      <point x="23" y="484" type="line"/>
      <point x="107" y="484" type="line"/>
      <point x="107" y="0" type="line"/>
      <point x="165" y="0" type="line"/>
      <point x="165" y="484" type="line"/>
      <point x="339" y="484" type="line"/>
      <point x="339" y="533" type="line"/>
      <point x="165" y="533" type="line"/>
      <point x="165" y="602" type="line" smooth="yes"/>
      <point x="165" y="679"/>
      <point x="186" y="720"/>
      <point x="293" y="720" type="curve" smooth="yes"/>
      <point x="364" y="720"/>
      <point x="452" y="716"/>
      <point x="519" y="711" type="curve"/>
      <point x="519" y="750" type="line"/>
      <point x="459" y="756"/>
      <point x="383" y="769"/>
      <point x="286" y="769" type="curve" smooth="yes"/>
      <point x="147" y="769"/>
      <point x="107" y="712"/>
      <point x="107" y="604" type="curve" smooth="yes"/>
      <point x="107" y="533" type="line"/>
      <point x="23" y="522" type="line"/>
    </contour>
    <contour>
      <point x="461" y="171" type="line" smooth="yes"/>
      <point x="461" y="40"/>
      <point x="508" y="0"/>
      <point x="593" y="0" type="curve" smooth="yes"/>
      <point x="658" y="0" type="line"/>
      <point x="658" y="41" type="line"/>
      <point x="600" y="48" type="line" smooth="yes"/>
      <point x="550" y="53"/>
      <point x="519" y="72"/>
      <point x="519" y="177" type="curve" smooth="yes"/>
      <point x="519" y="743" type="line"/>
      <point x="461" y="743" type="line"/>
    </contour>
  </outline>
</glyph>
<glyph name="f_f_l" format="1">
  <advance width="1047"/>
  <unicode hex="FB04"/>
  <note>
    GF Latin Plus glyph
  </note>
  <outline>
    <contour>
      <point x="23" y="484" type="line"/>
      <point x="107" y="484" type="line"/>
      <point x="107" y="0" type="line"/>
      <point x="165" y="0" type="line"/>
      <point x="165" y="484" type="line"/>
      <point x="516" y="484" type="line"/>
      <point x="516" y="533" type="line"/>
      <point x="165" y="533" type="line"/>
      <point x="165" y="602" type="line" smooth="yes"/>
      <point x="165" y="679"/>
      <point x="181" y="720"/>
      <point x="263" y="720" type="curve" smooth="yes"/>
      <point x="292" y="720"/>
      <point x="325" y="717"/>
      <point x="354" y="714" type="curve"/>
      <point x="354" y="755" type="line"/>
      <point x="327" y="763"/>
      <point x="296" y="769"/>
      <point x="248" y="769" type="curve" smooth="yes"/>
      <point x="138" y="769"/>
      <point x="107" y="712"/>
      <point x="107" y="608" type="curve" smooth="yes"/>
      <point x="107" y="533" type="line"/>
      <point x="23" y="522" type="line"/>
    </contour>
    <component base="fl" xOffset="380"/>
  </outline>
</glyph>
<glyph name="s_t" format="1">
  <advance width="855"/>
  <unicode hex="FB06"/>
  <outline>
    <contour>
      <point x="445" y="127" type="curve" smooth="yes"/>
      <point x="445" y="161" type="line" smooth="yes"/>
      <point x="445" y="245"/>
      <point x="387" y="290"/>
      <point x="293" y="290" type="curve" smooth="yes"/>
      <point x="220" y="290" type="line" smooth="yes"/>
      <point x="151" y="290"/>
      <point x="105" y="301"/>
      <point x="105" y="372" type="curve" smooth="yes"/>
      <point x="105" y="395" type="line" smooth="yes"/>
      <point x="105" y="469"/>
      <point x="153" y="490"/>
      <point x="241" y="490" type="curve" smooth="yes"/>
      <point x="601" y="490" type="line"/>
      <point x="598" y="167" type="line" smooth="yes"/>
      <point x="596" y="47"/>
      <point x="646" y="0"/>
      <point x="743" y="0" type="curve" smooth="yes"/>
      <point x="809" y="0" type="line"/>
      <point x="809" y="42" type="line"/>
      <point x="744" y="48" type="line" smooth="yes"/>
      <point x="708" y="52"/>
      <point x="655" y="65"/>
      <point x="655" y="167" type="curve" smooth="yes"/>
      <point x="655" y="484" type="line"/>
      <point x="817" y="484" type="line"/>
      <point x="817" y="533" type="line"/>
      <point x="655" y="533" type="line"/>
      <point x="655" y="682" type="line"/>
      <point x="612" y="682" type="line"/>
      <point x="602" y="530" type="line"/>
      <point x="532" y="533"/>
      <point x="356" y="538"/>
      <point x="259" y="538" type="curve" smooth="yes"/>
      <point x="117" y="538"/>
      <point x="53" y="495"/>
      <point x="53" y="397" type="curve" smooth="yes"/>
      <point x="53" y="368" type="line" smooth="yes"/>
      <point x="53" y="270"/>
      <point x="116" y="240"/>
      <point x="213" y="240" type="curve" smooth="yes"/>
      <point x="285" y="240" type="line" smooth="yes"/>
      <point x="359" y="240"/>
      <point x="393" y="209"/>
      <point x="393" y="156" type="curve" smooth="yes"/>
      <point x="393" y="130" type="line" smooth="yes"/>
      <point x="393" y="51"/>
      <point x="342" y="40"/>
      <point x="270" y="40" type="curve" smooth="yes"/>
      <point x="57" y="40" type="line"/>
      <point x="57" y="5" type="line"/>
      <point x="90" y="-1"/>
      <point x="214" y="-6"/>
      <point x="262" y="-6" type="curve" smooth="yes"/>
      <point x="367" y="-6"/>
      <point x="445" y="20"/>
    </contour>
  </outline>
</glyph>
<glyph name="B.smcp" format="1">
  <advance width="508"/>
  <outline>
    <contour>
      <point x="132" y="307" type="line"/>
      <point x="132" y="514" type="line"/>
      <point x="287" y="514" type="line" smooth="yes"/>
      <point x="346" y="514"/>
      <point x="389" y="488"/>
      <point x="386" y="409" type="curve" smooth="yes"/>
      <point x="384" y="347"/>
      <point x="346" y="307"/>
      <point x="292" y="307" type="curve" smooth="yes"/>
    </contour>
    <contour>
      <point x="132" y="46" type="line"/>
      <point x="132" y="270" type="line"/>
      <point x="294" y="270" type="line" smooth="yes"/>
      <point x="356" y="270"/>
      <point x="406" y="231"/>
      <point x="406" y="163" type="curve" smooth="yes"/>
      <point x="406" y="69"/>
      <point x="360" y="46"/>
      <point x="294" y="46" type="curve" smooth="yes"/>
    </contour>
    <contour>
      <point x="76" y="0" type="line"/>
      <point x="297" y="0" type="line" smooth="yes"/>
      <point x="397" y="0"/>
      <point x="462" y="35"/>
      <point x="462" y="155" type="curve" smooth="yes"/>
      <point x="462" y="246"/>
      <point x="396" y="281"/>
      <point x="355" y="291" type="curve"/>
      <point x="399" y="303"/>
      <point x="440" y="347"/>
      <point x="440" y="417" type="curve" smooth="yes"/>
      <point x="440" y="514"/>
      <point x="388" y="560"/>
      <point x="290" y="560" type="curve" smooth="yes"/>
      <point x="76" y="560" type="line"/>
    </contour>
    <contour>
      <point x="249" y="650" type="move" name="top"/>
    </contour>
  </outline>
</glyph>
<glyph name="C.smcp" format="1">
  <advance width="493"/>
  <outline>
    <contour>
      <point x="61" y="282" type="curve" smooth="yes"/>
      <point x="61" y="41"/>
      <point x="126" y="-5"/>
      <point x="270" y="-5" type="curve" smooth="yes"/>
      <point x="326" y="-5"/>
      <point x="393" y="3"/>
      <point x="443" y="13" type="curve"/>
      <point x="443" y="53" type="line"/>
      <point x="411" y="48"/>
      <point x="361" y="43"/>
      <point x="280" y="43" type="curve" smooth="yes"/>
      <point x="160" y="43"/>
      <point x="117" y="80"/>
      <point x="117" y="281" type="curve" smooth="yes"/>
      <point x="117" y="476"/>
      <point x="163" y="517"/>
      <point x="282" y="517" type="curve" smooth="yes"/>
      <point x="347" y="517"/>
      <point x="417" y="510"/>
      <point x="443" y="506" type="curve"/>
      <point x="443" y="546" type="line"/>
      <point x="393" y="556"/>
      <point x="322" y="565"/>
      <point x="275" y="565" type="curve" smooth="yes"/>
      <point x="127" y="565"/>
      <point x="61" y="508"/>
    </contour>
    <contour>
      <point x="274" y="658" type="move" name="top"/>
    </contour>
    <contour>
      <point x="281" y="-150" type="move" name="bottom"/>
    </contour>
  </outline>
</glyph>
<glyph name="D.smcp" format="1">
  <advance width="563"/>
  <outline>
    <contour>
      <point x="132" y="48" type="line"/>
      <point x="132" y="512" type="line"/>
      <point x="304" y="512" type="line" smooth="yes"/>
      <point x="403" y="512"/>
      <point x="446" y="450"/>
      <point x="446" y="280" type="curve" smooth="yes"/>
      <point x="446" y="139"/>
      <point x="402" y="48"/>
      <point x="304" y="48" type="curve" smooth="yes"/>
    </contour>
    <contour>
      <point x="76" y="0" type="line"/>
      <point x="308" y="0" type="line" smooth="yes"/>
      <point x="436" y="0"/>
      <point x="502" y="106"/>
      <point x="502" y="280" type="curve" smooth="yes"/>
      <point x="502" y="462"/>
      <point x="449" y="560"/>
      <point x="308" y="560" type="curve" smooth="yes"/>
      <point x="76" y="560" type="line"/>
    </contour>
    <contour>
      <point x="268" y="650" type="move" name="top"/>
    </contour>
    <contour>
      <point x="258" y="-150" type="move" name="bottom"/>
    </contour>
  </outline>
</glyph>
<glyph name="E.smcp" format="1">
  <advance width="497"/>
  <outline>
    <contour>
      <point x="76" y="101" type="line" smooth="yes"/>
      <point x="76" y="7"/>
      <point x="147" y="-3"/>
      <point x="199" y="-3" type="curve" smooth="yes"/>
      <point x="221" y="-3"/>
      <point x="418" y="2"/>
      <point x="437" y="4" type="curve"/>
      <point x="437" y="44" type="line"/>
      <point x="207" y="44" type="line" smooth="yes"/>
      <point x="170" y="44"/>
      <point x="132" y="53"/>
      <point x="132" y="113" type="curve" smooth="yes"/>
      <point x="132" y="255" type="line"/>
      <point x="403" y="259" type="line"/>
      <point x="403" y="298" type="line"/>
      <point x="132" y="301" type="line"/>
      <point x="132" y="444" type="line" smooth="yes"/>
      <point x="132" y="492"/>
      <point x="159" y="513"/>
      <point x="204" y="513" type="curve" smooth="yes"/>
      <point x="437" y="513" type="line"/>
      <point x="437" y="553" type="line"/>
      <point x="422" y="555"/>
      <point x="227" y="560"/>
      <point x="190" y="560" type="curve" smooth="yes"/>
      <point x="135" y="561"/>
      <point x="76" y="534"/>
      <point x="76" y="452" type="curve" smooth="yes"/>
    </contour>
    <contour>
      <point x="263" y="650" type="move" name="top"/>
    </contour>
    <contour>
      <point x="427" y="4" type="move" name="ogonek"/>
    </contour>
    <contour>
      <point x="269" y="-150" type="move" name="bottom"/>
    </contour>
  </outline>
</glyph>
<glyph name="Eng.smcp" format="1">
  <advance width="570"/>
  <outline>
    <contour>
      <point x="286" y="-168" type="line"/>
      <point x="309" y="-178"/>
      <point x="346" y="-186"/>
      <point x="377" y="-186" type="curve" smooth="yes"/>
      <point x="464" y="-186"/>
      <point x="509" y="-153"/>
      <point x="509" y="-60" type="curve" smooth="yes"/>
      <point x="509" y="28" type="line"/>
      <point x="453" y="28" type="line"/>
      <point x="453" y="-55" type="line" smooth="yes"/>
      <point x="453" y="-122"/>
      <point x="419" y="-139"/>
      <point x="368" y="-139" type="curve" smooth="yes"/>
      <point x="350" y="-139"/>
      <point x="303" y="-133"/>
      <point x="286" y="-128" type="curve"/>
    </contour>
    <component base="N.smcp"/>
  </outline>
</glyph>
<glyph name="Eth.smcp" format="1">
  <advance width="563"/>
  <outline>
    <contour>
      <point x="25" y="265" type="line"/>
      <point x="274" y="265" type="line"/>
      <point x="274" y="302" type="line"/>
      <point x="25" y="302" type="line"/>
    </contour>
    <component base="D.smcp"/>
  </outline>
</glyph>
<glyph name="G.smcp" format="1">
  <advance width="549"/>
  <outline>
    <contour>
      <point x="61" y="282" type="curve" smooth="yes"/>
      <point x="61" y="82"/>
      <point x="101" y="-5"/>
      <point x="253" y="-4" type="curve" smooth="yes"/>
      <point x="320" y="-3"/>
      <point x="384" y="22"/>
      <point x="424" y="40" type="curve"/>
      <point x="432" y="0" type="line"/>
      <point x="474" y="0" type="line"/>
      <point x="474" y="293" type="line"/>
      <point x="456" y="294"/>
      <point x="431" y="295"/>
      <point x="403" y="295" type="curve" smooth="yes"/>
      <point x="352" y="295"/>
      <point x="301" y="292"/>
      <point x="271" y="288" type="curve"/>
      <point x="271" y="249" type="line"/>
      <point x="423" y="249" type="line"/>
      <point x="423" y="76" type="line"/>
      <point x="383" y="61"/>
      <point x="322" y="45"/>
      <point x="267" y="45" type="curve" smooth="yes"/>
      <point x="149" y="45"/>
      <point x="117" y="98"/>
      <point x="117" y="280" type="curve" smooth="yes"/>
      <point x="117" y="451"/>
      <point x="148" y="517"/>
      <point x="268" y="517" type="curve" smooth="yes"/>
      <point x="339" y="517"/>
      <point x="417" y="510"/>
      <point x="450" y="506" type="curve"/>
      <point x="450" y="546" type="line"/>
      <point x="395" y="557"/>
      <point x="320" y="565"/>
      <point x="260" y="565" type="curve" smooth="yes"/>
      <point x="104" y="565"/>
      <point x="61" y="473"/>
    </contour>
    <contour>
      <point x="277" y="650" type="move" name="top"/>
    </contour>
    <contour>
      <point x="285" y="-150" type="move" name="bottom"/>
    </contour>
  </outline>
</glyph>
<glyph name="J.smcp" format="1">
  <advance width="332"/>
  <outline>
    <contour>
      <point x="34" y="13" type="line"/>
      <point x="56" y="4"/>
      <point x="94" y="-5"/>
      <point x="124" y="-5" type="curve" smooth="yes"/>
      <point x="212" y="-5"/>
      <point x="256" y="28"/>
      <point x="256" y="121" type="curve" smooth="yes"/>
      <point x="256" y="560" type="line"/>
      <point x="200" y="560" type="line"/>
      <point x="200" y="127" type="line" smooth="yes"/>
      <point x="200" y="59"/>
      <point x="166" y="43"/>
      <point x="115" y="43" type="curve" smooth="yes"/>
      <point x="96" y="43"/>
      <point x="51" y="48"/>
      <point x="34" y="54" type="curve"/>
    </contour>
    <contour>
      <point x="228" y="650" type="move" name="top"/>
    </contour>
  </outline>
</glyph>
<glyph name="K.smcp" format="1">
  <advance width="508"/>
  <outline>
    <contour>
      <point x="76" y="0" type="line"/>
      <point x="132" y="0" type="line"/>
      <point x="132" y="256" type="line"/>
      <point x="240" y="256" type="line"/>
      <point x="410" y="0" type="line"/>
      <point x="470" y="0" type="line"/>
      <point x="285" y="280" type="line"/>
      <point x="469" y="560" type="line"/>
      <point x="409" y="560" type="line"/>
      <point x="240" y="304" type="line"/>
      <point x="132" y="304" type="line"/>
      <point x="132" y="560" type="line"/>
      <point x="76" y="560" type="line"/>
    </contour>
    <contour>
      <point x="245" y="650" type="move" name="top"/>
    </contour>
    <contour>
      <point x="245" y="-150" type="move" name="bottom"/>
    </contour>
  </outline>
</glyph>
<glyph name="L.smcp" format="1">
  <advance width="453"/>
  <outline>
    <contour>
      <point x="76" y="108" type="line" smooth="yes"/>
      <point x="76" y="24"/>
      <point x="125" y="0"/>
      <point x="190" y="0" type="curve" smooth="yes"/>
      <point x="420" y="0" type="line"/>
      <point x="420" y="49" type="line"/>
      <point x="204" y="49" type="line" smooth="yes"/>
      <point x="167" y="49"/>
      <point x="132" y="59"/>
      <point x="132" y="116" type="curve" smooth="yes"/>
      <point x="132" y="560" type="line"/>
      <point x="76" y="560" type="line"/>
    </contour>
    <contour>
      <point x="104" y="650" type="move" name="top"/>
    </contour>
    <contour>
      <point x="152" y="490" type="move" name="altcaron"/>
    </contour>
    <contour>
      <point x="286" y="350" type="move" name="dot"/>
    </contour>
    <contour>
      <point x="231" y="-150" type="move" name="bottom"/>
    </contour>
  </outline>
</glyph>
<glyph name="N.salt" format="1">
  <advance width="718"/>
  <outline>
    <contour>
      <point x="97" y="0" type="line"/>
      <point x="155" y="0" type="line"/>
      <point x="155" y="628" type="line" smooth="yes"/>
      <point x="155" y="672"/>
      <point x="175" y="685"/>
      <point x="203" y="685" type="curve" smooth="yes"/>
      <point x="225" y="685"/>
      <point x="240" y="670"/>
      <point x="248" y="647" type="curve" smooth="yes"/>
      <point x="450" y="71" type="line" smooth="yes"/>
      <point x="468" y="19"/>
      <point x="497" y="-6"/>
      <point x="551" y="-6" type="curve" smooth="yes"/>
      <point x="608" y="-6"/>
      <point x="653" y="19"/>
      <point x="653" y="98" type="curve" smooth="yes"/>
      <point x="653" y="734" type="line"/>
      <point x="595" y="734" type="line"/>
      <point x="595" y="102" type="line" smooth="yes"/>
      <point x="595" y="61"/>
      <point x="573" y="50"/>
      <point x="549" y="50" type="curve" smooth="yes"/>
      <point x="522" y="50"/>
      <point x="508" y="62"/>
      <point x="500" y="87" type="curve" smooth="yes"/>
      <point x="299" y="661" type="line" smooth="yes"/>
      <point x="282" y="711"/>
      <point x="255" y="741"/>
      <point x="199" y="741" type="curve" smooth="yes"/>
      <point x="143" y="741"/>
      <point x="97" y="716"/>
      <point x="97" y="633" type="curve" smooth="yes"/>
    </contour>
    <contour>
      <point x="376" y="810" type="move" name="top"/>
    </contour>
    <contour>
      <point x="372" y="-150" type="move" name="bottom"/>
    </contour>
  </outline>
</glyph>
<glyph name="N.salt.smcp" format="1">
  <advance width="611"/>
  <outline>
    <contour>
      <point x="88" y="0" type="line"/>
      <point x="144" y="0" type="line"/>
      <point x="144" y="473" type="line" smooth="yes"/>
      <point x="144" y="505"/>
      <point x="159" y="514"/>
      <point x="181" y="514" type="curve" smooth="yes"/>
      <point x="198" y="514"/>
      <point x="210" y="504"/>
      <point x="216" y="487" type="curve" smooth="yes"/>
      <point x="373" y="60" type="line" smooth="yes"/>
      <point x="389" y="16"/>
      <point x="416" y="-5"/>
      <point x="463" y="-5" type="curve" smooth="yes"/>
      <point x="513" y="-5"/>
      <point x="551" y="15"/>
      <point x="551" y="80" type="curve" smooth="yes"/>
      <point x="551" y="560" type="line"/>
      <point x="495" y="560" type="line"/>
      <point x="495" y="84" type="line" smooth="yes"/>
      <point x="495" y="55"/>
      <point x="478" y="47"/>
      <point x="460" y="47" type="curve" smooth="yes"/>
      <point x="439" y="47"/>
      <point x="428" y="55"/>
      <point x="421" y="74" type="curve" smooth="yes"/>
      <point x="265" y="499" type="line" smooth="yes"/>
      <point x="250" y="540"/>
      <point x="225" y="565"/>
      <point x="176" y="565" type="curve" smooth="yes"/>
      <point x="127" y="565"/>
      <point x="88" y="544"/>
      <point x="88" y="478" type="curve" smooth="yes"/>
    </contour>
    <contour>
      <point x="318" y="650" type="move" name="top"/>
    </contour>
    <contour>
      <point x="318" y="-150" type="move" name="bottom"/>
    </contour>
  </outline>
</glyph>
<glyph name="O.smcp" format="1">
  <advance width="577"/>
  <outline>
    <contour>
      <point x="117" y="277" type="curve" smooth="yes"/>
      <point x="117" y="489"/>
      <point x="173" y="517"/>
      <point x="288" y="517" type="curve" smooth="yes"/>
      <point x="410" y="517"/>
      <point x="460" y="489"/>
      <point x="460" y="277" type="curve" smooth="yes"/>
      <point x="460" y="75"/>
      <point x="411" y="43"/>
      <point x="288" y="43" type="curve" smooth="yes"/>
      <point x="161" y="43"/>
      <point x="117" y="75"/>
    </contour>
    <contour>
      <point x="61" y="277" type="curve" smooth="yes"/>
      <point x="61" y="32"/>
      <point x="137" y="-5"/>
      <point x="288" y="-5" type="curve" smooth="yes"/>
      <point x="440" y="-5"/>
      <point x="516" y="32"/>
      <point x="516" y="277" type="curve" smooth="yes"/>
      <point x="516" y="522"/>
      <point x="442" y="565"/>
      <point x="288" y="565" type="curve" smooth="yes"/>
      <point x="140" y="565"/>
      <point x="61" y="522"/>
    </contour>
    <contour>
      <point x="288" y="658" type="move" name="top"/>
    </contour>
    <contour>
      <point x="338" y="0" type="move" name="ogonek"/>
    </contour>
    <contour>
      <point x="288" y="-150" type="move" name="bottom"/>
    </contour>
  </outline>
</glyph>
<glyph name="Q.smcp" format="1">
  <advance width="577"/>
  <outline>
    <contour>
      <point x="294" y="-27" type="line"/>
      <point x="304" y="-95"/>
      <point x="359" y="-128"/>
      <point x="416" y="-128" type="curve" smooth="yes"/>
      <point x="432" y="-128"/>
      <point x="447" y="-126"/>
      <point x="461" y="-122" type="curve"/>
      <point x="461" y="-79" type="line"/>
      <point x="448" y="-83"/>
      <point x="433" y="-86"/>
      <point x="417" y="-86" type="curve" smooth="yes"/>
      <point x="384" y="-86"/>
      <point x="347" y="-68"/>
      <point x="333" y="-27" type="curve"/>
    </contour>
    <component base="O.smcp"/>
  </outline>
</glyph>
<glyph name="T.smcp" format="1">
  <advance width="479"/>
  <outline>
    <contour>
      <point x="25" y="512" type="line"/>
      <point x="212" y="512" type="line"/>
      <point x="212" y="0" type="line"/>
      <point x="268" y="0" type="line"/>
      <point x="268" y="512" type="line"/>
      <point x="454" y="512" type="line"/>
      <point x="454" y="560" type="line"/>
      <point x="25" y="560" type="line"/>
    </contour>
    <contour>
      <point x="240" y="650" type="move" name="top"/>
    </contour>
    <contour>
      <point x="240" y="-150" type="move" name="bottom"/>
    </contour>
  </outline>
</glyph>
<glyph name="Tbar.smcp" format="1">
  <advance width="479"/>
  <outline>
    <contour>
      <point x="66" y="280" type="line"/>
      <point x="412" y="280" type="line"/>
      <point x="412" y="312" type="line"/>
      <point x="66" y="312" type="line"/>
    </contour>
    <component base="T.smcp"/>
  </outline>
</glyph>
<glyph name="Thorn.smcp" format="1">
  <advance width="473"/>
  <outline>
    <contour>
      <point x="76" y="0" type="line"/>
      <point x="132" y="0" type="line"/>
      <point x="132" y="130" type="line"/>
      <point x="158" y="128"/>
      <point x="243" y="122"/>
      <point x="270" y="122" type="curve" smooth="yes"/>
      <point x="337" y="122"/>
      <point x="426" y="148"/>
      <point x="426" y="292" type="curve" smooth="yes"/>
      <point x="426" y="433"/>
      <point x="342" y="456"/>
      <point x="273" y="456" type="curve" smooth="yes"/>
      <point x="132" y="456" type="line"/>
      <point x="132" y="560" type="line"/>
      <point x="76" y="560" type="line"/>
    </contour>
    <contour>
      <point x="132" y="170" type="line"/>
      <point x="132" y="408" type="line"/>
      <point x="269" y="408" type="line" smooth="yes"/>
      <point x="323" y="408"/>
      <point x="370" y="384"/>
      <point x="370" y="291" type="curve" smooth="yes"/>
      <point x="370" y="197"/>
      <point x="322" y="170"/>
      <point x="263" y="170" type="curve" smooth="yes"/>
    </contour>
  </outline>
</glyph>
<glyph name="U.smcp" format="1">
  <advance width="569"/>
  <outline>
    <contour>
      <point x="68" y="173" type="line" smooth="yes"/>
      <point x="68" y="35"/>
      <point x="151" y="-5"/>
      <point x="284" y="-5" type="curve" smooth="yes"/>
      <point x="418" y="-5"/>
      <point x="501" y="35"/>
      <point x="501" y="173" type="curve" smooth="yes"/>
      <point x="501" y="560" type="line"/>
      <point x="445" y="560" type="line"/>
      <point x="445" y="173" type="line" smooth="yes"/>
      <point x="445" y="72"/>
      <point x="385" y="43"/>
      <point x="284" y="43" type="curve" smooth="yes"/>
      <point x="183" y="43"/>
      <point x="124" y="72"/>
      <point x="124" y="173" type="curve" smooth="yes"/>
      <point x="124" y="560" type="line"/>
      <point x="68" y="560" type="line"/>
    </contour>
    <contour>
      <point x="284" y="650" type="move" name="top"/>
    </contour>
    <contour>
      <point x="346" y="0" type="move" name="ogonek"/>
    </contour>
    <contour>
      <point x="284" y="-150" type="move" name="bottom"/>
    </contour>
  </outline>
</glyph>
<glyph name="V.smcp" format="1">
  <advance width="568"/>
  <outline>
    <contour>
      <point x="42" y="560" type="line"/>
      <point x="248" y="0" type="line"/>
      <point x="320" y="0" type="line"/>
      <point x="526" y="560" type="line"/>
      <point x="466" y="560" type="line"/>
      <point x="284" y="49" type="line"/>
      <point x="102" y="560" type="line"/>
    </contour>
  </outline>
</glyph>
<glyph name="W.salt" format="1">
  <advance width="1003"/>
  <outline>
    <contour>
      <point x="39" y="734" type="line"/>
      <point x="284" y="0" type="line"/>
      <point x="361" y="0" type="line"/>
      <point x="500" y="398" type="line"/>
      <point x="644" y="0" type="line"/>
      <point x="721" y="0" type="line"/>
      <point x="964" y="734" type="line"/>
      <point x="905" y="734" type="line"/>
      <point x="680" y="63" type="line"/>
      <point x="528" y="484" type="line"/>
      <point x="606" y="734" type="line"/>
      <point x="546" y="734" type="line"/>
      <point x="326" y="63" type="line"/>
      <point x="100" y="734" type="line"/>
    </contour>
    <contour>
      <point x="524" y="810" type="move" name="top"/>
    </contour>
  </outline>
</glyph>
<glyph name="X.salt" format="1">
  <advance width="618"/>
  <outline>
    <contour>
      <point x="43" y="0" type="line"/>
      <point x="106" y="0" type="line"/>
      <point x="256" y="252" type="line" smooth="yes"/>
      <point x="278" y="289"/>
      <point x="290" y="327"/>
      <point x="290" y="368" type="curve" smooth="yes"/>
      <point x="290" y="413"/>
      <point x="270" y="457"/>
      <point x="247" y="496" type="curve" smooth="yes"/>
      <point x="102" y="734" type="line"/>
      <point x="41" y="734" type="line"/>
      <point x="195" y="476" type="line" smooth="yes"/>
      <point x="216" y="440"/>
      <point x="233" y="405"/>
      <point x="233" y="367" type="curve" smooth="yes"/>
      <point x="233" y="333"/>
      <point x="221" y="302"/>
      <point x="202" y="270" type="curve" smooth="yes"/>
    </contour>
    <contour>
      <point x="514" y="0" type="line"/>
      <point x="577" y="0" type="line"/>
      <point x="417" y="270" type="line" smooth="yes"/>
      <point x="398" y="302"/>
      <point x="389" y="333"/>
      <point x="389" y="367" type="curve" smooth="yes"/>
      <point x="389" y="405"/>
      <point x="406" y="441"/>
      <point x="427" y="476" type="curve" smooth="yes"/>
      <point x="577" y="734" type="line"/>
      <point x="516" y="734" type="line"/>
      <point x="375" y="496" type="line" smooth="yes"/>
      <point x="352" y="457"/>
      <point x="332" y="413"/>
      <point x="332" y="368" type="curve" smooth="yes"/>
      <point x="332" y="328"/>
      <point x="341" y="289"/>
      <point x="364" y="252" type="curve" smooth="yes"/>
    </contour>
    <contour>
      <point x="308" y="810" type="move" name="top"/>
    </contour>
    <contour>
      <point x="308" y="-150" type="move" name="bottom"/>
    </contour>
  </outline>
</glyph>
<glyph name="X.salt.smcp" format="1">
  <advance width="531"/>
  <outline>
    <contour>
      <point x="45" y="0" type="line"/>
      <point x="105" y="0" type="line"/>
      <point x="224" y="192" type="line" smooth="yes"/>
      <point x="240" y="220"/>
      <point x="251" y="249"/>
      <point x="251" y="280" type="curve" smooth="yes"/>
      <point x="251" y="315"/>
      <point x="235" y="349"/>
      <point x="217" y="378" type="curve" smooth="yes"/>
      <point x="101" y="560" type="line"/>
      <point x="42" y="560" type="line"/>
      <point x="165" y="361" type="line" smooth="yes"/>
      <point x="182" y="335"/>
      <point x="194" y="308"/>
      <point x="194" y="280" type="curve" smooth="yes"/>
      <point x="194" y="255"/>
      <point x="186" y="231"/>
      <point x="170" y="206" type="curve" smooth="yes"/>
    </contour>
    <contour>
      <point x="427" y="0" type="line"/>
      <point x="487" y="0" type="line"/>
      <point x="360" y="206" type="line" smooth="yes"/>
      <point x="345" y="231"/>
      <point x="338" y="255"/>
      <point x="338" y="280" type="curve" smooth="yes"/>
      <point x="338" y="308"/>
      <point x="352" y="335"/>
      <point x="368" y="361" type="curve" smooth="yes"/>
      <point x="487" y="560" type="line"/>
      <point x="429" y="560" type="line"/>
      <point x="317" y="378" type="line" smooth="yes"/>
      <point x="298" y="348"/>
      <point x="283" y="315"/>
      <point x="283" y="280" type="curve" smooth="yes"/>
      <point x="283" y="250"/>
      <point x="291" y="220"/>
      <point x="308" y="191" type="curve" smooth="yes"/>
    </contour>
    <contour>
      <point x="264" y="650" type="move" name="top"/>
    </contour>
    <contour>
      <point x="264" y="-150" type="move" name="bottom"/>
    </contour>
  </outline>
</glyph>
<glyph name="Y.smcp" format="1">
  <advance width="522"/>
  <outline>
    <contour>
      <point x="42" y="560" type="line"/>
      <point x="233" y="188" type="line"/>
      <point x="233" y="0" type="line"/>
      <point x="289" y="0" type="line"/>
      <point x="289" y="188" type="line"/>
      <point x="479" y="560" type="line"/>
      <point x="422" y="560" type="line"/>
      <point x="262" y="241" type="line"/>
      <point x="101" y="560" type="line"/>
    </contour>
    <contour>
      <point x="262" y="650" type="move" name="top"/>
    </contour>
    <contour>
      <point x="262" y="-150" type="move" name="bottom"/>
    </contour>
  </outline>
</glyph>
<glyph name="a.superior" format="1">
  <advance width="407"/>
  <outline>
    <contour>
      <point x="83" y="383" type="curve" smooth="yes"/>
      <point x="83" y="400" type="line" smooth="yes"/>
      <point x="83" y="440"/>
      <point x="105" y="470"/>
      <point x="165" y="473" type="curve" smooth="yes"/>
      <point x="300" y="478" type="line"/>
      <point x="300" y="350" type="line"/>
      <point x="299" y="349"/>
      <point x="202" y="312"/>
      <point x="154" y="313" type="curve" smooth="yes"/>
      <point x="120" y="314"/>
      <point x="83" y="330"/>
    </contour>
    <contour>
      <point x="35" y="372" type="line" smooth="yes"/>
      <point x="35" y="311"/>
      <point x="78" y="276"/>
      <point x="136" y="276" type="curve" smooth="yes"/>
      <point x="205" y="276"/>
      <point x="295" y="320"/>
      <point x="301" y="325" type="curve"/>
      <point x="312" y="280" type="line"/>
      <point x="351" y="280" type="line"/>
      <point x="351" y="559" type="line" smooth="yes"/>
      <point x="351" y="642"/>
      <point x="306" y="679"/>
      <point x="209" y="678" type="curve" smooth="yes"/>
      <point x="148" y="678"/>
      <point x="103" y="673"/>
      <point x="69" y="668" type="curve"/>
      <point x="69" y="637" type="line"/>
      <point x="194" y="637" type="line" smooth="yes"/>
      <point x="279" y="637"/>
      <point x="300" y="606"/>
      <point x="300" y="556" type="curve" smooth="yes"/>
      <point x="300" y="501" type="line"/>
      <point x="157" y="501" type="line" smooth="yes"/>
      <point x="76" y="501"/>
      <point x="35" y="462"/>
      <point x="35" y="401" type="curve" smooth="yes"/>
    </contour>
    <contour>
      <point x="202" y="757" type="move" name="top"/>
    </contour>
    <contour>
      <point x="344" y="280" type="move" name="ogonek"/>
    </contour>
    <contour>
      <point x="202" y="169" type="move" name="bottom"/>
    </contour>
  </outline>
</glyph>
<glyph name="ampersand.salt" format="1">
  <advance width="952"/>
  <outline>
    <contour>
      <point x="285" y="219" type="line"/>
      <point x="285" y="333"/>
      <point x="329" y="366"/>
      <point x="392" y="366" type="curve" smooth="yes"/>
      <point x="481" y="366" type="line" smooth="yes"/>
      <point x="542" y="366"/>
      <point x="571" y="356"/>
      <point x="571" y="294" type="curve" smooth="yes"/>
      <point x="571" y="232"/>
      <point x="548" y="219"/>
      <point x="481" y="219" type="curve" smooth="yes"/>
    </contour>
    <contour>
      <point x="105" y="316" type="curve" smooth="yes"/>
      <point x="105" y="386" type="line" smooth="yes"/>
      <point x="105" y="493"/>
      <point x="161" y="509"/>
      <point x="273" y="509" type="curve" smooth="yes"/>
      <point x="732" y="509" type="line"/>
      <point x="732" y="199" type="line" smooth="yes"/>
      <point x="732" y="74"/>
      <point x="636" y="47"/>
      <point x="543" y="47" type="curve" smooth="yes"/>
      <point x="426" y="47" type="line" smooth="yes"/>
      <point x="332" y="47"/>
      <point x="285" y="70"/>
      <point x="285" y="177" type="curve"/>
      <point x="492" y="177" type="line" smooth="yes"/>
      <point x="574" y="177"/>
      <point x="623" y="200"/>
      <point x="623" y="290" type="curve" smooth="yes"/>
      <point x="623" y="381"/>
      <point x="570" y="408"/>
      <point x="480" y="408" type="curve" smooth="yes"/>
      <point x="387" y="408" type="line" smooth="yes"/>
      <point x="273" y="408"/>
      <point x="231" y="336"/>
      <point x="227" y="219" type="curve"/>
      <point x="161" y="220"/>
      <point x="105" y="234"/>
    </contour>
    <contour>
      <point x="52" y="314" type="line" smooth="yes"/>
      <point x="52" y="198"/>
      <point x="137" y="175"/>
      <point x="227" y="175" type="curve"/>
      <point x="229" y="28"/>
      <point x="312" y="-1"/>
      <point x="426" y="-1" type="curve" smooth="yes"/>
      <point x="546" y="-1" type="line" smooth="yes"/>
      <point x="666" y="-1"/>
      <point x="788" y="43"/>
      <point x="788" y="198" type="curve" smooth="yes"/>
      <point x="788" y="509" type="line"/>
      <point x="927" y="518" type="line"/>
      <point x="927" y="557" type="line"/>
      <point x="788" y="557" type="line"/>
      <point x="788" y="697" type="line"/>
      <point x="742" y="697" type="line"/>
      <point x="732" y="557" type="line"/>
      <point x="270" y="557" type="line" smooth="yes"/>
      <point x="131" y="557"/>
      <point x="52" y="526"/>
      <point x="52" y="386" type="curve" smooth="yes"/>
    </contour>
  </outline>
</glyph>
<glyph name="ampersand.smcp" format="1">
  <advance width="565"/>
  <outline>
    <contour>
      <point x="208" y="37" type="curve" smooth="yes"/>
      <point x="136" y="37"/>
      <point x="92" y="80"/>
      <point x="92" y="148" type="curve" smooth="yes"/>
      <point x="92" y="187"/>
      <point x="108" y="226"/>
      <point x="156" y="264" type="curve" smooth="yes"/>
      <point x="198" y="297" type="line"/>
      <point x="345" y="110" type="line"/>
      <point x="314" y="82" type="line" smooth="yes"/>
      <point x="272" y="44"/>
      <point x="246" y="37"/>
    </contour>
    <contour>
      <point x="198" y="-5" type="curve" smooth="yes"/>
      <point x="251" y="-5"/>
      <point x="287" y="7"/>
      <point x="338" y="51" type="curve" smooth="yes"/>
      <point x="371" y="79" type="line"/>
      <point x="435" y="0" type="line"/>
      <point x="501" y="0" type="line"/>
      <point x="412" y="111" type="line"/>
      <point x="465" y="162" type="line"/>
      <point x="522" y="231" type="line"/>
      <point x="500" y="254" type="line"/>
      <point x="381" y="145" type="line"/>
      <point x="203" y="372" type="line" smooth="yes"/>
      <point x="178" y="404"/>
      <point x="164" y="426"/>
      <point x="164" y="453" type="curve" smooth="yes"/>
      <point x="164" y="491"/>
      <point x="208" y="512"/>
      <point x="261" y="512" type="curve" smooth="yes"/>
      <point x="386" y="512" type="line"/>
      <point x="386" y="550" type="line"/>
      <point x="352" y="554"/>
      <point x="315" y="559"/>
      <point x="254" y="559" type="curve" smooth="yes"/>
      <point x="173" y="559"/>
      <point x="105" y="532"/>
      <point x="105" y="462" type="curve" smooth="yes"/>
      <point x="105" y="432"/>
      <point x="121" y="399"/>
      <point x="151" y="359" type="curve" smooth="yes"/>
      <point x="173" y="331" type="line"/>
      <point x="119" y="287" type="line" smooth="yes"/>
      <point x="65" y="244"/>
      <point x="43" y="195"/>
      <point x="43" y="142" type="curve" smooth="yes"/>
      <point x="43" y="53"/>
      <point x="109" y="-5"/>
    </contour>
  </outline>
</glyph>
<glyph name="b.salt" format="1">
  <advance width="566"/>
  <outline>
    <contour>
      <point x="132" y="41" type="curve"/>
      <point x="132" y="459" type="line"/>
      <point x="200" y="477"/>
      <point x="245" y="487"/>
      <point x="309" y="487" type="curve" smooth="yes"/>
      <point x="413" y="487"/>
      <point x="449" y="412"/>
      <point x="449" y="260" type="curve" smooth="yes"/>
      <point x="449" y="129"/>
      <point x="410" y="40"/>
      <point x="307" y="40" type="curve" smooth="yes"/>
      <point x="303" y="40"/>
      <point x="134" y="40"/>
    </contour>
    <contour>
      <point x="74" y="8" type="line"/>
      <point x="128" y="-4"/>
      <point x="208" y="-11"/>
      <point x="308" y="-11" type="curve" smooth="yes"/>
      <point x="443" y="-11"/>
      <point x="507" y="86"/>
      <point x="507" y="258" type="curve" smooth="yes"/>
      <point x="507" y="424"/>
      <point x="473" y="538"/>
      <point x="323" y="538" type="curve" smooth="yes"/>
      <point x="277" y="538"/>
      <point x="190" y="523"/>
      <point x="132" y="499" type="curve"/>
      <point x="132" y="763" type="line"/>
      <point x="74" y="763" type="line"/>
    </contour>
    <contour>
      <point x="103" y="850" type="move" name="top"/>
    </contour>
  </outline>
</glyph>
<glyph name="braceleft.smcp" format="1">
  <advance width="274"/>
  <outline>
    <contour>
      <point x="30" y="253" type="line"/>
      <point x="63" y="255"/>
      <point x="96" y="235"/>
      <point x="96" y="201" type="curve" smooth="yes"/>
      <point x="96" y="-5" type="line" smooth="yes"/>
      <point x="96" y="-74"/>
      <point x="117" y="-136"/>
      <point x="243" y="-136" type="curve"/>
      <point x="243" y="-93" type="line"/>
      <point x="179" y="-93"/>
      <point x="152" y="-67"/>
      <point x="152" y="10" type="curve" smooth="yes"/>
      <point x="152" y="211" type="line" smooth="yes"/>
      <point x="152" y="246"/>
      <point x="122" y="273"/>
      <point x="83" y="278" type="curve"/>
      <point x="122" y="283"/>
      <point x="153" y="306"/>
      <point x="153" y="348" type="curve" smooth="yes"/>
      <point x="153" y="508" type="line" smooth="yes"/>
      <point x="153" y="594"/>
      <point x="182" y="621"/>
      <point x="243" y="621" type="curve"/>
      <point x="243" y="666" type="line"/>
      <point x="129" y="666"/>
      <point x="97" y="602"/>
      <point x="97" y="524" type="curve" smooth="yes"/>
      <point x="97" y="356" type="line" smooth="yes"/>
      <point x="97" y="315"/>
      <point x="57" y="306"/>
      <point x="30" y="303" type="curve"/>
    </contour>
  </outline>
</glyph>
<glyph name="braceright.smcp" format="1">
  <advance width="274"/>
  <outline>
    <contour>
      <point x="30" y="-93" type="curve"/>
      <point x="30" y="-136" type="line"/>
      <point x="157" y="-136"/>
      <point x="178" y="-74"/>
      <point x="178" y="-5" type="curve" smooth="yes"/>
      <point x="178" y="201" type="line" smooth="yes"/>
      <point x="178" y="235"/>
      <point x="211" y="255"/>
      <point x="243" y="253" type="curve"/>
      <point x="243" y="303" type="line"/>
      <point x="217" y="306"/>
      <point x="177" y="315"/>
      <point x="177" y="356" type="curve" smooth="yes"/>
      <point x="177" y="524" type="line" smooth="yes"/>
      <point x="177" y="602"/>
      <point x="144" y="666"/>
      <point x="30" y="666" type="curve"/>
      <point x="30" y="621" type="line"/>
      <point x="92" y="621"/>
      <point x="121" y="594"/>
      <point x="121" y="508" type="curve" smooth="yes"/>
      <point x="121" y="348" type="line" smooth="yes"/>
      <point x="121" y="306"/>
      <point x="151" y="283"/>
      <point x="191" y="278" type="curve"/>
      <point x="151" y="273"/>
      <point x="122" y="246"/>
      <point x="122" y="211" type="curve" smooth="yes"/>
      <point x="122" y="10" type="line" smooth="yes"/>
      <point x="122" y="-67"/>
      <point x="94" y="-93"/>
    </contour>
  </outline>
</glyph>
<glyph name="bracketleft.smcp" format="1">
  <advance width="291"/>
  <outline>
    <contour>
      <point x="90" y="5" type="line" smooth="yes"/>
      <point x="90" y="-49"/>
      <point x="105" y="-136"/>
      <point x="213" y="-136" type="curve" smooth="yes"/>
      <point x="262" y="-136" type="line"/>
      <point x="262" y="-91" type="line"/>
      <point x="226" y="-91" type="line" smooth="yes"/>
      <point x="169" y="-91"/>
      <point x="146" y="-49"/>
      <point x="146" y="7" type="curve" smooth="yes"/>
      <point x="146" y="522" type="line" smooth="yes"/>
      <point x="146" y="593"/>
      <point x="179" y="621"/>
      <point x="226" y="621" type="curve" smooth="yes"/>
      <point x="262" y="621" type="line"/>
      <point x="262" y="666" type="line"/>
      <point x="213" y="666" type="line" smooth="yes"/>
      <point x="112" y="666"/>
      <point x="90" y="589"/>
      <point x="90" y="529" type="curve" smooth="yes"/>
    </contour>
  </outline>
</glyph>
<glyph name="brevebelowcomb.case" format="1">
  <note>
    GF Latin Plus glyph
  </note>
  <outline>
    <component base="breve" xOffset="-454" yOffset="-850"/>
    <contour>
      <point x="-269" y="-150" type="move" name="_bottom"/>
    </contour>
  </outline>
</glyph>
<glyph name="brevecomb.case" format="1">
  <note>
    GF Latin Plus glyph
  </note>
  <outline>
    <component base="breve" xOffset="-456" yOffset="160"/>
    <contour>
      <point x="-269" y="810" type="move" name="_top"/>
    </contour>
  </outline>
</glyph>
<glyph name="brevecomb_hookabovecomb" format="1">
  <outline>
    <contour>
      <point x="-404" y="735" type="line"/>
      <point x="-404" y="653"/>
      <point x="-343" y="626"/>
      <point x="-276" y="626" type="curve" smooth="yes"/>
      <point x="-209" y="626"/>
      <point x="-146" y="650"/>
      <point x="-146" y="735" type="curve"/>
      <point x="-175" y="735" type="line"/>
      <point x="-175" y="674"/>
      <point x="-217" y="654"/>
      <point x="-276" y="653" type="curve" smooth="yes"/>
      <point x="-329" y="652"/>
      <point x="-375" y="674"/>
      <point x="-375" y="735" type="curve"/>
    </contour>
    <component base="hookabovecomb" xOffset="34" yOffset="90"/>
    <contour>
      <point x="-269" y="650" type="move" name="_top"/>
    </contour>
  </outline>
</glyph>
<glyph name="brevecomb_tildecomb" format="1">
  <outline>
    <contour>
      <point x="-404" y="735" type="line"/>
      <point x="-404" y="653"/>
      <point x="-343" y="626"/>
      <point x="-276" y="626" type="curve" smooth="yes"/>
      <point x="-209" y="626"/>
      <point x="-146" y="650"/>
      <point x="-146" y="735" type="curve"/>
      <point x="-175" y="735" type="line"/>
      <point x="-175" y="674"/>
      <point x="-217" y="654"/>
      <point x="-276" y="653" type="curve" smooth="yes"/>
      <point x="-329" y="652"/>
      <point x="-375" y="674"/>
      <point x="-375" y="735" type="curve"/>
    </contour>
    <contour>
      <point x="-430" y="770" type="curve"/>
      <point x="-399" y="770" type="line"/>
      <point x="-399" y="802"/>
      <point x="-373" y="816"/>
      <point x="-344" y="816" type="curve" smooth="yes"/>
      <point x="-291" y="816"/>
      <point x="-248" y="770"/>
      <point x="-193" y="770" type="curve" smooth="yes"/>
      <point x="-141" y="770"/>
      <point x="-112" y="798"/>
      <point x="-110" y="849" type="curve"/>
      <point x="-141" y="849" type="line"/>
      <point x="-141" y="818"/>
      <point x="-166" y="801"/>
      <point x="-198" y="801" type="curve" smooth="yes"/>
      <point x="-249" y="801"/>
      <point x="-291" y="847"/>
      <point x="-349" y="847" type="curve" smooth="yes"/>
      <point x="-387" y="847"/>
      <point x="-428" y="831"/>
    </contour>
    <contour>
      <point x="-269" y="650" type="move" name="_top"/>
    </contour>
  </outline>
</glyph>
<glyph name="c.superior" format="1">
  <advance width="368"/>
  <outline>
    <contour>
      <point x="45" y="475" type="curve" smooth="yes"/>
      <point x="45" y="314"/>
      <point x="113" y="276"/>
      <point x="203" y="276" type="curve" smooth="yes"/>
      <point x="256" y="276"/>
      <point x="304" y="281"/>
      <point x="339" y="286" type="curve"/>
      <point x="339" y="316" type="line"/>
      <point x="217" y="316" type="line" smooth="yes"/>
      <point x="144" y="316"/>
      <point x="96" y="345"/>
      <point x="96" y="474" type="curve" smooth="yes"/>
      <point x="96" y="608"/>
      <point x="140" y="637"/>
      <point x="216" y="637" type="curve" smooth="yes"/>
      <point x="333" y="637" type="line"/>
      <point x="333" y="667" type="line"/>
      <point x="291" y="674"/>
      <point x="243" y="677"/>
      <point x="204" y="677" type="curve" smooth="yes"/>
      <point x="107" y="677"/>
      <point x="45" y="638"/>
    </contour>
    <contour>
      <point x="202" y="757" type="move" name="top"/>
    </contour>
    <contour>
      <point x="202" y="169" type="move" name="bottom"/>
    </contour>
  </outline>
</glyph>
<glyph name="c_h" format="1">
  <advance width="1068"/>
  <outline>
    <contour>
      <point x="312" y="-6" type="curve" smooth="yes"/>
      <point x="521" y="-6"/>
      <point x="622" y="67"/>
      <point x="622" y="227" type="curve" smooth="yes"/>
      <point x="622" y="433" type="line"/>
      <point x="685" y="468"/>
      <point x="733" y="489"/>
      <point x="809" y="489" type="curve" smooth="yes"/>
      <point x="886" y="489"/>
      <point x="932" y="433"/>
      <point x="932" y="361" type="curve" smooth="yes"/>
      <point x="932" y="0" type="line"/>
      <point x="990" y="0" type="line"/>
      <point x="990" y="366" type="line" smooth="yes"/>
      <point x="990" y="461"/>
      <point x="936" y="542"/>
      <point x="825" y="542" type="curve" smooth="yes"/>
      <point x="749" y="542"/>
      <point x="674" y="509"/>
      <point x="622" y="473" type="curve"/>
      <point x="622" y="763" type="line"/>
      <point x="564" y="763" type="line"/>
      <point x="564" y="227" type="line" smooth="yes"/>
      <point x="564" y="92"/>
      <point x="479" y="41"/>
      <point x="318" y="41" type="curve" smooth="yes"/>
      <point x="203" y="41"/>
      <point x="120" y="82"/>
      <point x="120" y="263" type="curve" smooth="yes"/>
      <point x="120" y="452"/>
      <point x="181" y="492"/>
      <point x="286" y="492" type="curve" smooth="yes"/>
      <point x="446" y="492" type="line"/>
      <point x="446" y="527" type="line"/>
      <point x="391" y="535"/>
      <point x="323" y="538"/>
      <point x="273" y="538" type="curve" smooth="yes"/>
      <point x="146" y="538"/>
      <point x="62" y="487"/>
      <point x="62" y="266" type="curve" smooth="yes"/>
      <point x="62" y="45"/>
      <point x="170" y="-6"/>
    </contour>
  </outline>
</glyph>
<glyph name="c_t" format="1">
  <advance width="829"/>
  <outline>
    <contour>
      <point x="454" y="6" type="curve"/>
      <point x="454" y="41" type="line"/>
      <point x="286" y="41" type="line" smooth="yes"/>
      <point x="187" y="41"/>
      <point x="120" y="82"/>
      <point x="120" y="263" type="curve" smooth="yes"/>
      <point x="120" y="452"/>
      <point x="192" y="492"/>
      <point x="314" y="492" type="curve" smooth="yes"/>
      <point x="576" y="492" type="line"/>
      <point x="573" y="167" type="line" smooth="yes"/>
      <point x="571" y="47"/>
      <point x="622" y="0"/>
      <point x="718" y="0" type="curve" smooth="yes"/>
      <point x="785" y="0" type="line"/>
      <point x="785" y="42" type="line"/>
      <point x="720" y="48" type="line" smooth="yes"/>
      <point x="683" y="52"/>
      <point x="631" y="65"/>
      <point x="631" y="167" type="curve" smooth="yes"/>
      <point x="631" y="484" type="line"/>
      <point x="793" y="484" type="line"/>
      <point x="793" y="533" type="line"/>
      <point x="631" y="533" type="line"/>
      <point x="631" y="682" type="line"/>
      <point x="587" y="682" type="line"/>
      <point x="577" y="530" type="line"/>
      <point x="514" y="534"/>
      <point x="357" y="538"/>
      <point x="307" y="538" type="curve" smooth="yes"/>
      <point x="159" y="538"/>
      <point x="62" y="487"/>
      <point x="62" y="266" type="curve" smooth="yes"/>
      <point x="62" y="45"/>
      <point x="152" y="-6"/>
      <point x="272" y="-6" type="curve" smooth="yes"/>
      <point x="342" y="-6"/>
      <point x="408" y="0"/>
    </contour>
  </outline>
</glyph>
<glyph name="cedi.smcp" format="1">
  <advance width="516"/>
  <outline>
    <contour>
      <point x="317" y="-77" type="line"/>
      <point x="317" y="604" type="line"/>
      <point x="285" y="604" type="line"/>
      <point x="285" y="-77" type="line"/>
    </contour>
    <contour>
      <point x="67" y="277" type="curve" smooth="yes"/>
      <point x="67" y="47"/>
      <point x="140" y="-5"/>
      <point x="283" y="-5" type="curve" smooth="yes"/>
      <point x="361" y="-5"/>
      <point x="424" y="6"/>
      <point x="460" y="20" type="curve"/>
      <point x="460" y="57" type="line"/>
      <point x="408" y="45"/>
      <point x="368" y="41"/>
      <point x="296" y="41" type="curve" smooth="yes"/>
      <point x="164" y="41"/>
      <point x="118" y="85"/>
      <point x="118" y="276" type="curve" smooth="yes"/>
      <point x="118" y="483"/>
      <point x="185" y="512"/>
      <point x="308" y="512" type="curve" smooth="yes"/>
      <point x="362" y="512"/>
      <point x="418" y="503"/>
      <point x="461" y="495" type="curve"/>
      <point x="461" y="533" type="line"/>
      <point x="433" y="543"/>
      <point x="367" y="558"/>
      <point x="297" y="558" type="curve" smooth="yes"/>
      <point x="160" y="558"/>
      <point x="67" y="512"/>
    </contour>
  </outline>
</glyph>
<glyph name="circumflexcomb_acutecomb" format="1">
  <outline>
    <contour>
      <point x="-413" y="631" type="line"/>
      <point x="-377" y="631" type="line"/>
      <point x="-267" y="697" type="line"/>
      <point x="-168" y="631" type="line"/>
      <point x="-131" y="631" type="line"/>
      <point x="-246" y="726" type="line"/>
      <point x="-288" y="726" type="line"/>
    </contour>
    <contour>
      <point x="-188" y="705" type="line"/>
      <point x="-154" y="705" type="line"/>
      <point x="-36" y="836" type="line"/>
      <point x="-88" y="836" type="line"/>
    </contour>
    <contour>
      <point x="-269" y="650" type="move" name="_top"/>
    </contour>
  </outline>
</glyph>
<glyph name="circumflexcomb_gravecomb" format="1">
  <outline>
    <contour>
      <point x="-413" y="631" type="line"/>
      <point x="-377" y="631" type="line"/>
      <point x="-267" y="697" type="line"/>
      <point x="-168" y="631" type="line"/>
      <point x="-131" y="631" type="line"/>
      <point x="-246" y="726" type="line"/>
      <point x="-288" y="726" type="line"/>
    </contour>
    <contour>
      <point x="-384" y="705" type="line"/>
      <point x="-350" y="705" type="line"/>
      <point x="-451" y="836" type="line"/>
      <point x="-502" y="836" type="line"/>
    </contour>
    <contour>
      <point x="-269" y="650" type="move" name="_top"/>
    </contour>
  </outline>
</glyph>
<glyph name="circumflexcomb_tildecomb" format="1">
  <outline>
    <contour>
      <point x="-430" y="774" type="curve"/>
      <point x="-399" y="774" type="line"/>
      <point x="-399" y="806"/>
      <point x="-374" y="820"/>
      <point x="-346" y="820" type="curve" smooth="yes"/>
      <point x="-293" y="820"/>
      <point x="-248" y="774"/>
      <point x="-193" y="774" type="curve" smooth="yes"/>
      <point x="-141" y="774"/>
      <point x="-112" y="802"/>
      <point x="-110" y="853" type="curve"/>
      <point x="-141" y="853" type="line"/>
      <point x="-141" y="822"/>
      <point x="-166" y="805"/>
      <point x="-198" y="805" type="curve" smooth="yes"/>
      <point x="-249" y="805"/>
      <point x="-291" y="851"/>
      <point x="-349" y="851" type="curve" smooth="yes"/>
      <point x="-387" y="851"/>
      <point x="-428" y="835"/>
    </contour>
    <contour>
      <point x="-288" y="726" type="line"/>
      <point x="-413" y="631" type="line"/>
      <point x="-377" y="631" type="line"/>
      <point x="-267" y="697" type="line"/>
      <point x="-168" y="631" type="line"/>
      <point x="-131" y="631" type="line"/>
      <point x="-246" y="726" type="line"/>
    </contour>
    <contour>
      <point x="-269" y="650" type="move" name="_top"/>
    </contour>
  </outline>
</glyph>
<glyph name="colonsign" format="1">
  <advance width="609"/>
  <note>
    GF Latin Plus glyph
  </note>
  <outline>
    <contour>
      <point x="265" y="-110" type="line"/>
      <point x="599" y="793" type="line"/>
      <point x="562" y="793" type="line"/>
      <point x="228" y="-110" type="line"/>
    </contour>
    <contour>
      <point x="125" y="-110" type="line"/>
      <point x="459" y="793" type="line"/>
      <point x="422" y="793" type="line"/>
      <point x="88" y="-110" type="line"/>
    </contour>
    <contour>
      <point x="68" y="374" type="curve" smooth="yes"/>
      <point x="68" y="70"/>
      <point x="157" y="-6"/>
      <point x="335" y="-6" type="curve" smooth="yes"/>
      <point x="429" y="-6"/>
      <point x="508" y="8"/>
      <point x="553" y="26" type="curve"/>
      <point x="553" y="65" type="line"/>
      <point x="486" y="48"/>
      <point x="436" y="42"/>
      <point x="348" y="42" type="curve" smooth="yes"/>
      <point x="181" y="42"/>
      <point x="122" y="112"/>
      <point x="122" y="372" type="curve" smooth="yes"/>
      <point x="122" y="653"/>
      <point x="209" y="700"/>
      <point x="372" y="700" type="curve" smooth="yes"/>
      <point x="437" y="700"/>
      <point x="495" y="687"/>
      <point x="542" y="677" type="curve"/>
      <point x="554" y="714" type="line"/>
      <point x="521" y="728"/>
      <point x="458" y="750"/>
      <point x="361" y="750" type="curve" smooth="yes"/>
      <point x="188" y="750"/>
      <point x="68" y="684"/>
    </contour>
  </outline>
</glyph>
<glyph name="colonsign.smcp" format="1">
  <advance width="516"/>
  <outline>
    <contour>
      <point x="230" y="-84" type="line"/>
      <point x="496" y="604" type="line"/>
      <point x="463" y="604" type="line"/>
      <point x="197" y="-84" type="line"/>
    </contour>
    <contour>
      <point x="116" y="-84" type="line"/>
      <point x="383" y="604" type="line"/>
      <point x="350" y="604" type="line"/>
      <point x="83" y="-84" type="line"/>
    </contour>
    <contour>
      <point x="65" y="285" type="curve" smooth="yes"/>
      <point x="65" y="52"/>
      <point x="138" y="-5"/>
      <point x="281" y="-5" type="curve" smooth="yes"/>
      <point x="359" y="-5"/>
      <point x="422" y="6"/>
      <point x="458" y="20" type="curve"/>
      <point x="458" y="55" type="line"/>
      <point x="406" y="43"/>
      <point x="366" y="39"/>
      <point x="294" y="39" type="curve" smooth="yes"/>
      <point x="162" y="39"/>
      <point x="116" y="90"/>
      <point x="116" y="283" type="curve" smooth="yes"/>
      <point x="116" y="492"/>
      <point x="184" y="527"/>
      <point x="313" y="527" type="curve" smooth="yes"/>
      <point x="364" y="527"/>
      <point x="410" y="518"/>
      <point x="446" y="510" type="curve"/>
      <point x="459" y="544" type="line"/>
      <point x="432" y="555"/>
      <point x="381" y="571"/>
      <point x="301" y="571" type="curve" smooth="yes"/>
      <point x="162" y="571"/>
      <point x="65" y="521"/>
    </contour>
  </outline>
</glyph>
<glyph name="commaaccentcomb" format="1">
  <note>
    GF Latin Plus glyph
  </note>
  <outline>
    <contour>
      <point x="-386" y="-174" type="line"/>
      <point x="-386" y="-198" type="line"/>
      <point x="-352" y="-198" type="line" smooth="yes"/>
      <point x="-265" y="-198"/>
      <point x="-245" y="-160"/>
      <point x="-245" y="-60" type="curve"/>
      <point x="-282" y="-60" type="line"/>
      <point x="-280" y="-154"/>
      <point x="-306" y="-164"/>
      <point x="-355" y="-170" type="curve" smooth="yes"/>
    </contour>
    <contour>
      <point x="-304" y="-150" type="move" name="_bottom"/>
    </contour>
  </outline>
</glyph>
<glyph name="commaturnedabovecomb" format="1">
  <note>
    GF Latin Plus glyph
  </note>
  <outline>
    <contour>
      <point x="-235" y="726" type="line"/>
      <point x="-235" y="750" type="line"/>
      <point x="-269" y="750" type="line" smooth="yes"/>
      <point x="-356" y="750"/>
      <point x="-377" y="713"/>
      <point x="-377" y="612" type="curve"/>
      <point x="-340" y="612" type="line"/>
      <point x="-341" y="706"/>
      <point x="-315" y="716"/>
      <point x="-266" y="722" type="curve" smooth="yes"/>
    </contour>
    <contour>
      <point x="-328" y="650" type="move" name="_top"/>
    </contour>
  </outline>
</glyph>
